<?xml version="1.0" encoding="utf-8"?>
<svg xmlns="http://www.w3.org/2000/svg">
<symbol id="answer" viewBox="0 0 32 33"><g fill="none" fill-rule="evenodd"><path fill="#D0011B" d="M26.585 32.976v-3.914h5.26zm0-7.853v3.914h5.26z"/><path d="M.738 1.246v27.57m27.924.246H.738" stroke="#D0011B" stroke-linecap="square"/></g>
</symbol>
<symbol id="arrow-nav" viewBox="0 0 25 14"><g fill="none" fill-rule="evenodd"><path fill="#D0011B" d="M15 13.85V7h9.19z"/><path fill="#D0011B" d="M15 0v7.023h9.206z"/><path d="M18.796 6.741H1.013" stroke="#D0011B" stroke-width="2" stroke-linecap="square"/></g>
</symbol>
<symbol id="arrow" viewBox="0 0 23 16"><path d="M11.713 4.197l6.898 6.898m-6.974-6.822l-7.425 7.424" stroke="#D0011B" stroke-width="5" fill="none" fill-rule="evenodd" stroke-linecap="square"/>
</symbol>
<symbol id="forlift" viewBox="0 0 56 56"><path d="M25.205 25.104l1.342-1.341a.894.894 0 0 0 0-1.294.895.895 0 0 0-1.296 0l-1.665 1.664a1.057 1.057 0 0 0-.37.37l-1.664 1.664a.893.893 0 0 0 0 1.294.84.84 0 0 0 .647.278.84.84 0 0 0 .647-.278l.953-.952 5.145 9.552h-6.652v-1.942a3.513 3.513 0 0 0-3.515-3.514h-.74c-.74 0-1.388-.648-1.388-1.387v-3.513a3.513 3.513 0 0 0-3.515-3.514H11.87l1.998-16.643H24.05c.37 0 1.387.832 3.607 8.136 1.395 4.67 1.79 10.815 1.901 19.499l-4.352-8.08zm.703 28.019a2.617 2.617 0 1 1 0-5.234 2.617 2.617 0 0 1 0 5.234zm-18.58-.524a4.449 4.449 0 1 1 0-8.897 4.449 4.449 0 0 1 0 8.897zm45.395-2.669h-9.25V2.774C43.473 1.202 42.27 0 40.698 0c-1.572 0-2.775 1.202-2.775 2.774v30.513h-2.826C34.837 13.855 33.363 0 25.9 0H7.4c-.554 0-.924.37-.924.925v3.698c0 .555.37.925.925.925h.938L5.551 23.617a3.669 3.669 0 0 0-1.851-.501A3.71 3.71 0 0 0 0 26.815a3.7 3.7 0 0 0 1.599 3.038A4.708 4.708 0 0 0 0 33.379V48.08c0 4.07 3.33 7.398 7.4 7.398 2.724 0 5.114-1.492 6.399-3.698h7.564c.419 2.132 2.263 3.698 4.536 3.698 2.272 0 4.116-1.566 4.535-3.698h.922a3.75 3.75 0 0 0 3.792-3.792v-1.757h2.775v8.322c0 .555.37.925.925.925h13.874c1.573 0 2.775-1.202 2.775-2.774s-1.202-2.774-2.774-2.774z" fill-rule="evenodd"/>
</symbol>
<symbol id="helictopter" viewBox="0 0 56 54"><defs><path id="a" d="M0 54.168h55.659V0H0z"/></defs><g fill-rule="evenodd"><mask id="b"></mask><path d="M38.106 42.548c.15 0 .3-.009.446-.025v.025c3.179 0 5.761 2.286 6.188 5.31h-.384c-1.25 0-2.232.973-2.232 2.213v1.328H13.552V50.07c0-1.24-.982-2.213-2.232-2.213h-.383c.426-3.024 3.008-5.31 6.187-5.31v-.025c.146.016.295.025.446.025h20.536zm-9.375-23.01h3.393c3.214 0 6.071 2.389 6.518 5.574l.755 5.046H32.66l2.946-2.921a.85.85 0 0 0 0-1.239.868.868 0 0 0-1.25 0l-4.196 4.16h-1.43v-10.62zm-11.697 5.574c.536-3.274 3.215-5.575 6.518-5.575h3.393v10.621h-5.893L24 27.237a.85.85 0 0 0 0-1.239.868.868 0 0 0-1.25 0l-4.197 4.16H16.28l.755-5.046zM54.268 11.69L34.652 7.12l19.616-4.57a1.798 1.798 0 0 0-.815-3.502L26.727 5.273 2.207-.439a1.799 1.799 0 1 0-.816 3.502l17.41 4.057-17.41 4.056a1.799 1.799 0 1 0 .816 3.503l24.52-5.713.218.05v3.441h-.535c-1.161 0-2.143.974-2.143 2.124v3.186h-.715c-4.196 0-7.678 3.009-8.303 7.08l-1.697 11.418v2.3c0 1.011.374 1.93.992 2.63a7.934 7.934 0 0 0-5.407 6.663h-.496c-1.25 0-2.232.973-2.232 2.213v1.328H1.945c-.536 0-.893.354-.893.884 0 .531.357.885.893.885h51.786c.536 0 .893-.354.893-.885 0-.53-.357-.884-.893-.884h-4.464V50.07c0-1.24-.982-2.213-2.232-2.213h-.497a7.934 7.934 0 0 0-5.406-6.664c.618-.7.992-1.618.992-2.629v-2.212l-1.697-11.506c-.625-4.07-4.196-7.08-8.303-7.08h-.714V14.58c0-1.15-.983-2.124-2.143-2.124h-.536V9.432l24.722 5.76a1.8 1.8 0 0 0 .815-3.503z" mask="url(#b)"/></g>
</symbol>
<symbol id="logo-color" viewBox="0 0 230 62"><defs><path id="a" d="M0 61.315h229.933V.045H0z"/></defs><g fill="none" fill-rule="evenodd"><path fill="#DC1325" d="M34.37.138L0 15.26l.138 31.482 34.506 14.665L69.151 46.33V15.26z"/><path fill="#FFF" d="M65.098 44.372L34.531 57.563v.085L3.964 44.457V18.71l8.879 4.439v16.515l21.604 9.323V31.478l1.597-.647 28.97-12.502v8.625L44.467 35.82v8.83l20.631-8.903z"/><path fill="#DC1325" d="M35.134 33.265v.042l1.597-.69z"/><path fill="#FFF" d="M77.481 15.801h3.146v12.742h7.518v2.793H77.48z"/><g transform="translate(0 .092)"><path d="M99.886 27.503c.732-.949 1.099-2.298 1.099-4.047 0-1.743-.367-3.09-1.099-4.042s-1.72-1.428-2.967-1.428c-1.246 0-2.24.475-2.982 1.423-.743.948-1.114 2.297-1.114 4.047 0 1.75.371 3.098 1.114 4.047.742.948 1.736 1.423 2.982 1.423 1.246 0 2.235-.475 2.967-1.423zm1.967 2.36c-1.138 1.21-2.782 1.813-4.934 1.813s-3.796-.604-4.934-1.812c-1.525-1.483-2.287-3.619-2.287-6.408 0-2.846.762-4.981 2.287-6.408 1.138-1.208 2.782-1.813 4.934-1.813s3.796.605 4.934 1.813c1.518 1.427 2.277 3.562 2.277 6.408 0 2.79-.759 4.925-2.277 6.408zm14.8-9.305c-.238-1.061-.82-1.802-1.746-2.224a4.175 4.175 0 0 0-1.726-.348c-1.213 0-2.209.472-2.988 1.415-.78.943-1.17 2.361-1.17 4.255 0 1.907.422 3.257 1.267 4.05.844.792 1.804 1.188 2.88 1.188 1.056 0 1.92-.312 2.595-.937.674-.625 1.09-1.444 1.246-2.456h-3.483v-2.593h6.271v8.336h-2.083l-.317-1.939c-.606.734-1.15 1.252-1.634 1.553-.831.524-1.852.787-3.065.787-1.995 0-3.63-.713-4.903-2.138-1.327-1.433-1.991-3.392-1.991-5.877 0-2.514.67-4.53 2.012-6.046 1.341-1.517 3.115-2.275 5.322-2.275 1.913 0 3.45.5 4.611 1.502 1.162 1.001 1.827 2.25 1.997 3.747h-3.095zm15.777 6.945c.732-.949 1.098-2.298 1.098-4.047 0-1.743-.366-3.09-1.098-4.042-.732-.952-1.722-1.428-2.968-1.428s-2.24.475-2.982 1.423c-.743.948-1.114 2.297-1.114 4.047 0 1.75.371 3.098 1.114 4.047.742.948 1.736 1.423 2.982 1.423 1.246 0 2.236-.475 2.968-1.423m1.966 2.36c-1.137 1.21-2.782 1.813-4.934 1.813s-3.796-.604-4.933-1.812c-1.526-1.483-2.288-3.619-2.288-6.408 0-2.846.762-4.981 2.288-6.408 1.137-1.208 2.781-1.813 4.933-1.813 2.152 0 3.797.605 4.934 1.813 1.518 1.427 2.278 3.562 2.278 6.408 0 2.79-.76 4.925-2.278 6.408m6.946-3.415c.097.71.288 1.24.573 1.591.522.64 1.415.96 2.68.96.758 0 1.374-.085 1.847-.253.896-.324 1.345-.924 1.345-1.803 0-.513-.22-.91-.659-1.19-.44-.275-1.136-.517-2.09-.728l-1.63-.369c-1.602-.365-2.703-.762-3.302-1.19-1.015-.717-1.522-1.838-1.522-3.362 0-1.392.496-2.547 1.489-3.468.992-.92 2.45-1.38 4.374-1.38 1.606 0 2.976.433 4.11 1.301 1.134.868 1.728 2.127 1.784 3.778h-3.024c-.056-.934-.46-1.598-1.215-1.992-.502-.26-1.127-.39-1.874-.39-.83 0-1.494.17-1.99.506-.495.338-.743.808-.743 1.413 0 .555.244.97.733 1.243.314.183.98.397 2 .643l2.643.643c1.157.281 2.025.657 2.603 1.128.898.73 1.347 1.788 1.347 3.172 0 1.42-.532 2.598-1.595 3.536-1.064.938-2.566 1.407-4.507 1.407-1.982 0-3.541-.462-4.677-1.386-1.136-.924-1.703-2.194-1.703-3.81h3.003zm14.565-9.529c1.212-1.278 2.755-1.918 4.628-1.918 2.506 0 4.338.857 5.497 2.572.64.962.984 1.928 1.03 2.898h-3.145c-.2-.745-.457-1.307-.77-1.686-.56-.675-1.392-1.012-2.492-1.012-1.121 0-2.005.476-2.652 1.428-.647.952-.97 2.3-.97 4.042s.34 3.047 1.024 3.915c.682.868 1.55 1.302 2.602 1.302 1.08 0 1.902-.373 2.468-1.118.313-.4.573-1 .78-1.802h3.125c-.27 1.694-.958 3.07-2.066 4.132-1.109 1.06-2.528 1.59-4.26 1.59-2.142 0-3.826-.716-5.052-2.15-1.226-1.44-1.84-3.414-1.84-5.922 0-2.712.698-4.802 2.093-6.27m17.767 8.041h3.856l-1.902-6.113-1.954 6.113zm.207-9.665h3.56l5.327 15.535h-3.412l-.994-3.194h-5.544l-1.02 3.194h-3.292l5.375-15.535zm13.948 2.698v4.174h3.386c.672 0 1.176-.085 1.513-.253.595-.295.892-.878.892-1.75 0-.941-.288-1.573-.863-1.897-.323-.182-.808-.274-1.455-.274h-3.473zm6.502-2.297a3.729 3.729 0 0 1 1.41 1.085c.318.394.57.83.757 1.307.186.478.279 1.022.279 1.634a4.76 4.76 0 0 1-.542 2.176c-.36.713-.956 1.217-1.787 1.512.694.288 1.186.698 1.476 1.228.289.53.434 1.34.434 2.43v1.043c0 .71.027 1.19.083 1.444.083.4.277.695.58.885v.39h-3.472a11.425 11.425 0 0 1-.204-.833 7.865 7.865 0 0 1-.133-1.338l-.02-1.444c-.013-.99-.18-1.651-.498-1.982-.32-.33-.917-.495-1.792-.495h-3.073v6.092h-3.075V15.297h7.202c1.029.021 1.82.155 2.375.4zm15.581 4.447c-.238-1.06-.82-1.802-1.746-2.223a4.175 4.175 0 0 0-1.727-.348c-1.212 0-2.208.471-2.987 1.415-.78.943-1.17 2.36-1.17 4.254 0 1.908.422 3.258 1.267 4.05.844.793 1.804 1.189 2.88 1.189 1.056 0 1.92-.313 2.595-.938.674-.625 1.09-1.443 1.246-2.456h-3.483v-2.593h6.271v8.337h-2.083l-.317-1.94c-.606.735-1.15 1.253-1.634 1.553-.831.525-1.852.787-3.065.787-1.995 0-3.63-.712-4.902-2.138-1.328-1.432-1.992-3.391-1.992-5.877 0-2.513.67-4.529 2.012-6.045 1.341-1.517 3.115-2.275 5.322-2.275 1.913 0 3.45.5 4.611 1.502 1.161 1 1.827 2.25 1.997 3.746h-3.095zm15.777 6.945c.732-.948 1.098-2.297 1.098-4.047 0-1.742-.366-3.09-1.098-4.041-.732-.952-1.722-1.428-2.968-1.428s-2.24.474-2.982 1.422c-.743.949-1.114 2.298-1.114 4.047 0 1.75.371 3.1 1.114 4.047.742.949 1.736 1.423 2.982 1.423 1.246 0 2.236-.474 2.968-1.423m1.966 2.361c-1.137 1.209-2.782 1.813-4.934 1.813-2.151 0-3.796-.604-4.933-1.813-1.526-1.482-2.288-3.618-2.288-6.408 0-2.845.762-4.98 2.288-6.407 1.137-1.209 2.782-1.813 4.933-1.813 2.152 0 3.797.604 4.934 1.813 1.518 1.426 2.278 3.562 2.278 6.407 0 2.79-.76 4.926-2.278 6.408M77.79 44.76c.025.26.099.458.22.596.223.25.609.376 1.159.376.327 0 .615-.063.864-.188.248-.125.373-.319.373-.58 0-.2-.1-.351-.298-.455-.128-.063-.378-.136-.753-.22l-.7-.156c-.446-.097-.775-.207-.987-.328-.378-.21-.567-.5-.567-.872 0-.438.178-.792.534-1.063.356-.27.834-.406 1.436-.406.786 0 1.353.204 1.7.613.219.26.324.539.318.838h-.818a.835.835 0 0 0-.211-.477c-.204-.203-.557-.305-1.06-.305-.334 0-.588.056-.76.168-.172.112-.258.26-.258.444 0 .2.113.361.34.482.13.072.323.135.578.19l.583.125c.634.135 1.058.266 1.274.393.336.198.505.511.505.937 0 .412-.176.768-.528 1.067-.353.3-.89.45-1.61.45-.776 0-1.325-.157-1.648-.47a1.67 1.67 0 0 1-.52-1.159h.833zm4.41-3.175h.856v.656c.205-.227.391-.393.558-.496.285-.176.61-.264.972-.264.41 0 .74.09.99.272.142.104.27.257.385.458.193-.248.419-.43.679-.55.26-.12.551-.18.875-.18.693 0 1.164.225 1.414.674.135.242.202.567.202.976v3.08h-.9v-3.214c0-.308-.085-.52-.256-.635a1.1 1.1 0 0 0-.628-.173c-.34 0-.633.103-.878.307-.245.205-.368.546-.368 1.024v2.691h-.88v-3.02c0-.313-.042-.542-.125-.686-.132-.216-.377-.324-.736-.324a1.35 1.35 0 0 0-.893.341c-.267.228-.401.64-.401 1.236v2.453H82.2v-4.626zm9.144 3.927c.183.13.4.194.65.194.304 0 .599-.063.884-.19.481-.21.722-.553.722-1.03v-.626c-.106.06-.242.111-.408.152a3.85 3.85 0 0 1-.49.086l-.523.06c-.314.038-.55.097-.708.177a.677.677 0 0 0-.401.647c0 .224.091.4.274.53zm1.823-2.1c.199-.023.332-.098.4-.225a.629.629 0 0 0 .057-.3c0-.265-.105-.458-.314-.578-.21-.12-.51-.18-.9-.18-.452 0-.772.11-.96.33-.106.122-.175.302-.207.543h-.808c.016-.572.222-.97.617-1.194.396-.224.855-.336 1.377-.336.605 0 1.097.104 1.475.311.374.208.562.53.562.968v2.666c0 .08.018.145.055.194.037.049.115.073.233.073a2.161 2.161 0 0 0 .284-.026v.575a2.66 2.66 0 0 1-.308.065c-.07.008-.166.013-.288.013-.299 0-.515-.095-.65-.285a1.032 1.032 0 0 1-.149-.428c-.176.207-.43.387-.76.54-.33.153-.694.23-1.092.23-.478 0-.868-.131-1.171-.392a1.235 1.235 0 0 1-.455-.977c0-.428.15-.76.448-.996.298-.236.69-.382 1.174-.436l1.38-.156zm2.742-1.827h.822v.799c.068-.155.233-.345.496-.568a1.364 1.364 0 0 1 .99-.33c.039.002.105.008.198.017v.82a1.43 1.43 0 0 0-.284-.021c-.436 0-.771.126-1.005.378a1.24 1.24 0 0 0-.351.87v2.661h-.866v-4.626zm3.429-1.292h.876v1.292h.822v.635h-.822v3.02c0 .16.06.269.182.324.068.031.18.047.337.047l.135-.003a2.58 2.58 0 0 0 .168-.014v.617c-.1.026-.203.045-.31.057a3.278 3.278 0 0 1-.349.017c-.404 0-.678-.093-.822-.279-.145-.186-.217-.427-.217-.723V42.22h-.697v-.635h.697v-1.292z" fill="#FFF"/><mask id="b" fill="#fff"></mask><path fill="#FFF" mask="url(#b)" d="M104.663 46.211h.866v-6.346h-.866zm5.36-1.09c.21-.39.316-.823.316-1.3 0-.432-.076-.783-.228-1.053-.241-.426-.657-.639-1.247-.639-.523 0-.903.181-1.141.544-.238.362-.357.8-.357 1.311 0 .493.12.902.357 1.23.238.328.615.492 1.132.492.568 0 .957-.195 1.168-.585m.537-3.074c.456.397.683.98.683 1.752 0 .745-.2 1.36-.602 1.847-.4.486-1.023.73-1.867.73-.704 0-1.263-.215-1.677-.646-.414-.43-.62-1.007-.62-1.733 0-.776.218-1.395.654-1.856.436-.46 1.022-.69 1.757-.69.66 0 1.217.198 1.672.596m4.716.557a1.318 1.318 0 0 0-1-.415c-.606 0-1.02.257-1.244.77-.118.273-.177.632-.177 1.075 0 .521.117.918.351 1.19.235.273.55.408.946.408.618 0 1.054-.252 1.306-.755.14-.285.21-.618.21-.998 0-.573-.13-.998-.392-1.275m-.106-.833c.163.1.33.247.499.44v-.583h.798v4.208c0 .587-.096 1.05-.288 1.39-.358.628-1.033.942-2.027.942-.553 0-1.018-.111-1.396-.334-.377-.224-.588-.573-.632-1.048h.88a.845.845 0 0 0 .248.48c.195.172.501.259.92.259.66 0 1.091-.21 1.296-.631.12-.248.177-.69.167-1.326-.173.236-.38.412-.623.527-.243.115-.564.172-.963.172a2.179 2.179 0 0 1-1.459-.533c-.417-.355-.625-.944-.625-1.765 0-.774.21-1.379.63-1.814.42-.435.927-.652 1.521-.652.403 0 .754.089 1.054.268m2.615 4.44h.88v-4.605h-.88v4.605zm0-5.464h.88v-.882h-.88v.882zm2.703 4.013c.026.26.1.458.22.596.224.25.61.376 1.16.376.327 0 .615-.063.864-.188s.373-.319.373-.58c0-.2-.1-.351-.298-.455-.128-.063-.378-.136-.753-.22l-.7-.156c-.446-.097-.775-.207-.986-.328-.379-.21-.568-.5-.568-.872 0-.438.178-.792.534-1.063.356-.27.834-.406 1.436-.406.786 0 1.353.204 1.7.613.219.26.324.539.318.838h-.818a.833.833 0 0 0-.211-.477c-.204-.203-.557-.305-1.06-.305-.334 0-.588.056-.76.168-.172.112-.258.26-.258.444 0 .2.113.361.34.482.13.072.323.135.578.19l.583.125c.634.135 1.058.266 1.274.393.337.198.505.511.505.937 0 .412-.176.768-.528 1.067-.353.3-.889.45-1.61.45-.776 0-1.325-.157-1.648-.47a1.671 1.671 0 0 1-.519-1.159h.832zm4.584-4.467h.876v1.292h.822v.635h-.822v3.02c0 .16.06.269.182.324.068.031.18.047.337.047l.135-.003a2.58 2.58 0 0 0 .168-.014v.617c-.1.026-.203.045-.31.057a3.277 3.277 0 0 1-.349.017c-.404 0-.678-.093-.822-.279-.145-.186-.217-.427-.217-.723V42.22h-.697v-.635h.697v-1.292zm5.785 1.292h.957c-.122.296-.393.974-.813 2.031a93.567 93.567 0 0 1-.79 1.945c-.499 1.18-.851 1.9-1.056 2.158-.205.26-.558.389-1.058.389-.121 0-.215-.004-.28-.013a2.446 2.446 0 0 1-.243-.048v-.708c.15.037.259.06.326.07.067.008.127.012.178.012.16 0 .278-.024.353-.071a.694.694 0 0 0 .19-.175 20.45 20.45 0 0 0 .389-.828l-1.906-4.762h.982l1.38 3.769 1.39-3.77zm5.108.246c.363.253.582.69.656 1.309h-.842a1.331 1.331 0 0 0-.35-.71c-.183-.19-.477-.284-.881-.284-.551 0-.946.242-1.183.725-.154.314-.231.7-.231 1.16 0 .464.109.854.327 1.17.218.317.561.475 1.03.475.359 0 .643-.098.853-.295.21-.196.355-.465.435-.807h.842c-.096.614-.337 1.062-.721 1.346-.385.284-.877.425-1.477.425-.673 0-1.21-.22-1.611-.663-.401-.442-.602-.994-.602-1.656 0-.813.22-1.445.66-1.897.439-.452.998-.678 1.678-.678.58 0 1.053.127 1.417.38m2.037 2.929c.026.26.1.458.22.596.223.25.61.376 1.16.376.327 0 .615-.063.863-.188.249-.125.373-.319.373-.58 0-.2-.099-.351-.298-.455-.127-.063-.378-.136-.753-.22l-.699-.156c-.446-.097-.775-.207-.987-.328-.378-.21-.567-.5-.567-.872 0-.438.178-.792.534-1.063.356-.27.834-.406 1.435-.406.787 0 1.354.204 1.702.613.217.26.323.539.317.838h-.818a.834.834 0 0 0-.212-.477c-.203-.203-.556-.305-1.059-.305-.334 0-.588.056-.76.168-.173.112-.259.26-.259.444 0 .2.113.361.34.482.13.072.323.135.578.19l.583.125c.634.135 1.059.266 1.275.393.336.198.505.511.505.937 0 .412-.177.768-.529 1.067-.352.3-.889.45-1.61.45-.775 0-1.325-.157-1.648-.47a1.67 1.67 0 0 1-.518-1.159h.832z"/><path fill="#DC1325" mask="url(#b)" d="M76.987 37.156h64.051v-1.24h-64.05z"/></g></g>
</symbol>
<symbol id="logo-white" viewBox="0 0 230 62"><defs><path id="a" d="M0 61.278h229.999V.046H0z"/></defs><g fill="none" fill-rule="evenodd"><path d="M34.348.137L0 15.251v.028l.137 31.435L34.624 61.37 69.11 46.302V15.251L34.349.137zm.281 39.39v-8.662l1.597-.647 28.952-12.494v8.62l-20.534 8.861v8.825l20.619-8.898v8.62L34.714 56.935v.084L4.165 43.836V18.104l8.873 4.437v16.505l21.591 9.317v-8.836z" fill="#FFF"/><path fill="#DC1325" d="M35.316 32.65v.043l1.597-.689z"/><path fill="#FFF" d="M77.638 15.198h3.144v12.734h7.514v2.791H77.638z"/><g transform="translate(0 .092)"><path d="M100.03 26.892c.731-.948 1.098-2.296 1.098-4.044 0-1.742-.367-3.088-1.098-4.04-.731-.951-1.72-1.427-2.965-1.427-1.246 0-2.24.474-2.981 1.422-.742.948-1.113 2.296-1.113 4.045 0 1.748.37 3.096 1.113 4.044.741.948 1.735 1.422 2.98 1.422 1.246 0 2.235-.474 2.966-1.422zm1.965 2.36c-1.137 1.207-2.78 1.811-4.93 1.811-2.151 0-3.795-.604-4.931-1.811-1.525-1.482-2.287-3.617-2.287-6.404 0-2.844.762-4.979 2.287-6.404 1.136-1.208 2.78-1.812 4.93-1.812 2.151 0 3.794.604 4.931 1.812 1.518 1.425 2.277 3.56 2.277 6.404 0 2.787-.76 4.922-2.277 6.404zm14.792-9.301c-.238-1.06-.82-1.8-1.745-2.222a4.173 4.173 0 0 0-1.726-.348c-1.211 0-2.206.472-2.986 1.414-.779.943-1.169 2.36-1.169 4.252 0 1.907.422 3.256 1.266 4.048.844.792 1.804 1.188 2.88 1.188 1.054 0 1.918-.313 2.592-.937.674-.625 1.089-1.443 1.245-2.455h-3.48V22.3h6.267v8.331h-2.082l-.317-1.938c-.606.734-1.15 1.252-1.633 1.552-.83.524-1.851.787-3.063.787-1.994 0-3.627-.713-4.9-2.137-1.327-1.432-1.99-3.39-1.99-5.874 0-2.512.67-4.526 2.01-6.042 1.341-1.515 3.115-2.273 5.32-2.273 1.912 0 3.448.5 4.608 1.5 1.16 1.001 1.826 2.25 1.996 3.745h-3.093zm15.767 6.941c.731-.948 1.097-2.296 1.097-4.044 0-1.742-.366-3.088-1.097-4.04-.732-.951-1.72-1.427-2.966-1.427-1.245 0-2.239.474-2.98 1.422-.742.948-1.113 2.296-1.113 4.045 0 1.748.37 3.096 1.112 4.044.742.948 1.736 1.422 2.981 1.422 1.246 0 2.234-.474 2.966-1.422m1.965 2.36c-1.137 1.207-2.78 1.811-4.93 1.811-2.151 0-3.795-.604-4.931-1.811-1.525-1.482-2.287-3.617-2.287-6.404 0-2.844.762-4.979 2.287-6.404 1.136-1.208 2.78-1.812 4.93-1.812s3.794.604 4.931 1.812c1.518 1.425 2.276 3.56 2.276 6.404 0 2.787-.758 4.922-2.276 6.404m6.941-3.413c.098.71.289 1.24.574 1.59.521.64 1.414.959 2.679.959.757 0 1.372-.084 1.844-.253.897-.323 1.345-.923 1.345-1.8 0-.514-.22-.91-.659-1.191-.439-.274-1.135-.516-2.089-.727l-1.629-.368c-1.6-.366-2.7-.762-3.3-1.19-1.014-.717-1.52-1.837-1.52-3.36 0-1.391.495-2.546 1.487-3.466.992-.92 2.45-1.38 4.372-1.38 1.605 0 2.974.434 4.107 1.301 1.134.867 1.728 2.126 1.783 3.776h-3.021c-.056-.934-.461-1.597-1.214-1.99-.503-.26-1.127-.39-1.874-.39-.83 0-1.493.168-1.988.505-.496.337-.743.808-.743 1.411 0 .555.244.97.732 1.244.314.182.98.396 2 .642l2.64.642c1.157.281 2.025.657 2.603 1.127.896.73 1.345 1.787 1.345 3.17 0 1.42-.532 2.597-1.594 3.535-1.063.937-2.564 1.406-4.504 1.406-1.981 0-3.54-.462-4.674-1.385-1.135-.924-1.703-2.193-1.703-3.808h3.002zm14.557-9.523c1.212-1.278 2.754-1.917 4.625-1.917 2.505 0 4.336.857 5.494 2.57.64.962.983 1.927 1.03 2.896h-3.144c-.2-.744-.457-1.306-.77-1.685-.56-.674-1.39-1.01-2.49-1.01-1.12 0-2.004.475-2.65 1.426-.647.952-.97 2.298-.97 4.04 0 1.741.341 3.045 1.023 3.913.683.867 1.55 1.3 2.602 1.3 1.078 0 1.9-.372 2.466-1.116.313-.4.573-1 .779-1.801h3.124c-.27 1.692-.958 3.069-2.065 4.129-1.108 1.06-2.527 1.59-4.257 1.59-2.141 0-3.824-.716-5.05-2.149-1.225-1.439-1.838-3.412-1.838-5.919 0-2.71.697-4.8 2.09-6.267m17.757 8.037h3.854l-1.9-6.11-1.954 6.11zm.208-9.66h3.557l5.324 15.526h-3.41l-.993-3.191h-5.541l-1.02 3.191h-3.289l5.372-15.525zm13.939 2.697v4.171h3.384c.672 0 1.176-.084 1.512-.252.595-.295.892-.878.892-1.749 0-.94-.288-1.573-.863-1.896-.323-.182-.808-.274-1.454-.274h-3.471zm6.499-2.296a3.726 3.726 0 0 1 1.408 1.085c.319.393.57.829.757 1.306.186.478.278 1.022.278 1.633 0 .737-.18 1.462-.54 2.175-.361.713-.957 1.216-1.787 1.511.694.288 1.186.697 1.475 1.227.29.53.434 1.34.434 2.428v1.043c0 .71.027 1.19.083 1.443.083.4.276.695.58.885v.39h-3.47a11.418 11.418 0 0 1-.205-.833 7.86 7.86 0 0 1-.132-1.338l-.02-1.443c-.014-.99-.18-1.65-.498-1.98-.319-.33-.916-.495-1.791-.495h-3.071v6.088h-3.073V14.694h7.198c1.028.021 1.82.154 2.374.4zm15.571 4.445c-.238-1.06-.82-1.801-1.745-2.222a4.172 4.172 0 0 0-1.726-.348c-1.21 0-2.206.471-2.985 1.414-.78.943-1.17 2.36-1.17 4.252 0 1.907.423 3.256 1.267 4.047.843.793 1.803 1.188 2.878 1.188 1.055 0 1.92-.312 2.593-.936.674-.625 1.09-1.443 1.246-2.455h-3.481v-2.591h6.268v8.331h-2.083l-.316-1.938c-.606.734-1.15 1.252-1.634 1.552-.83.524-1.85.786-3.062.786-1.994 0-3.628-.712-4.9-2.136-1.327-1.432-1.99-3.39-1.99-5.874 0-2.512.67-4.526 2.01-6.042 1.34-1.515 3.114-2.273 5.319-2.273 1.912 0 3.448.5 4.609 1.5 1.16 1.001 1.825 2.25 1.996 3.745h-3.094zm15.767 6.941c.732-.948 1.098-2.296 1.098-4.044 0-1.742-.366-3.088-1.098-4.04-.731-.951-1.72-1.427-2.965-1.427-1.246 0-2.24.474-2.981 1.422-.742.948-1.113 2.296-1.113 4.045 0 1.748.37 3.096 1.113 4.044.741.948 1.735 1.422 2.98 1.422 1.246 0 2.235-.474 2.966-1.422m1.965 2.36c-1.136 1.207-2.78 1.81-4.93 1.81s-3.794-.603-4.93-1.81c-1.525-1.482-2.288-3.617-2.288-6.404 0-2.844.763-4.979 2.287-6.404 1.137-1.208 2.78-1.812 4.93-1.812 2.151 0 3.795.604 4.931 1.812 1.518 1.425 2.277 3.56 2.277 6.404 0 2.787-.76 4.922-2.277 6.403M77.946 44.14c.026.258.1.457.22.595.223.25.61.375 1.159.375.327 0 .615-.062.863-.187.249-.125.373-.32.373-.581 0-.199-.1-.35-.298-.453-.127-.064-.378-.137-.752-.22l-.699-.156c-.446-.098-.775-.207-.987-.328-.378-.21-.567-.5-.567-.872 0-.438.178-.792.534-1.062.356-.27.834-.406 1.435-.406.786 0 1.352.204 1.7.613.218.259.323.538.317.838h-.817a.835.835 0 0 0-.212-.477c-.204-.203-.556-.305-1.058-.305-.335 0-.588.056-.76.168-.173.112-.259.26-.259.443 0 .2.114.361.34.482.13.072.323.135.578.19l.583.125c.633.135 1.057.266 1.273.392.336.199.505.511.505.937 0 .412-.176.767-.528 1.067-.352.3-.888.449-1.609.449-.775 0-1.325-.156-1.647-.469a1.67 1.67 0 0 1-.519-1.159h.832zm4.408-3.174h.856v.656c.205-.227.39-.393.558-.496a1.81 1.81 0 0 1 .97-.264c.41 0 .74.09.99.272.142.104.27.256.385.458.193-.248.419-.431.678-.55.26-.12.552-.18.875-.18.692 0 1.164.225 1.414.674.134.241.201.567.201.975v3.079h-.898v-3.212c0-.308-.086-.52-.258-.635a1.098 1.098 0 0 0-.627-.173c-.34 0-.632.102-.877.307-.246.204-.368.545-.368 1.023v2.69h-.88v-3.018c0-.314-.041-.543-.125-.687-.131-.215-.377-.323-.735-.323-.327 0-.624.113-.892.34-.268.228-.402.64-.402 1.236v2.452h-.865v-4.624zm9.139 3.924c.182.13.399.194.649.194.304 0 .599-.063.884-.19.48-.209.721-.552.721-1.03v-.624a1.56 1.56 0 0 1-.408.151c-.166.04-.329.07-.489.087l-.523.06c-.313.038-.549.096-.707.177a.676.676 0 0 0-.401.646c0 .224.091.4.274.53zm1.822-2.099c.199-.022.331-.097.399-.224a.628.628 0 0 0 .057-.299c0-.265-.104-.458-.314-.578-.21-.12-.51-.18-.9-.18-.45 0-.77.11-.959.33-.106.121-.174.302-.206.542h-.808c.016-.572.222-.97.617-1.193.395-.223.854-.335 1.376-.335.605 0 1.096.103 1.474.31.374.208.562.53.562.968v2.664c0 .08.018.145.055.194.037.048.114.073.233.073a2.084 2.084 0 0 0 .283-.026v.574a2.6 2.6 0 0 1-.307.065 2.42 2.42 0 0 1-.289.013c-.298 0-.514-.095-.648-.285a1.02 1.02 0 0 1-.15-.427c-.176.207-.429.387-.759.54a2.57 2.57 0 0 1-1.091.228c-.478 0-.868-.13-1.17-.39a1.234 1.234 0 0 1-.455-.977c0-.428.149-.76.447-.996.298-.235.689-.38 1.173-.435l1.38-.156zm2.74-1.825h.822v.799c.067-.156.232-.345.495-.568a1.363 1.363 0 0 1 .99-.33c.039.002.104.008.197.017v.82a1.386 1.386 0 0 0-.283-.021c-.436 0-.771.126-1.005.377a1.24 1.24 0 0 0-.35.87v2.66h-.866v-4.624zm3.427-1.291h.875v1.29h.822v.635h-.822v3.018c0 .161.061.27.183.324.067.032.18.048.336.048a3.135 3.135 0 0 0 .303-.018v.618c-.1.026-.203.044-.31.056a3.314 3.314 0 0 1-.348.017c-.404 0-.678-.093-.822-.278-.145-.186-.217-.427-.217-.724v-3.06h-.697v-.635h.697v-1.291z" fill="#FFF"/><mask id="b" fill="#fff"></mask><path fill="#FFF" mask="url(#b)" d="M104.804 45.59h.865v-6.343h-.865zm5.356-1.09c.211-.39.316-.823.316-1.3 0-.431-.076-.782-.228-1.052-.24-.425-.656-.638-1.245-.638-.523 0-.903.18-1.141.543-.238.362-.356.8-.356 1.311 0 .492.118.901.356 1.229.238.328.615.491 1.131.491.568 0 .956-.194 1.167-.584m.538-3.073c.455.397.682.981.682 1.752 0 .744-.2 1.36-.601 1.846-.401.486-1.023.729-1.867.729-.703 0-1.262-.215-1.675-.645-.414-.43-.62-1.007-.62-1.732 0-.776.217-1.395.653-1.855.436-.46 1.022-.69 1.757-.69.659 0 1.216.198 1.67.595m4.713.558c-.26-.277-.594-.415-.999-.415-.606 0-1.02.257-1.243.769-.118.273-.177.631-.177 1.075 0 .52.117.917.351 1.19.234.271.55.407.945.407.618 0 1.053-.252 1.305-.755.14-.285.21-.618.21-.998 0-.572-.13-.997-.391-1.273m-.106-.833c.163.1.329.247.498.44v-.583h.798v4.205c0 .587-.096 1.05-.288 1.39-.357.628-1.033.942-2.026.942-.553 0-1.018-.112-1.395-.335-.376-.223-.587-.572-.632-1.047h.88a.845.845 0 0 0 .248.479c.195.173.5.259.918.259.66 0 1.092-.21 1.296-.63.121-.248.177-.69.167-1.326-.172.236-.38.412-.622.527-.243.115-.564.173-.963.173a2.177 2.177 0 0 1-1.458-.533c-.416-.356-.625-.944-.625-1.764 0-.774.21-1.379.63-1.813.42-.435.926-.652 1.52-.652.402 0 .754.09 1.054.268m2.613 4.438h.88v-4.603h-.88v4.603zm0-5.462h.88v-.88h-.88v.88zm2.702 4.012c.026.258.1.457.22.595.223.25.609.375 1.158.375.327 0 .615-.062.864-.187.248-.125.373-.32.373-.581 0-.199-.1-.35-.298-.453-.127-.064-.378-.137-.753-.22l-.698-.156c-.446-.098-.775-.207-.987-.328-.378-.21-.567-.5-.567-.872 0-.438.178-.792.534-1.062.355-.27.833-.406 1.434-.406.786 0 1.353.204 1.7.613.218.259.324.538.317.838h-.817a.833.833 0 0 0-.211-.477c-.204-.203-.557-.305-1.059-.305-.334 0-.588.056-.76.168-.172.112-.258.26-.258.443 0 .2.113.361.34.482.13.072.323.135.577.19l.583.125c.634.135 1.058.266 1.274.392.336.199.504.511.504.937 0 .412-.176.767-.528 1.067-.352.3-.888.449-1.608.449-.776 0-1.325-.156-1.648-.469a1.67 1.67 0 0 1-.518-1.159h.832zm4.58-4.465h.876v1.29h.822v.635h-.822v3.018c0 .161.06.27.182.324.068.032.18.048.337.048l.135-.003c.048-.002.104-.007.168-.015v.618c-.1.026-.203.044-.31.056a3.314 3.314 0 0 1-.349.017c-.404 0-.678-.093-.822-.278-.144-.186-.216-.427-.216-.724v-3.06h-.697v-.635h.697v-1.291zm5.782 1.291h.956c-.122.296-.392.973-.812 2.03a93.518 93.518 0 0 1-.789 1.943c-.499 1.18-.851 1.899-1.056 2.158-.205.259-.557.388-1.057.388-.121 0-.215-.004-.28-.013a2.405 2.405 0 0 1-.243-.047v-.709c.15.038.259.061.326.07.067.008.126.013.178.013.16 0 .277-.024.352-.071a.695.695 0 0 0 .19-.175 20.171 20.171 0 0 0 .389-.827l-1.904-4.76h.98l1.38 3.766 1.39-3.766zm5.105.246c.363.253.582.69.656 1.308h-.841a1.33 1.33 0 0 0-.351-.71c-.183-.189-.476-.283-.88-.283-.551 0-.945.242-1.183.724-.153.314-.23.7-.23 1.16 0 .463.109.853.327 1.169.217.316.56.474 1.028.474.36 0 .644-.098.854-.294.21-.196.354-.465.435-.807h.84c-.095.613-.336 1.062-.72 1.345-.385.284-.877.426-1.476.426-.673 0-1.21-.221-1.61-.663-.401-.442-.601-.994-.601-1.656 0-.812.22-1.443.658-1.895.44-.452.999-.678 1.678-.678.58 0 1.052.127 1.416.38m2.036 2.928c.026.258.1.457.22.595.223.25.609.375 1.158.375.327 0 .615-.062.864-.187.248-.125.373-.32.373-.581 0-.199-.1-.35-.298-.453-.127-.064-.378-.137-.753-.22l-.698-.156c-.446-.098-.775-.207-.987-.328-.378-.21-.567-.5-.567-.872 0-.438.178-.792.534-1.062.355-.27.833-.406 1.434-.406.786 0 1.353.204 1.7.613.218.259.324.538.318.838h-.818a.833.833 0 0 0-.211-.477c-.204-.203-.556-.305-1.059-.305-.334 0-.588.056-.76.168-.172.112-.258.26-.258.443 0 .2.113.361.34.482.13.072.323.135.577.19l.583.125c.634.135 1.058.266 1.274.392.336.199.505.511.505.937 0 .412-.177.767-.529 1.067-.352.3-.888.449-1.608.449-.776 0-1.325-.156-1.648-.469a1.67 1.67 0 0 1-.518-1.159h.832zm-60.978-7.6h64.012V35.3H77.145z"/></g></g>
</symbol>
<symbol id="quote" viewBox="0 0 82 94"><path d="M41 0C18.358 0 0 18.445 0 41.196 0 52.965 4.937 63.55 12.81 71.052L11.438 94l19.475-12.919c3.232.822 6.6 1.307 10.087 1.307 22.646 0 41-18.442 41-41.196C82.003 18.445 63.646 0 41 0zm-3.962 38.692c0 4.23-.876 7.57-2.628 10.015-1.752 2.446-4.753 4.613-9.01 6.482l-3.21-6.103c2.618-1.231 4.428-2.463 5.426-3.684 1.002-1.228 1.559-2.675 1.674-4.343h-7.1V27.202h14.848v11.49zm22.771 0c0 4.23-.876 7.57-2.628 10.015-1.752 2.453-4.753 4.613-9.01 6.482l-3.205-6.103c2.617-1.231 4.427-2.463 5.428-3.684 1.002-1.228 1.559-2.675 1.674-4.343h-7.1V27.202h14.848l-.007 11.49z" fill="#FFF"/>
</symbol>
<symbol id="ship" viewBox="0 0 56 43"><g fill-rule="evenodd"><path d="M42.297 26.814H14.16v-3.737c0-1.307 1.126-1.868 2.251-1.868h23.634c1.125 0 2.25.56 2.25 1.868v3.737zM32.082 38.815H7.148c-.818-.408-2.044-2.452-2.044-2.452h26.978a1.227 1.227 0 0 1 0 2.452zM3.06 31.05h26.932c.594 0 1.137.401 1.25.984a1.228 1.228 0 0 1-1.204 1.469H3.878c-.41-.41-.818-2.453-.818-2.453zM0 26.816v15.878h55.427V10v32.694H0V10h55.427H35.37c1.213.007 2.237 1.032 2.237 2.242v7.1h2.439c2.344 0 4.127 1.587 4.127 3.735v3.737h6.564c2.627 0 4.69 2.055 4.69 4.67 0 2.616-2.063 4.671-4.69 4.671-1.969 0-3.47.56-4.407 1.588-1.407 1.588-1.22 3.924-1.22 3.924l.094 1.027h-31.98C1.876 42.694.094 28.03.094 27.842L0 26.816zm0-.002h12.286v-3.737c0-2.148 1.688-3.736 4.126-3.736h2.439v-7.099c0-1.21 1.024-2.235 2.237-2.242H0v16.814zM24.116 10c1.214.007 2.238 1.032 2.238 2.242v7.1h3.751v-7.1c0-1.21 1.024-2.235 2.237-2.242h-8.226zm.439-4.45c-.068-.968-.832-1.486-1.39-1.863-.27-.184-.64-.435-.678-.596-.03-.133.122-.58.923-1.317A1.022 1.022 0 1 0 22.026.27c-1.27 1.168-1.77 2.241-1.53 3.282.218.942.972 1.453 1.523 1.826.143.097.344.233.454.332-.076.103-.263.3-.705.577A1.022 1.022 0 1 0 22.85 8.02c1.194-.745 1.767-1.577 1.704-2.47M34.61 3.687c-.27-.184-.64-.435-.677-.595-.03-.134.122-.582.922-1.318A1.022 1.022 0 1 0 33.472.27c-1.27 1.168-1.77 2.242-1.53 3.282.218.942.972 1.453 1.522 1.827.144.096.344.232.454.331-.076.102-.263.3-.705.577a1.023 1.023 0 0 0 1.083 1.733C35.49 7.274 36.063 6.443 36 5.55c-.068-.968-.832-1.486-1.39-1.863"/><path d="M23.944 23.504a.818.818 0 1 0 .001 1.636.818.818 0 0 0 0-1.636m4.112.02a.817.817 0 1 0 .358 1.595.817.817 0 0 0-.358-1.595m4.293 0a.817.817 0 1 0 .357 1.595.817.817 0 0 0-.358-1.595"/></g>
</symbol>
<symbol id="soc-fb" viewBox="0 0 11 22"><path d="M2.215 4.252v3.023H0v3.696h2.215v10.984h4.549V10.97h3.052s.286-1.772.425-3.71H6.78V4.734c0-.378.496-.886.986-.886h2.479V0h-3.37c-4.773 0-4.66 3.7-4.66 4.252z" fill="#033492"/>
</symbol>
<symbol id="soc-linkedin" viewBox="0 0 23 22"><path d="M22.967 13.485v8.492h-4.922v-7.923c0-1.99-.712-3.348-2.494-3.348-1.36 0-2.17.915-2.526 1.8-.13.317-.163.757-.163 1.2v8.27H7.938s.066-13.418 0-14.808h4.923v2.1c-.01.015-.023.032-.032.047h.032v-.048C13.516 8.26 14.684 6.82 17.3 6.82c3.24 0 5.668 2.117 5.668 6.665zM2.787.03C1.101.03 0 1.135 0 2.588c0 1.421 1.07 2.56 2.721 2.56h.033c1.717 0 2.785-1.139 2.785-2.56C5.507 1.135 4.471.03 2.786.03zM.291 21.977h4.923V7.168H.292v14.809z" fill="#005EB0"/>
</symbol>
<symbol id="soc-twitter" viewBox="0 0 27 22"><path d="M26.328 2.545a10.12 10.12 0 0 1-1.298.474A5.74 5.74 0 0 0 26.199.963a.433.433 0 0 0-.634-.504 10.22 10.22 0 0 1-3.02 1.194A5.792 5.792 0 0 0 18.51.008a5.77 5.77 0 0 0-5.717 6.509A14.757 14.757 0 0 1 2.664 1.144a.433.433 0 0 0-.71.055 5.761 5.761 0 0 0-.78 2.898c0 1.39.496 2.707 1.372 3.737a4.882 4.882 0 0 1-.772-.345.433.433 0 0 0-.643.369v.077a5.784 5.784 0 0 0 2.82 4.957 4.97 4.97 0 0 1-.438-.064.433.433 0 0 0-.493.558 5.762 5.762 0 0 0 4.222 3.863 10.197 10.197 0 0 1-5.45 1.556c-.41 0-.82-.024-1.222-.072a.434.434 0 0 0-.284.795 15.544 15.544 0 0 0 8.405 2.464c5.869 0 9.54-2.768 11.586-5.09 2.552-2.894 4.015-6.726 4.015-10.511 0-.159-.002-.318-.007-.477a11.205 11.205 0 0 0 2.579-2.732.433.433 0 0 0-.536-.637z" fill="#01A7ED"/>
</symbol>
<symbol id="soc-vkontakte" viewBox="0 0 39 22"><path d="M33.31 13.927c1.285 1.254 2.64 2.433 3.791 3.813.51.613.99 1.246 1.36 1.958.521 1.011.048 2.124-.859 2.185l-5.638-.003c-1.455.12-2.615-.465-3.59-1.459-.781-.795-1.504-1.641-2.255-2.463-.307-.336-.63-.653-1.014-.902-.77-.5-1.438-.347-1.878.456-.448.816-.55 1.72-.594 2.63-.06 1.328-.461 1.677-1.795 1.738-2.85.134-5.556-.297-8.069-1.735-2.215-1.267-3.933-3.057-5.428-5.083C4.429 11.118 2.199 6.782.195 2.327-.255 1.323.075.784 1.182.765 3.022.729 4.861.73 6.702.762c.748.01 1.243.44 1.532 1.146.995 2.447 2.213 4.775 3.741 6.933.407.575.822 1.15 1.413 1.554.654.448 1.152.3 1.46-.43.195-.461.28-.959.324-1.453.146-1.702.165-3.401-.09-5.097-.157-1.058-.753-1.744-1.81-1.944-.538-.102-.458-.303-.197-.61.453-.53.88-.861 1.729-.861h6.372c1.004.198 1.227.649 1.364 1.658l.005 7.079c-.01.39.196 1.55.9 1.809.563.184.934-.267 1.272-.624 1.526-1.62 2.615-3.533 3.588-5.515.431-.871.803-1.776 1.162-2.68.267-.671.685-1.001 1.44-.987l6.134.006c.182 0 .366.003.542.033 1.034.176 1.317.62.998 1.63-.503 1.583-1.482 2.902-2.439 4.228-1.023 1.415-2.117 2.782-3.13 4.206-.933 1.3-.859 1.955.299 3.084z" fill="#005EB0"/>
</symbol>
<symbol id="truck" viewBox="0 0 56 45"><path d="M53.351 31.56h-4.274a1.283 1.283 0 0 1 0-2.565h4.274v2.565zm-8.763 9.832a3.634 3.634 0 1 1 0-7.268 3.634 3.634 0 0 1 0 7.268zm-4.734-30.32h8.006l5.098 5.536c.278.185.37.554.37.83v2.86H39.855v-9.226zM29.84 27.285H2.48V24.72h27.36a1.283 1.283 0 0 1 0 2.565zM11.244 41.392a3.634 3.634 0 1 1 0-7.268 3.634 3.634 0 0 1 0 7.268zM2.481 18.736h18.81a1.283 1.283 0 0 1 0 2.565H2.48v-2.565zm0-6.413h10.26a1.283 1.283 0 0 1 0 2.565H2.48v-2.565zm52.387 3.086L46.805 6.55c-.649-.646-1.483-1.015-2.317-1.015h-9.269V3.598C35.22 1.568 33.644 0 31.698 0H3.614C1.576 0 0 1.568 0 3.599v31.924c0 1.753 1.483 3.23 3.244 3.23h1.455c.443 3.152 3.123 5.536 6.423 5.536s5.98-2.384 6.422-5.537h20.521c.443 3.153 3.124 5.537 6.423 5.537 3.3 0 5.98-2.384 6.422-5.537h4.792V17.531c0-.831-.277-1.568-.834-2.122z" fill-rule="evenodd"/>
</symbol></svg>