<?xml version="1.0" encoding="UTF-8"?>
<svg width="56px" height="56px" viewBox="0 0 56 56" version="1.1" xmlns="http://www.w3.org/2000/svg" xmlns:xlink="http://www.w3.org/1999/xlink">
    <!-- Generator: Sketch 42 (36781) - http://www.bohemiancoding.com/sketch -->
    <title>forlift_small_red_ico</title>
    <desc>Created with Sketch.</desc>
    <defs></defs>
    <g id="Welcome" stroke="none" stroke-width="1" fill="none" fill-rule="evenodd">
        <path d="M25.2052336,25.1037009 L26.5466168,23.7628411 C26.9161121,23.3928224 26.9161121,22.8385794 26.5466168,22.4685607 C26.1760748,22.0985421 25.6213084,22.0990654 25.2512897,22.4685607 L23.5864673,24.1328598 C23.4273645,24.2281121 23.301757,24.3568598 23.2159252,24.5028785 L21.5516262,26.1671776 C21.1816075,26.5366729 21.1816075,27.0914393 21.5516262,27.4614579 C21.7363738,27.6462056 21.9216449,27.7388411 22.199028,27.7388411 C22.4764112,27.7388411 22.6616822,27.6462056 22.8464299,27.4614579 L23.7989533,26.5094579 L28.9441495,36.0608598 L22.2916636,36.0608598 L22.2916636,34.1191776 C22.2916636,32.1774953 20.7189533,30.6053084 18.7767477,30.6053084 L18.0367103,30.6053084 C17.2966729,30.6053084 16.649271,29.9573832 16.649271,29.2183925 L16.649271,25.7045234 C16.649271,23.7628411 15.0765607,22.1911776 13.1343551,22.1911776 L11.8693832,22.1911776 L13.8670654,5.54766355 L24.0491215,5.54766355 L24.0491215,5.54818692 C24.4191402,5.54818692 25.4360374,6.37981308 27.6561495,13.6844112 C29.0509159,18.3549159 29.4465794,24.4986916 29.5570093,33.1828785 L25.2052336,25.1037009 Z M25.9075888,53.1225421 C24.4625794,53.1225421 23.2907664,51.9512523 23.2907664,50.5057196 C23.2907664,49.0601869 24.4625794,47.8888972 25.9075888,47.8888972 C27.3525981,47.8888972 28.5244112,49.0601869 28.5244112,50.5057196 C28.5244112,51.9512523 27.3525981,53.1225421 25.9075888,53.1225421 L25.9075888,53.1225421 Z M7.32814953,52.5991776 C4.87095327,52.5991776 2.8795514,50.6072523 2.8795514,48.1505794 C2.8795514,45.6939065 4.87095327,43.7019813 7.32814953,43.7019813 C9.78482243,43.7019813 11.7767477,45.6939065 11.7767477,48.1505794 C11.7767477,50.6072523 9.78482243,52.5991776 7.32814953,52.5991776 L7.32814953,52.5991776 Z M52.7226916,49.9300187 L43.4727477,49.9300187 L43.4727477,2.77383178 C43.4727477,1.20164486 42.2705794,0 40.6983925,0 C39.1256822,0 37.9229907,1.20164486 37.9229907,2.77383178 L37.9229907,33.287028 L35.0973458,33.287028 C34.837757,13.8545047 33.3629159,0 25.8986916,0 L7.39985047,0 C6.84456075,0 6.47454206,0.370018692 6.47454206,0.924785047 L6.47454206,4.6228785 C6.47454206,5.17816822 6.84456075,5.54766355 7.39985047,5.54766355 L8.33824299,5.54766355 L5.5513271,23.6168224 C5.00598131,23.2991402 4.37323364,23.1159626 3.69966355,23.1159626 C1.66482243,23.1154393 0,24.7802617 0,26.8145794 C0,28.0696075 0.634841121,29.1838505 1.5988785,29.8527103 C0.62071028,30.7188785 0,31.981757 0,33.3791402 L0,48.0804486 C0,52.1490841 3.32964486,55.4776822 7.39985047,55.4776822 C10.1239626,55.4776822 12.5141682,53.9855701 13.799028,51.7795888 L21.363215,51.7795888 C21.7819065,53.9117757 23.626243,55.4776822 25.8986916,55.4776822 C28.1711402,55.4776822 30.0154766,53.9117757 30.4341682,51.7795888 L31.3558131,51.7795888 C33.4832897,51.7795888 35.1481121,50.1147664 35.1481121,47.9883364 L35.1481121,46.2314019 L37.9229907,46.2314019 L37.9229907,54.5534206 C37.9229907,55.1076636 38.2930093,55.4776822 38.8477757,55.4776822 L52.7221682,55.4776822 C54.2948785,55.4776822 55.4970467,54.275514 55.4970467,52.7038505 C55.4970467,51.1316636 54.2948785,49.9300187 52.7226916,49.9300187 L52.7226916,49.9300187 Z" id="forlift_small_red_ico" fill="#D0011B"></path>
    </g>
</svg>