<?xml version="1.0" encoding="UTF-8"?>
<svg width="56px" height="54px" viewBox="0 0 56 54" version="1.1" xmlns="http://www.w3.org/2000/svg" xmlns:xlink="http://www.w3.org/1999/xlink">
    <!-- Generator: Sketch 42 (36781) - http://www.bohemiancoding.com/sketch -->
    <title>helictopter__small_red_ico</title>
    <desc>Created with Sketch.</desc>
    <defs>
        <polygon id="path-1" points="0 54.1684404 55.6588624 54.1684404 55.6588624 0 0 0"></polygon>
    </defs>
    <g id="Welcome" stroke="none" stroke-width="1" fill="none" fill-rule="evenodd">
        <g id="helictopter__small_red_ico">
            <mask id="mask-2" fill="white">
                <use xlink:href="#path-1"></use>
            </mask>
            <g id="Clip-2"></g>
            <path d="M38.1058936,42.5480147 C38.2569394,42.5480147 38.4059303,42.5392807 38.5523523,42.5233541 L38.5523523,42.5480147 C41.7309945,42.5480147 44.3131596,44.8342532 44.7395817,47.8582532 L44.3563156,47.8582532 C43.1058202,47.8582532 42.124022,48.8313174 42.124022,50.0710239 L42.124022,51.3985835 L13.5522055,51.3985835 L13.5522055,50.0710239 C13.5522055,48.8313174 12.5698936,47.8582532 11.3204257,47.8582532 L10.9366459,47.8582532 C11.3630679,44.8342532 13.945233,42.5480147 17.1238752,42.5480147 L17.1238752,42.5233541 C17.2702972,42.5392807 17.4192881,42.5480147 17.5703339,42.5480147 L38.1058936,42.5480147 Z M28.7307743,19.5371523 L31.4095266,19.5371523 L32.123655,19.5371523 C35.3382606,19.5371523 38.1952881,21.9266569 38.6417468,25.1124917 L39.3969761,30.1581431 L32.6595083,30.1581431 L35.6059303,27.2368954 C35.9629945,26.8829138 35.9629945,26.3521982 35.6059303,25.9982165 C35.2488661,25.6437211 34.7130128,25.6437211 34.3559486,25.9982165 L30.159545,30.1581431 L28.7307743,30.1581431 L28.7307743,19.5371523 Z M17.0344807,25.1124917 C17.5703339,21.8382899 20.2485725,19.5371523 23.5520587,19.5371523 L24.2667009,19.5371523 L26.9449394,19.5371523 L26.9449394,30.1581431 L21.0520954,30.1581431 L23.9990312,27.2368954 C24.3555817,26.8829138 24.3555817,26.3521982 23.9990312,25.9982165 C23.6414532,25.6437211 23.1061138,25.6437211 22.7485358,25.9982165 L18.5521321,30.1581431 L16.2792514,30.1581431 L17.0344807,25.1124917 Z M54.2683156,11.6894459 L34.6518752,7.11953761 L54.2683156,2.54962936 C55.2357284,2.32408807 55.8368294,1.35770275 55.6118018,0.390289908 C55.3862606,-0.576609174 54.4209028,-1.17771009 53.4529761,-0.95319633 L26.7271046,5.2730789 L2.20681101,-0.439434862 C1.2388844,-0.665489908 0.273012844,-0.0628477064 0.0469577982,0.904051376 C-0.178069725,1.87146422 0.423544954,2.83784954 1.3909578,3.06339083 L18.8018202,7.11953761 L1.3909578,11.1756844 C0.423544954,11.4012257 -0.178069725,12.367611 0.0469577982,13.3350239 C0.240645872,14.1647486 0.979948624,14.7257761 1.79734312,14.7257761 C1.93194862,14.7257761 2.06912294,14.7098495 2.20681101,14.6785101 L26.7271046,8.96599633 L26.9449394,9.01634495 L26.9449394,12.4570055 L26.4096,12.4570055 C25.2490128,12.4570055 24.2667009,13.4305835 24.2667009,14.5808954 L24.2667009,17.767244 L23.5520587,17.767244 C19.355655,17.767244 15.8738936,20.7758312 15.2486459,24.8473908 L13.5522055,36.2647119 L13.5522055,38.5653358 C13.5522055,39.5764183 13.9262239,40.4945101 14.5437651,41.1942532 C11.6302239,42.1611523 9.48115963,44.7253358 9.13745321,47.8582532 L8.64115963,47.8582532 C7.39117798,47.8582532 6.40937982,48.8313174 6.40937982,50.0710239 L6.40937982,51.3985835 L1.94530642,51.3985835 C1.40945321,51.3985835 1.05238899,51.7525651 1.05238899,52.2832807 C1.05238899,52.8139963 1.40945321,53.1684917 1.94530642,53.1684917 L6.40937982,53.1684917 L13.5522055,53.1684917 L42.124022,53.1684917 L49.2668477,53.1684917 L53.7314349,53.1684917 C54.2667743,53.1684917 54.6238385,52.8139963 54.6238385,52.2832807 C54.6238385,51.7525651 54.2667743,51.3985835 53.7309211,51.3985835 L49.2668477,51.3985835 L49.2668477,50.0710239 C49.2668477,48.8313174 48.2845358,47.8582532 47.0345541,47.8582532 L46.5382606,47.8582532 C46.1945541,44.7253358 44.0460037,42.1611523 41.1319486,41.1942532 C41.7500037,40.4945101 42.1235083,39.5764183 42.1235083,38.5653358 L42.1235083,36.3525651 L40.4270679,24.8473908 C39.8023339,20.776345 36.2306642,17.767244 32.123655,17.767244 L31.4095266,17.767244 L31.4095266,14.5808954 C31.4095266,13.4305835 30.4272147,12.4570055 29.2666275,12.4570055 L28.7307743,12.4570055 L28.7307743,9.43249174 L53.4529761,15.1922716 C53.5896367,15.2241248 53.7273248,15.2395376 53.8619303,15.2395376 C54.678811,15.2395376 55.4186275,14.6785101 55.6118018,13.8487853 C55.8368294,12.8813725 55.2357284,11.9149872 54.2683156,11.6894459 L54.2683156,11.6894459 Z" id="Fill-1" fill="#D0011B" mask="url(#mask-2)"></path>
        </g>
    </g>
</svg>