<?xml version="1.0" encoding="UTF-8"?>
<svg width="230px" height="62px" viewBox="0 0 230 62" version="1.1" xmlns="http://www.w3.org/2000/svg" xmlns:xlink="http://www.w3.org/1999/xlink">
    <!-- Generator: Sketch 42 (36781) - http://www.bohemiancoding.com/sketch -->
    <title>logo_white</title>
    <desc>Created with Sketch.</desc>
    <defs>
        <polygon id="path-1" points="0 61.2783751 229.998763 61.2783751 229.998763 0.0457526882 0 0.0457526882"></polygon>
    </defs>
    <g id="Welcome" stroke="none" stroke-width="1" fill="none" fill-rule="evenodd">
        <g id="logo_white">
            <path d="M34.348494,0.137464158 L4.12186382e-05,15.2508274 L4.12186382e-05,15.2792682 L0.137436679,46.7143877 L34.6235597,61.3700866 L69.1098202,46.3023387 L69.1098202,15.2509648 L34.3490436,0.137464158 L34.348494,0.137464158 Z M34.6294677,39.5265442 L34.6294677,30.9069026 L34.6294677,30.8647222 L36.2258656,30.2180018 L65.1783865,17.724083 L65.1783865,26.3435872 L44.6435358,35.2051822 L44.6435358,44.0300926 L65.2627473,35.1322252 L65.2627473,43.7517294 L34.7141033,56.9346864 L34.7141033,57.0190472 L4.16518459,43.8362276 L4.16518459,35.2167234 L4.16518459,18.1043937 L13.0384582,22.5408931 L13.0384582,39.0457975 L34.6294677,48.3629958 L34.6294677,39.5265442 Z" id="Fill-1" fill="#FFFFFF"></path>
            <polygon id="Fill-2" fill="#DC1325" points="35.3164725 32.6508769 35.3164725 32.6930573 36.9128704 32.0041565"></polygon>
            <polygon id="Fill-3" fill="#FFFFFF" points="77.6381625 15.1977652 80.7823202 15.1977652 80.7823202 27.9319886 88.2955161 27.9319886 88.2955161 30.72304 77.6381625 30.72304"></polygon>
            <g id="Group-43" transform="translate(0.000000, 0.091643)">
                <path d="M100.029995,26.8922073 C100.761489,25.9444534 101.12751,24.5961918 101.12751,22.8476971 C101.12751,21.1063471 100.761489,19.760009 100.029995,18.808408 C99.2985018,17.8569444 98.3099415,17.381144 97.064589,17.381144 C95.8192366,17.381144 94.8253178,17.8552957 94.0837945,18.8030496 C93.341859,19.7510783 92.9710287,21.0993399 92.9710287,22.8476971 C92.9710287,24.5961918 93.341859,25.9444534 94.0837945,26.8922073 C94.8253178,27.840236 95.8192366,28.3142503 97.064589,28.3142503 C98.3099415,28.3142503 99.2985018,27.840236 100.029995,26.8922073 Z M101.995162,29.2515621 C100.85849,30.4594056 99.2149654,31.0631213 97.064589,31.0631213 C94.9139379,31.0631213 93.2704134,30.4594056 92.1338781,29.2515621 C90.6094755,27.7701643 89.8473429,25.635451 89.8473429,22.8476971 C89.8473429,20.0038859 90.6094755,17.86931 92.1338781,16.4436947 C93.2704134,15.236126 94.9139379,14.6321356 97.064589,14.6321356 C99.2149654,14.6321356 100.85849,15.236126 101.995162,16.4436947 C103.512695,17.86931 104.27153,20.0038859 104.27153,22.8476971 C104.27153,25.635451 103.512695,27.7701643 101.995162,29.2515621 Z" id="Fill-4" fill="#FFFFFF"></path>
                <path d="M116.787144,19.9511947 C116.5489,18.8910514 115.966893,18.1502151 115.041535,17.7288232 C114.524103,17.497037 113.949241,17.3812127 113.31626,17.3812127 C112.104844,17.3812127 111.109551,17.8526165 110.330382,18.7952867 C109.551075,19.737957 109.161421,21.1551912 109.161421,23.047264 C109.161421,24.9537634 109.583225,26.3028495 110.427246,27.0946595 C111.271128,27.8867443 112.230698,28.2825806 113.306093,28.2825806 C114.360878,28.2825806 115.225232,27.9704182 115.898882,27.3458184 C116.57267,26.7212186 116.987879,25.9030287 117.144372,24.8911111 L113.663321,24.8911111 L113.663321,22.2999701 L119.931164,22.2999701 L119.931164,30.631356 L117.848799,30.631356 L117.532377,28.6933931 C116.926463,29.4273596 116.38224,29.9447909 115.898882,30.2452748 C115.068602,30.7694385 114.047891,31.031589 112.836475,31.031589 C110.842317,31.031589 109.20896,30.3193309 107.936403,28.8949522 C106.609438,27.4632915 105.945818,25.505681 105.945818,23.0212963 C105.945818,20.5092951 106.61617,18.4952151 107.956738,16.9794683 C109.297443,15.4637216 111.070531,14.7058483 113.275453,14.7058483 C115.187723,14.7058483 116.724079,15.2062425 117.884384,16.2067563 C119.044826,17.2074074 119.709958,18.4555078 119.880191,19.9511947 L116.787144,19.9511947 Z" id="Fill-6" fill="#FFFFFF"></path>
                <path d="M132.553809,26.8922073 C133.285302,25.9444534 133.651186,24.5961918 133.651186,22.8476971 C133.651186,21.1063471 133.285302,19.760009 132.553809,18.808408 C131.822178,17.8569444 130.833618,17.381144 129.588265,17.381144 C128.342913,17.381144 127.349131,17.8552957 126.607471,18.8030496 C125.865535,19.7510783 125.494705,21.0993399 125.494705,22.8476971 C125.494705,24.5961918 125.865535,25.9444534 126.607471,26.8922073 C127.349131,27.840236 128.342913,28.3142503 129.588265,28.3142503 C130.833618,28.3142503 131.822178,27.840236 132.553809,26.8922073 M134.518976,29.2515621 C133.382303,30.4594056 131.738642,31.0631213 129.588265,31.0631213 C127.437751,31.0631213 125.794227,30.4594056 124.657692,29.2515621 C123.133152,27.7701643 122.371019,25.635451 122.371019,22.8476971 C122.371019,20.0038859 123.133152,17.86931 124.657692,16.4436947 C125.794227,15.236126 127.437751,14.6321356 129.588265,14.6321356 C131.738642,14.6321356 133.382303,15.236126 134.518976,16.4436947 C136.036509,17.86931 136.795344,20.0038859 136.795344,22.8476971 C136.795344,25.635451 136.036509,27.7701643 134.518976,29.2515621" id="Fill-8" fill="#FFFFFF"></path>
                <path d="M141.460634,25.8389337 C141.55791,26.5483065 141.749027,27.0783781 142.033986,27.4294235 C142.554989,28.0684498 143.447922,28.3880317 144.712648,28.3880317 C145.469971,28.3880317 146.084953,28.3036708 146.557456,28.135224 C147.453824,27.8122073 147.902146,27.2117891 147.902146,26.3341069 C147.902146,25.8214845 147.68245,25.4246864 147.243472,25.1438501 C146.804219,24.8698835 146.107761,24.6277927 145.154374,24.4170281 L143.525276,24.0485335 C141.924207,23.6834737 140.824219,23.2866756 140.225449,22.8582766 C139.211333,22.1420341 138.704344,21.0219863 138.704344,19.498408 C138.704344,18.1079659 139.200342,16.9530197 140.192474,16.0330197 C141.18447,15.1132945 142.641686,14.6532945 144.563848,14.6532945 C146.168902,14.6532945 147.538048,15.0869146 148.671423,15.9540173 C149.804798,16.8212575 150.399033,18.0799373 150.454129,19.7299194 L147.432528,19.7299194 C147.376746,18.7961798 146.971978,18.1326971 146.218502,17.7393339 C145.716184,17.4795191 145.091859,17.3496804 144.345252,17.3496804 C143.514834,17.3496804 142.852176,17.5181272 142.356728,17.8552957 C141.86128,18.1923268 141.613693,18.6627688 141.613693,19.2664845 C141.613693,19.8212873 141.857982,20.2355346 142.346286,20.5095012 C142.660234,20.6920998 143.326465,20.9061619 144.345389,21.1519624 L146.98613,21.7944235 C148.143412,22.0752599 149.01079,22.4510364 149.588538,22.9214785 C150.485455,23.6518728 150.933914,24.7084438 150.933914,26.0917413 C150.933914,27.5102121 150.402468,28.6881033 149.339714,29.6255526 C148.276823,30.5630018 146.775778,31.0316577 144.835891,31.0316577 C142.854786,31.0316577 141.296859,30.570009 140.161835,29.6465741 C139.026674,28.7232766 138.459368,27.4541547 138.459368,25.8389337 L141.460634,25.8389337 Z" id="Fill-10" fill="#FFFFFF"></path>
                <path d="M156.0169,16.3159857 C157.228866,15.0380705 158.77058,14.3990442 160.642318,14.3990442 C163.1469,14.3990442 164.978244,15.2557049 166.136351,16.9690263 C166.776064,17.9312067 167.119278,18.8964098 167.166404,19.86546 L164.022247,19.86546 C163.822336,19.1213262 163.565407,18.5593787 163.252283,18.1801673 C162.692259,17.5061051 161.862115,17.1690741 160.762127,17.1690741 C159.641942,17.1690741 158.758489,17.6448746 158.111769,18.5963381 C157.465186,19.5478017 157.141894,20.8942772 157.141894,22.6356272 C157.141894,24.3772521 157.483047,25.6814098 158.16549,26.5486499 C158.847796,27.4157527 159.714899,27.8493728 160.766524,27.8493728 C161.845078,27.8493728 162.667253,27.4771685 163.233185,26.7327599 C163.546034,26.3326643 163.805574,25.7322461 164.011942,24.9317802 L167.135903,24.9317802 C166.86647,26.62408 166.177981,28.0005078 165.070711,29.0606511 C163.962892,30.1210693 162.544146,30.6510036 160.813788,30.6510036 C158.672892,30.6510036 156.989523,29.9347611 155.76423,28.502276 C154.538937,27.0630585 153.926291,25.0896476 153.926291,22.5830048 C153.926291,19.8726045 154.623161,17.783644 156.0169,16.3159857" id="Fill-12" fill="#FFFFFF"></path>
                <path d="M173.773257,24.3525346 L177.627063,24.3525346 L175.726197,18.2435203 L173.773257,24.3525346 Z M173.980587,14.6939086 L177.538168,14.6939086 L182.861692,30.2191834 L179.452224,30.2191834 L178.45913,27.0277616 L172.917971,27.0277616 L171.898084,30.2191834 L168.609112,30.2191834 L173.980587,14.6939086 Z" id="Fill-14" fill="#FFFFFF"></path>
                <path d="M187.919892,17.390322 L187.919892,21.561236 L191.303805,21.561236 C191.975944,21.561236 192.47991,21.4770125 192.816254,21.3085657 C193.410765,21.0135777 193.708088,20.4308835 193.708088,19.5600711 C193.708088,18.619187 193.420245,17.9873053 192.845245,17.6641511 C192.522091,17.48169 192.037222,17.390322 191.391051,17.390322 L187.919892,17.390322 Z M194.41856,15.0941691 C194.972676,15.3399695 195.442294,15.7015944 195.827139,16.179181 C196.145621,16.5724068 196.397879,17.0076756 196.583638,17.4851249 C196.769534,17.9627115 196.862413,18.5067975 196.862413,19.1176577 C196.862413,19.8549217 196.682013,20.580095 196.32135,21.2926278 C195.960687,22.0055729 195.365215,22.5092646 194.534934,22.8041153 C195.229194,23.0920962 195.720795,23.5011225 196.010149,24.0311941 C196.299092,24.5614032 196.444044,25.3706625 196.444044,26.4591093 L196.444044,27.5018035 C196.444044,28.2111762 196.471386,28.6920603 196.527031,28.944868 C196.609881,29.3449636 196.803333,29.6398142 197.107389,29.8295573 L197.107389,30.2192109 L193.636505,30.2192109 C193.54129,29.8751726 193.47328,29.5977712 193.432473,29.3870066 C193.350723,28.9517378 193.306481,28.5060269 193.299749,28.0494618 L193.279415,26.6063973 C193.266499,25.616463 193.100663,24.9564152 192.782043,24.6262539 C192.463286,24.2963674 191.866165,24.1313554 190.990818,24.1313554 L187.919892,24.1313554 L187.919892,30.2192109 L184.847318,30.2192109 L184.847318,14.6939361 L192.044504,14.6939361 C193.073047,14.7149576 193.864444,14.8483686 194.41856,15.0941691 L194.41856,15.0941691 Z" id="Fill-16" fill="#FFFFFF"></path>
                <path d="M209.990371,19.5390084 C209.752127,18.478865 209.17012,17.7380287 208.244762,17.3166368 C207.727468,17.0848507 207.152468,16.9690263 206.519487,16.9690263 C205.308071,16.9690263 204.312778,17.4404301 203.533609,18.3831004 C202.754302,19.3257706 202.364786,20.7430048 202.364786,22.6350777 C202.364786,24.5415771 202.78659,25.8906631 203.63061,26.6824731 C204.474493,27.4745579 205.433925,27.8703943 206.50932,27.8703943 C207.564242,27.8703943 208.428597,27.5582318 209.102247,26.933632 C209.775897,26.3090323 210.191106,25.4908423 210.347737,24.4789247 L206.866685,24.4789247 L206.866685,21.8877838 L213.134529,21.8877838 L213.134529,30.2191697 L211.052163,30.2191697 L210.735604,28.2812067 C210.129827,29.0151732 209.585467,29.5326045 209.102247,29.8330884 C208.271829,30.3572521 207.251118,30.6194026 206.039702,30.6194026 C204.045544,30.6194026 202.412324,29.9071446 201.139768,28.4827658 C199.812665,27.0511051 199.149182,25.0934946 199.149182,22.6091099 C199.149182,20.0971087 199.819397,18.0830287 201.160102,16.567282 C202.500807,15.0515352 204.273758,14.2936619 206.47868,14.2936619 C208.39095,14.2936619 209.927444,14.7940562 211.087749,15.7945699 C212.248053,16.795221 212.913322,18.0433214 213.083555,19.5390084 L209.990371,19.5390084 Z" id="Fill-18" fill="#FFFFFF"></path>
                <path d="M225.757173,26.4800209 C226.488667,25.532267 226.854551,24.1840054 226.854551,22.4355108 C226.854551,20.6941607 226.488667,19.3478226 225.757173,18.3962216 C225.025542,17.4447581 224.036982,16.9689576 222.79163,16.9689576 C221.546277,16.9689576 220.552496,17.4431093 219.810835,18.3908632 C219.0689,19.3388919 218.698069,20.6871535 218.698069,22.4355108 C218.698069,24.1840054 219.0689,25.532267 219.810835,26.4800209 C220.552496,27.4280496 221.546277,27.9020639 222.79163,27.9020639 C224.036982,27.9020639 225.025542,27.4280496 225.757173,26.4800209 M227.722341,28.8393757 C226.585668,30.0472192 224.942006,30.6509349 222.79163,30.6509349 C220.641116,30.6509349 218.997591,30.0472192 217.861056,28.8393757 C216.336516,27.3579779 215.574384,25.2232646 215.574384,22.4355108 C215.574384,19.5916995 216.336516,17.4571237 217.861056,16.0315084 C218.997591,14.8239397 220.641116,14.2199492 222.79163,14.2199492 C224.942006,14.2199492 226.585668,14.8239397 227.722341,16.0315084 C229.239873,17.4571237 229.998708,19.5916995 229.998708,22.4355108 C229.998708,25.2232646 229.239873,27.3579779 227.722341,28.8393757" id="Fill-20" fill="#FFFFFF"></path>
                <path d="M77.9460932,44.1391022 C77.9721983,44.3980926 78.0458423,44.5967664 78.1666129,44.7349863 C78.3891935,44.9853208 78.7752748,45.1104881 79.3247192,45.1104881 C79.6518578,45.1104881 79.9395639,45.0478357 80.1881123,44.9226685 C80.4366607,44.7975012 80.561141,44.603911 80.561141,44.3420352 C80.561141,44.1434988 80.4618041,43.9922264 80.2631302,43.8887676 C80.135902,43.8254283 79.8852927,43.7521965 79.5107527,43.6683853 L78.8122342,43.512991 C78.3661111,43.4151655 78.037049,43.3057987 77.8253226,43.1850281 C77.4473477,42.974813 77.2584289,42.6842216 77.2584289,42.3128417 C77.2584289,41.8753746 77.436356,41.5213065 77.7920729,41.2509122 C78.1476523,40.9802431 78.6256511,40.8449086 79.2267563,40.8449086 C80.0127957,40.8449086 80.5794146,41.0494904 80.9268877,41.4579671 C81.1445221,41.7169576 81.2501792,41.9961452 81.2437216,42.2955299 L80.4266308,42.2955299 C80.4101434,42.1210376 80.3395221,41.9622085 80.2150418,41.818905 C80.0114217,41.6158345 79.658865,41.5141619 79.1569594,41.5141619 C78.822264,41.5141619 78.5689068,41.5700818 78.3966129,41.6819217 C78.224319,41.7937616 78.1383094,41.9414618 78.1383094,42.1250221 C78.1383094,42.3257569 78.2515233,42.4863722 78.4778136,42.606868 C78.6083393,42.6785884 78.8011051,42.7416529 79.0558363,42.7964737 L79.6385305,42.9215036 C80.2720609,43.0569755 80.6964755,43.187776 80.9121864,43.3144546 C81.2483931,43.512991 81.4168399,43.8254283 81.4168399,44.2513542 C81.4168399,44.662991 81.2406989,45.0184331 80.8888292,45.3176804 C80.5366846,45.6170651 80.0005675,45.7668262 79.2803405,45.7668262 C78.5047431,45.7668262 77.9554361,45.6106075 77.6328315,45.298445 C77.3098148,44.9860078 77.1371087,44.5996517 77.1143011,44.1391022 L77.9460932,44.1391022 Z" id="Fill-22" fill="#FFFFFF"></path>
                <path d="M82.3542891,40.9657204 L83.2099881,40.9657204 L83.2099881,41.6219211 C83.4149821,41.3948065 83.6008781,41.2292449 83.7676762,41.1255114 C84.0526344,40.9500573 84.3766129,40.8622616 84.7386499,40.8622616 C85.1489128,40.8622616 85.4789367,40.9528053 85.728859,41.1343047 C85.8699642,41.2377634 85.9981541,41.3904098 86.1134289,41.5919689 C86.3056452,41.3442449 86.5316607,41.1609594 86.7912007,41.0414253 C87.0508781,40.9220287 87.3425687,40.8622616 87.6662724,40.8622616 C88.3584707,40.8622616 88.8295998,41.0867658 89.0795221,41.5356368 C89.2141697,41.7774528 89.281356,42.1028053 89.281356,42.5114194 L89.281356,45.5896272 L88.3825149,45.5896272 L88.3825149,42.3775962 C88.3825149,42.069693 88.2967802,41.8581039 88.1253106,41.7429665 C87.9538411,41.6276918 87.7447252,41.5702605 87.4981004,41.5702605 C87.158184,41.5702605 86.8656691,41.6724827 86.620693,41.8767897 C86.3754421,42.0812342 86.2528853,42.4222497 86.2528853,42.8998363 L86.2528853,45.5896272 L85.3731422,45.5896272 L85.3731422,42.5718734 C85.3731422,42.2581995 85.3315114,42.0292987 85.2481123,41.8853082 C85.1167622,41.6695974 84.871374,41.5616045 84.5126344,41.5616045 C84.185908,41.5616045 83.8885842,41.675368 83.6209379,41.9024827 C83.3532915,42.1300096 83.2194683,42.5416464 83.2194683,43.1375305 L83.2194683,45.5896272 L82.3542891,45.5896272 L82.3542891,40.9657204 Z" id="Fill-24" fill="#FFFFFF"></path>
                <path d="M91.4928321,44.8907515 C91.6754307,45.0200406 91.8916912,45.0844791 92.1418883,45.0844791 C92.4459444,45.0844791 92.7409325,45.0214146 93.0261655,44.8948734 C93.5069122,44.6850705 93.7472168,44.3418566 93.7472168,43.8646822 L93.7472168,43.2396703 C93.6416971,43.300399 93.5059504,43.3509606 93.3394271,43.3913548 C93.1731786,43.4317491 93.0099528,43.4606022 92.8501619,43.4777766 L92.3272348,43.5380932 C92.0138357,43.5756022 91.7780651,43.6344074 91.6200603,43.7147838 C91.352414,43.8498435 91.2187282,44.0651422 91.2187282,44.361092 C91.2187282,44.5847718 91.3100962,44.7615998 91.4928321,44.8907515 L91.4928321,44.8907515 Z M93.3148333,42.7913489 C93.5135072,42.7685412 93.6463686,42.6937981 93.7136924,42.5672569 C93.7520257,42.4978722 93.7713984,42.3983978 93.7713984,42.268147 C93.7713984,42.0025615 93.6665657,41.8095209 93.457175,41.6895747 C93.247647,41.5697658 92.9478501,41.5098614 92.557647,41.5098614 C92.1065777,41.5098614 91.786721,41.6197778 91.5980771,41.8394731 C91.49242,41.9612055 91.4238596,42.1418805 91.3918465,42.381773 L90.584236,42.381773 C90.6003112,41.8103453 90.8058548,41.4128602 91.2011416,41.1891804 C91.5964283,40.9655006 92.0550544,40.8535233 92.5768823,40.8535233 C93.1818345,40.8535233 93.6730233,40.9572569 94.0508608,41.1644492 C94.4254008,41.3716416 94.6125335,41.6939713 94.6125335,42.1315759 L94.6125335,44.7956738 C94.6125335,44.8761876 94.6310818,44.9409008 94.6679038,44.9898136 C94.7047258,45.0384516 94.7823542,45.062908 94.9012013,45.062908 C94.9395346,45.062908 94.9826768,45.0607097 95.0307652,45.0564504 C95.078991,45.0523286 95.1301022,45.045871 95.1846481,45.0370777 L95.1846481,45.6112533 C95.050138,45.6458769 94.9475036,45.667448 94.8771571,45.6759665 C94.8065358,45.6846225 94.710359,45.6891565 94.5884892,45.6891565 C94.2904785,45.6891565 94.074218,45.5940789 93.9395705,45.4040609 C93.8690866,45.3033501 93.8194869,45.1610084 93.7907712,44.9767611 C93.6143554,45.1840908 93.3611356,45.3638041 93.0309743,45.516313 C92.700813,45.668822 92.3372646,45.7452139 91.9397796,45.7452139 C91.4620556,45.7452139 91.0721272,45.614963 90.7691703,45.3548734 C90.4663507,45.0947838 90.3149409,44.7692939 90.3149409,44.3782664 C90.3149409,43.9498674 90.4640149,43.6177826 90.7620257,43.3821493 C91.0601738,43.1465161 91.4509265,43.0011517 91.9351081,42.9467431 L93.3148333,42.7913489 Z" id="Fill-26" fill="#FFFFFF"></path>
                <path d="M96.0547873,40.9657204 L96.8768244,40.9657204 L96.8768244,41.7645376 C96.9442855,41.6091434 97.1090227,41.4199498 97.3718602,41.1968196 C97.6346977,40.9738268 97.9375173,40.8622616 98.2804564,40.8622616 C98.2963943,40.8622616 98.323736,40.8636356 98.3623441,40.8665209 C98.4006774,40.8694062 98.4662151,40.8751768 98.5593692,40.8838327 L98.5593692,41.7040836 C98.5079833,41.6954277 98.4608566,41.6896571 98.4174397,41.6869092 C98.3742975,41.6841613 98.3267587,41.6825125 98.2756476,41.6825125 C97.8399665,41.6825125 97.5049964,41.8085042 97.2711493,42.0603501 C97.0368901,42.3121959 96.9202413,42.6021004 96.9202413,42.9302007 L96.9202413,45.5896272 L96.0547873,45.5896272 L96.0547873,40.9657204 Z" id="Fill-28" fill="#FFFFFF"></path>
                <path d="M99.4821583,39.674945 L100.35723,39.674945 L100.35723,40.9657754 L101.179267,40.9657754 L101.179267,41.600405 L100.35723,41.600405 L100.35723,44.6182963 C100.35723,44.7794612 100.418096,44.887454 100.539829,44.9421374 C100.607152,44.9737384 100.719404,44.9895388 100.87631,44.9895388 C100.917941,44.9895388 100.962732,44.9887145 101.01082,44.9866535 C101.059046,44.98473 101.115103,44.9799211 101.179267,44.9723644 L101.179267,45.5896822 C101.07993,45.6156499 100.976334,45.6343357 100.869303,45.6458769 C100.761722,45.6572808 100.645623,45.6630514 100.520731,45.6630514 C100.116925,45.6630514 99.8429588,45.5703094 99.6986935,45.3846882 C99.5542909,45.1989295 99.4821583,44.9579379 99.4821583,44.6614385 L99.4821583,41.600405 L98.7851511,41.600405 L98.7851511,40.9657754 L99.4821583,40.9657754 L99.4821583,39.674945 Z" id="Fill-30" fill="#FFFFFF"></path>
                <mask id="mask-2" fill="white">
                    <use xlink:href="#path-1"></use>
                </mask>
                <g id="Clip-33"></g>
                <polygon id="Fill-32" fill="#FFFFFF" mask="url(#mask-2)" points="104.80402 45.5895998 105.6692 45.5895998 105.6692 39.2474253 104.80402 39.2474253"></polygon>
                <path d="M110.160231,44.5004247 C110.370996,44.1109086 110.476378,43.6772885 110.476378,43.2001141 C110.476378,42.7689671 110.400261,42.4183339 110.248439,42.1479397 C110.007585,41.7225633 109.592238,41.5097378 109.002812,41.5097378 C108.480022,41.5097378 108.099711,41.690825 107.86188,42.0531368 C107.624323,42.4154486 107.505614,42.8523662 107.505614,43.3640269 C107.505614,43.8557652 107.624323,44.2652037 107.86188,44.5930293 C108.099711,44.9207174 108.476725,45.0844928 108.993332,45.0844928 C109.5605,45.0844928 109.949467,44.8898035 110.160231,44.5004247 M110.697585,41.4274379 C111.152639,41.8240986 111.380165,42.4080293 111.380165,43.178543 C111.380165,43.9233638 111.179705,44.5388955 110.778648,45.0247258 C110.377728,45.5108309 109.755602,45.7536087 108.912268,45.7536087 C108.208941,45.7536087 107.650291,45.5388596 107.236731,45.1089492 C106.823033,44.6790388 106.616253,44.1017031 106.616253,43.3770795 C106.616253,42.6005203 106.834162,41.9822407 107.270118,41.5221033 C107.706211,41.0621033 108.291653,40.8319659 109.026719,40.8319659 C109.68553,40.8319659 110.242531,41.030365 110.697585,41.4274379" id="Fill-34" fill="#FFFFFF" mask="url(#mask-2)"></path>
                <path d="M115.410648,41.9846452 C115.149321,41.7084803 114.816,41.5702605 114.411096,41.5702605 C113.805044,41.5702605 113.390797,41.826503 113.167667,42.3387133 C113.049507,42.6121302 112.990701,42.9704576 112.990701,43.4138327 C112.990701,43.9346989 113.107625,44.3310848 113.342022,44.6032652 C113.576418,44.8751708 113.891329,45.011055 114.286753,45.011055 C114.90517,45.011055 115.340301,44.7593465 115.592422,44.2556547 C115.732703,43.9708339 115.802774,43.6381995 115.802774,43.2584385 C115.802774,42.6856368 115.671974,42.2610848 115.410648,41.9846452 M115.304853,41.1516165 C115.467667,41.25219 115.633503,41.3989283 115.802774,41.5919689 L115.802774,41.0088626 L116.600904,41.0088626 L116.600904,45.2141254 C116.600904,45.8012162 116.505002,46.2646511 116.313336,46.6042927 C115.955558,47.2316404 115.280122,47.545589 114.286753,47.545589 C113.734011,47.545589 113.269477,47.4338865 112.892464,47.2108937 C112.515588,46.9877634 112.304823,46.638779 112.259895,46.1639403 L113.139638,46.1639403 C113.180857,46.3711326 113.263843,46.5309235 113.388186,46.6430382 C113.582738,46.8158817 113.888855,46.9020287 114.306263,46.9020287 C114.966173,46.9020287 115.39787,46.6920884 115.601902,46.2717957 C115.723085,46.0242091 115.778867,45.5826201 115.769112,44.9464791 C115.596818,45.1823871 115.389351,45.3581159 115.146573,45.4731159 C114.903933,45.5883907 114.583252,45.645822 114.184256,45.645822 C113.628766,45.645822 113.142661,45.4681697 112.726078,45.1125902 C112.309632,44.7572855 112.101203,44.169233 112.101203,43.3489821 C112.101203,42.5747587 112.311143,41.970356 112.730886,41.5356368 C113.150767,41.101055 113.657481,40.8838327 114.251305,40.8838327 C114.653461,40.8838327 115.004781,40.9731398 115.304853,41.1516165" id="Fill-35" fill="#FFFFFF" mask="url(#mask-2)"></path>
                <path d="M117.918005,45.5895998 L118.797611,45.5895998 L118.797611,40.987264 L117.918005,40.987264 L117.918005,45.5895998 Z M117.918005,40.1281302 L118.797611,40.1281302 L118.797611,39.2474253 L117.918005,39.2474253 L117.918005,40.1281302 Z" id="Fill-36" fill="#FFFFFF" mask="url(#mask-2)"></path>
                <path d="M120.619598,44.1391022 C120.645703,44.3980926 120.719347,44.5967664 120.840118,44.7349863 C121.062836,44.9853208 121.44878,45.1104881 121.998361,45.1104881 C122.325363,45.1104881 122.613206,45.0478357 122.861617,44.9226685 C123.11044,44.7975012 123.234646,44.603911 123.234646,44.3420352 C123.234646,44.1434988 123.135309,43.9922264 122.936635,43.8887676 C122.809544,43.8254283 122.558797,43.7521965 122.184395,43.6683853 L121.485739,43.512991 C121.039616,43.4151655 120.710554,43.3057987 120.498965,43.1850281 C120.12099,42.974813 119.932071,42.6842216 119.932071,42.3128417 C119.932071,41.8753746 120.109998,41.5213065 120.465578,41.2509122 C120.821295,40.9802431 121.299431,40.8449086 121.900398,40.8449086 C122.686438,40.8449086 123.253057,41.0494904 123.60053,41.4579671 C123.818027,41.7169576 123.923684,41.9961452 123.917364,42.2955299 L123.100136,42.2955299 C123.083786,42.1210376 123.013164,41.9622085 122.888547,41.818905 C122.684927,41.6158345 122.33237,41.5141619 121.830464,41.5141619 C121.495769,41.5141619 121.242412,41.5700818 121.070255,41.6819217 C120.898099,41.7937616 120.811952,41.9414618 120.811952,42.1250221 C120.811952,42.3257569 120.925028,42.4863722 121.151456,42.606868 C121.281844,42.6785884 121.47461,42.7416529 121.729341,42.7964737 L122.312035,42.9215036 C122.945703,43.0569755 123.370118,43.187776 123.585691,43.3144546 C123.922173,43.512991 124.090345,43.8254283 124.090345,44.2513542 C124.090345,44.662991 123.914204,45.0184331 123.562334,45.3176804 C123.210189,45.6170651 122.67421,45.7668262 121.953845,45.7668262 C121.178248,45.7668262 120.628941,45.6106075 120.306336,45.298445 C119.983594,44.9860078 119.810614,44.5996517 119.787943,44.1391022 L120.619598,44.1391022 Z" id="Fill-37" fill="#FFFFFF" mask="url(#mask-2)"></path>
                <path d="M125.200871,39.674945 L126.075805,39.674945 L126.075805,40.9657754 L126.897705,40.9657754 L126.897705,41.600405 L126.075805,41.600405 L126.075805,44.6182963 C126.075805,44.7794612 126.136534,44.887454 126.258404,44.9421374 C126.325865,44.9737384 126.43798,44.9895388 126.594885,44.9895388 C126.636654,44.9895388 126.681444,44.9887145 126.729533,44.9866535 C126.777759,44.98473 126.833541,44.9799211 126.897705,44.9723644 L126.897705,45.5896822 C126.798368,45.6156499 126.695047,45.6343357 126.587878,45.6458769 C126.480435,45.6572808 126.364061,45.6630514 126.239443,45.6630514 C125.835363,45.6630514 125.561397,45.5703094 125.417131,45.3846882 C125.272729,45.1989295 125.200871,44.9579379 125.200871,44.6614385 L125.200871,41.600405 L124.503864,41.600405 L124.503864,40.9657754 L125.200871,40.9657754 L125.200871,39.674945 Z" id="Fill-38" fill="#FFFFFF" mask="url(#mask-2)"></path>
                <path d="M130.981675,40.9657204 L131.938222,40.9657204 C131.816352,41.2623572 131.545546,41.9391673 131.125803,42.9958757 C130.811717,43.7908459 130.549017,44.4383907 130.337428,44.9394719 C129.837995,46.1187372 129.485713,46.8377276 129.280719,47.096718 C129.075863,47.3555711 128.723581,47.4849976 128.224286,47.4849976 C128.102553,47.4849976 128.008712,47.480601 127.943312,47.4720824 C127.877362,47.4634265 127.796573,47.447626 127.700671,47.4245436 L127.700671,46.7164074 C127.850982,46.7540538 127.959662,46.7769988 128.026986,46.7856547 C128.094172,46.7943106 128.153389,46.7985699 128.204638,46.7985699 C128.364429,46.7985699 128.482177,46.7748005 128.557195,46.7275364 C128.63235,46.680135 128.695689,46.6218793 128.7468,46.5529068 C128.762876,46.5298244 128.820444,46.4123513 128.919507,46.1996631 C129.018706,45.9871123 129.090839,45.8289701 129.135492,45.7256487 L127.231878,40.9657204 L128.212744,40.9657204 L129.59247,44.7322796 L130.981675,40.9657204 Z" id="Fill-39" fill="#FFFFFF" mask="url(#mask-2)"></path>
                <path d="M136.086782,41.2119331 C136.45033,41.4651529 136.669064,41.9012461 136.742845,42.5200753 L135.901573,42.5200753 C135.850462,42.2351171 135.733538,41.9985221 135.550802,41.8098781 C135.368066,41.6212342 135.074864,41.5271183 134.670922,41.5271183 C134.119829,41.5271183 133.725504,41.7686595 133.488496,42.2514671 C133.334614,42.5648662 133.257672,42.951497 133.257672,43.4113596 C133.257672,43.8742449 133.366627,44.2637611 133.584673,44.5800454 C133.802445,44.8961924 134.145384,45.0543345 134.613216,45.0543345 C134.972367,45.0543345 135.256776,44.9562342 135.466716,44.7596213 C135.676519,44.5635579 135.821471,44.294675 135.901573,43.9533847 L136.742845,43.9533847 C136.646806,44.5664432 136.406364,45.014902 136.021931,45.2983489 C135.637361,45.5819331 135.145348,45.7235878 134.546029,45.7235878 C133.873066,45.7235878 133.336125,45.5026559 132.935617,45.0607921 C132.534972,44.6190657 132.334787,44.0671481 132.334787,43.4051768 C132.334787,42.5934444 132.554207,41.9617001 132.993323,41.5098065 C133.432302,41.0579128 133.991501,40.8318973 134.670922,40.8318973 C135.251005,40.8318973 135.723096,40.9585759 136.086782,41.2119331" id="Fill-40" fill="#FFFFFF" mask="url(#mask-2)"></path>
                <path d="M138.122625,44.1391022 C138.148731,44.3980926 138.222375,44.5967664 138.34342,44.7349863 C138.565863,44.9853208 138.951807,45.1104881 139.501251,45.1104881 C139.82839,45.1104881 140.116371,45.0478357 140.364782,44.9226685 C140.613468,44.7975012 140.737673,44.603911 140.737673,44.3420352 C140.737673,44.1434988 140.638474,43.9922264 140.439662,43.8887676 C140.312572,43.8254283 140.061825,43.7521965 139.687422,43.6683853 L138.988766,43.512991 C138.542781,43.4151655 138.213581,43.3057987 138.001855,43.1850281 C137.624155,42.974813 137.435236,42.6842216 137.435236,42.3128417 C137.435236,41.8753746 137.612888,41.5213065 137.968605,41.2509122 C138.324322,40.9802431 138.802458,40.8449086 139.403289,40.8449086 C140.189465,40.8449086 140.756222,41.0494904 141.103695,41.4579671 C141.321054,41.7169576 141.426849,41.9961452 141.420529,42.2955299 L140.603163,42.2955299 C140.586813,42.1210376 140.516192,41.9622085 140.391711,41.818905 C140.188229,41.6158345 139.835535,41.5141619 139.333492,41.5141619 C138.998934,41.5141619 138.745439,41.5700818 138.573283,41.6819217 C138.400989,41.7937616 138.314842,41.9414618 138.314842,42.1250221 C138.314842,42.3257569 138.428056,42.4863722 138.654483,42.606868 C138.785009,42.6785884 138.977637,42.7416529 139.232369,42.7964737 L139.815338,42.9215036 C140.448593,43.0569755 140.873145,43.187776 141.088719,43.3144546 C141.4252,43.512991 141.593647,43.8254283 141.593647,44.2513542 C141.593647,44.662991 141.417231,45.0184331 141.065361,45.3176804 C140.713217,45.6170651 140.1771,45.7668262 139.456873,45.7668262 C138.681275,45.7668262 138.132243,45.6106075 137.809364,45.298445 C137.486622,44.9860078 137.313641,44.5996517 137.291108,44.1391022 L138.122625,44.1391022 Z" id="Fill-41" fill="#FFFFFF" mask="url(#mask-2)"></path>
                <polygon id="Fill-42" fill="#FFFFFF" mask="url(#mask-2)" points="77.1448029 36.5393608 141.157073 36.5393608 141.157073 35.3003286 77.1448029 35.3003286"></polygon>
            </g>
        </g>
    </g>
</svg>