<?xml version="1.0" encoding="UTF-8"?>
<svg width="230px" height="62px" viewBox="0 0 230 62" version="1.1" xmlns="http://www.w3.org/2000/svg" xmlns:xlink="http://www.w3.org/1999/xlink">
    <!-- Generator: Sketch 42 (36781) - http://www.bohemiancoding.com/sketch -->
    <title>logo_color</title>
    <desc>Created with Sketch.</desc>
    <defs>
        <polygon id="path-1" points="0 61.315003 229.932773 61.315003 229.932773 0.0457800359 0 0.0457800359"></polygon>
    </defs>
    <g id="Welcome" stroke="none" stroke-width="1" fill="none" fill-rule="evenodd">
        <g id="logo_color">
            <polygon id="Fill-1" fill="#DC1325" points="34.3694238 0.137546324 2.74955164e-05 15.2600807 0.137505081 46.7423102 34.644379 61.4067693 69.1512528 46.3300149 69.1512528 15.2600807"></polygon>
            <polygon id="Fill-2" fill="#FFFFFF" points="65.0983174 44.3724166 34.5312762 57.563116 34.5312762 57.6476647 3.96423491 44.4569653 3.96423491 35.832309 3.96423491 18.7096133 12.8426748 23.1487645 12.8426748 39.6635344 34.4467274 48.9865768 34.4467274 40.1445684 34.4467274 31.5199121 34.4467274 31.477569 36.0440795 30.8305995 65.0139062 18.3290753 65.0139062 26.9538691 44.4667812 35.8206234 44.4667812 44.6509462 65.0983174 35.7477603"></polygon>
            <polygon id="Fill-3" fill="#DC1325" points="35.1341154 33.2647914 35.1341154 33.3071345 36.7314674 32.6178219"></polygon>
            <polygon id="Fill-4" fill="#FFFFFF" points="77.4811022 15.8013712 80.6271393 15.8013712 80.6271393 28.5432062 88.1448261 28.5432062 88.1448261 31.3359259 77.4811022 31.3359259"></polygon>
            <g id="Group-44" transform="translate(0.000000, 0.091698)">
                <path d="M99.8863329,27.5028171 C100.618264,26.5544967 100.984504,25.2054292 100.984504,23.4558894 C100.984504,21.7134985 100.618264,20.3663556 99.8863329,19.4141859 C99.1544023,18.4621536 98.165251,17.9860687 96.9191542,17.9860687 C95.6730574,17.9860687 94.6785445,18.4605039 93.936578,19.4088243 C93.194199,20.3574196 92.823147,21.7064871 92.823147,23.4558894 C92.823147,25.2054292 93.194199,26.5544967 93.936578,27.5028171 C94.6785445,28.4514124 95.6730574,28.9257101 96.9191542,28.9257101 C98.165251,28.9257101 99.1544023,28.4514124 99.8863329,27.5028171 Z M101.852675,29.8635822 C100.715323,31.0721476 99.0708159,31.6762241 96.9191542,31.6762241 C94.7672176,31.6762241 93.1227107,31.0721476 91.9854961,29.8635822 C90.4601823,28.3812989 89.6975941,26.2453096 89.6975941,23.4558894 C89.6975941,20.6103784 90.4601823,18.4745266 91.9854961,17.0480592 C93.1227107,15.8397687 94.7672176,15.2354172 96.9191542,15.2354172 C99.0708159,15.2354172 100.715323,15.8397687 101.852675,17.0480592 C103.371115,18.4745266 104.130403,20.6103784 104.130403,23.4558894 C104.130403,26.2453096 103.371115,28.3812989 101.852675,29.8635822 Z" id="Fill-5" fill="#FFFFFF"></path>
                <path d="M116.653484,20.557642 C116.415098,19.4968649 115.832743,18.7555858 114.906831,18.333942 C114.389091,18.1020173 113.813885,17.9861237 113.180525,17.9861237 C111.968386,17.9861237 110.972498,18.4578093 110.192863,19.401043 C109.41309,20.3442767 109.023203,21.762358 109.023203,23.6555619 C109.023203,25.5632008 109.445259,26.9130932 110.289784,27.7053766 C111.134172,28.4979348 112.094315,28.8940078 113.170352,28.8940078 C114.225767,28.8940078 115.090639,28.5816587 115.764692,27.9566856 C116.438882,27.3317125 116.854339,26.5130335 117.010926,25.5005111 L113.527794,25.5005111 L113.527794,22.9078213 L119.799384,22.9078213 L119.799384,31.2441871 L117.715773,31.2441871 L117.399163,29.3050658 C116.792886,30.039471 116.248338,30.5572116 115.764692,30.8578751 C114.933915,31.3823521 113.912594,31.6446593 112.700454,31.6446593 C110.705104,31.6446593 109.07077,30.9319755 107.797453,29.5067454 C106.469695,28.0742289 105.805678,26.1154483 105.805678,23.6295786 C105.805678,21.1160759 106.476431,19.100792 107.8178,17.5841393 C109.159306,16.0674866 110.933454,15.3091602 113.139695,15.3091602 C115.053108,15.3091602 116.590382,15.8098536 117.75138,16.8109653 C118.912516,17.8122146 119.578045,19.061061 119.74838,20.557642 L116.653484,20.557642 Z" id="Fill-7" fill="#FFFFFF"></path>
                <path d="M132.429573,27.5028171 C133.161504,26.5544967 133.527607,25.2054292 133.527607,23.4558894 C133.527607,21.7134985 133.161504,20.3663556 132.429573,19.4141859 C131.697505,18.4621536 130.708354,17.9860687 129.462257,17.9860687 C128.21616,17.9860687 127.221785,18.4605039 126.479681,19.4088243 C125.737302,20.3574196 125.36625,21.7064871 125.36625,23.4558894 C125.36625,25.2054292 125.737302,26.5544967 126.479681,27.5028171 C127.221785,28.4514124 128.21616,28.9257101 129.462257,28.9257101 C130.708354,28.9257101 131.697505,28.4514124 132.429573,27.5028171 M134.395915,29.8635822 C133.258563,31.0721476 131.613919,31.6762241 129.462257,31.6762241 C127.310458,31.6762241 125.665951,31.0721476 124.528736,29.8635822 C123.003285,28.3812989 122.240697,26.2453096 122.240697,23.4558894 C122.240697,20.6103784 123.003285,18.4745266 124.528736,17.0480592 C125.665951,15.8397687 127.310458,15.2354172 129.462257,15.2354172 C131.613919,15.2354172 133.258563,15.8397687 134.395915,17.0480592 C135.914355,18.4745266 136.673644,20.6103784 136.673644,23.4558894 C136.673644,26.2453096 135.914355,28.3812989 134.395915,29.8635822" id="Fill-9" fill="#FFFFFF"></path>
                <path d="M141.341723,26.4489002 C141.439057,27.158697 141.630288,27.6890855 141.915417,28.0403407 C142.436732,28.679749 143.330198,28.9995218 144.59568,28.9995218 C145.353456,28.9995218 145.968806,28.9151106 146.441591,28.7465631 C147.338495,28.4233533 147.787084,27.8225762 147.787084,26.9443694 C147.787084,26.4314405 147.567258,26.0344053 147.128017,25.7534011 C146.688501,25.4792708 145.991627,25.2370353 145.03767,25.0261447 L143.407598,24.6574298 C141.805572,24.2921518 140.704926,23.8951166 140.105799,23.4664614 C139.091077,22.7497908 138.583785,21.6290735 138.583785,20.1045846 C138.583785,18.7133114 139.080079,17.5576748 140.072805,16.6371249 C141.065393,15.71685 142.52348,15.256575 144.446791,15.256575 C146.052805,15.256575 147.422769,15.6904543 148.556821,16.5580753 C149.690874,17.4258338 150.285464,18.685266 150.340593,20.3362343 L147.317186,20.3362343 C147.26137,19.4019366 146.856361,18.7380574 146.102434,18.3444591 C145.599816,18.0844889 144.975118,17.9545726 144.228065,17.9545726 C143.39715,17.9545726 142.734096,18.1231201 142.238351,18.4604901 C141.742607,18.7977227 141.494873,19.2684459 141.494873,19.8725224 C141.494873,20.4276569 141.739308,20.8421518 142.227903,21.1162821 C142.542039,21.2989898 143.208668,21.5131799 144.228202,21.7591273 L146.870521,22.4019725 C148.028495,22.6829767 148.896391,23.0589779 149.474484,23.5297011 C150.371938,24.260532 150.820665,25.3177346 150.820665,26.7018589 C150.820665,28.1211775 150.288901,29.2997729 149.225512,30.2377824 C148.161986,31.175792 146.660043,31.644728 144.718997,31.644728 C142.736708,31.644728 141.177849,31.1828033 140.042147,30.2588165 C138.906307,29.3349671 138.338662,28.0650867 138.338662,26.4489002 L141.341723,26.4489002 Z" id="Fill-11" fill="#FFFFFF"></path>
                <path d="M155.906703,16.92026 C157.119393,15.641581 158.662029,15.0021727 160.534886,15.0021727 C163.040965,15.0021727 164.873403,15.8593455 166.032202,17.573691 C166.672298,18.5364465 167.015717,19.5022265 167.062871,20.4718559 L163.916834,20.4718559 C163.716805,19.7272773 163.459721,19.164994 163.14641,18.7855559 C162.586051,18.1110909 161.755412,17.7738583 160.654766,17.7738583 C159.533912,17.7738583 158.649931,18.2499432 158.002824,19.2019755 C157.355854,20.1540078 157.032369,21.5012881 157.032369,23.243679 C157.032369,24.9863449 157.373726,26.2912821 158.056577,27.1590406 C158.739291,28.0266617 159.606912,28.4605409 160.659166,28.4605409 C161.738365,28.4605409 162.56103,28.0881142 163.127301,27.3432606 C163.440337,26.9429259 163.700032,26.3421488 163.906524,25.5412044 L167.032351,25.5412044 C166.762758,27.2345158 166.073858,28.6117663 164.965926,29.6725433 C163.857444,30.7335953 162.437851,31.2638464 160.706458,31.2638464 C158.564282,31.2638464 156.879907,30.5471757 155.653882,29.1138344 C154.427857,27.6737567 153.814844,25.6991662 153.814844,23.1910251 C153.814844,20.4790048 154.51213,18.3887956 155.906703,16.92026" id="Fill-13" fill="#FFFFFF"></path>
                <path d="M173.67366,24.9616264 L177.529769,24.9616264 L175.627766,18.8489605 L173.67366,24.9616264 Z M173.881114,15.2972271 L177.440821,15.2972271 L182.767527,30.8317818 L179.356021,30.8317818 L178.362333,27.6384525 L172.817862,27.6384525 L171.797366,30.8317818 L168.506427,30.8317818 L173.881114,15.2972271 Z" id="Fill-15" fill="#FFFFFF"></path>
                <path d="M187.828751,17.9952385 L187.828751,22.1686455 L191.214686,22.1686455 C191.887227,22.1686455 192.391494,22.0843718 192.728039,21.9158243 C193.322905,21.6206599 193.620406,21.0376175 193.620406,20.1662845 C193.620406,19.224838 193.332391,18.5925786 192.757047,18.2692313 C192.4337,18.0866611 191.948542,17.9952385 191.301984,17.9952385 L187.828751,17.9952385 Z M194.331303,15.6977131 C194.88575,15.9436605 195.355649,16.3055015 195.740723,16.7833736 C196.059396,17.1768344 196.311805,17.6123634 196.497675,18.090098 C196.683682,18.5679701 196.776617,19.1123814 196.776617,19.7236067 C196.776617,20.4613114 196.596109,21.1869181 196.23523,21.8998769 C195.874351,22.6132481 195.278524,23.1172409 194.447747,23.4122678 C195.142421,23.7004208 195.634316,24.1096916 195.923843,24.6400801 C196.212959,25.1706061 196.357998,25.9803491 196.357998,27.0694465 L196.357998,28.1127639 C196.357998,28.8225607 196.385356,29.3037322 196.441034,29.556691 C196.523933,29.9570257 196.717501,30.2520526 197.021739,30.4419091 L197.021739,30.8317956 L193.548781,30.8317956 C193.453509,30.4875517 193.385457,30.2099845 193.344626,29.9990938 C193.262827,29.5635649 193.218559,29.1175876 193.211823,28.6607496 L193.191476,27.2168225 C193.178553,26.2262965 193.012618,25.5658542 192.693808,25.2354955 C192.37486,24.9054118 191.777382,24.7403013 190.901512,24.7403013 L187.828751,24.7403013 L187.828751,30.8317956 L184.75434,30.8317956 L184.75434,15.2972409 L191.955828,15.2972409 C192.984985,15.318275 193.776856,15.4517657 194.331303,15.6977131 L194.331303,15.6977131 Z" id="Fill-17" fill="#FFFFFF"></path>
                <path d="M209.912435,20.1452092 C209.674049,19.0844322 209.091694,18.343153 208.165782,17.9215093 C207.648179,17.6895846 207.072836,17.573691 206.439476,17.573691 C205.227337,17.573691 204.231449,18.0453766 203.451814,18.9886103 C202.672041,19.931844 202.282292,21.3499253 202.282292,23.2431291 C202.282292,25.1507681 202.704348,26.5006605 203.548873,27.2929438 C204.39326,28.0855021 205.353266,28.481575 206.429303,28.481575 C207.484856,28.481575 208.349727,28.1692259 209.02378,27.5442528 C209.697833,26.9192797 210.11329,26.1006007 210.270014,25.0880783 L206.786882,25.0880783 L206.786882,22.4953885 L213.058472,22.4953885 L213.058472,30.8317543 L210.974862,30.8317543 L210.658114,28.892633 C210.051975,29.6270383 209.507289,30.1447788 209.02378,30.4454423 C208.192866,30.9699193 207.171545,31.2322265 205.959405,31.2322265 C203.964055,31.2322265 202.329859,30.5195427 201.056542,29.0943126 C199.728646,27.6617962 199.064766,25.7030155 199.064766,23.2171458 C199.064766,20.7036432 199.735382,18.6883592 201.076888,17.1717065 C202.418395,15.6550538 204.192405,14.8967274 206.398646,14.8967274 C208.312059,14.8967274 209.84947,15.3974208 211.010469,16.3985326 C212.171467,17.3997818 212.837133,18.6486282 213.007468,20.1452092 L209.912435,20.1452092 Z" id="Fill-19" fill="#FFFFFF"></path>
                <path d="M225.688648,27.0903843 C226.420579,26.142064 226.786681,24.7929964 226.786681,23.0434567 C226.786681,21.3010658 226.420579,19.9539229 225.688648,19.0017531 C224.95658,18.0497209 223.967429,17.573636 222.721332,17.573636 C221.475235,17.573636 220.48086,18.0480711 219.738756,18.9963915 C218.996377,19.9449868 218.625325,21.2940544 218.625325,23.0434567 C218.625325,24.7929964 218.996377,26.142064 219.738756,27.0903843 C220.48086,28.0389797 221.475235,28.5132773 222.721332,28.5132773 C223.967429,28.5132773 224.95658,28.0389797 225.688648,27.0903843 M227.65499,29.4511494 C226.517638,30.6597149 224.872993,31.2637914 222.721332,31.2637914 C220.569533,31.2637914 218.925026,30.6597149 217.787811,29.4511494 C216.26236,27.9688661 215.499772,25.8328769 215.499772,23.0434567 C215.499772,20.1979456 216.26236,18.0620938 217.787811,16.6356264 C218.925026,15.4273359 220.569533,14.8229845 222.721332,14.8229845 C224.872993,14.8229845 226.517638,15.4273359 227.65499,16.6356264 C229.17343,18.0620938 229.932718,20.1979456 229.932718,23.0434567 C229.932718,25.8328769 229.17343,27.9688661 227.65499,29.4511494" id="Fill-21" fill="#FFFFFF"></path>
                <path d="M77.789217,44.7600072 C77.8153377,45.0191524 77.8890257,45.2178075 78.0098685,45.35611 C78.2325822,45.6067316 78.6188942,45.7318362 79.1686671,45.7318362 C79.4960012,45.7318362 79.7838793,45.6692839 80.0325762,45.5439044 C80.2812732,45.4187998 80.4058279,45.2250938 80.4058279,44.9630616 C80.4058279,44.764269 80.3064316,44.6130436 80.107639,44.5093855 C79.9803347,44.4461458 79.7295756,44.3727328 79.3548117,44.289009 L78.6558757,44.1333843 C78.209486,44.0356378 77.8802271,43.9262056 77.6683742,43.8053628 C77.2901733,43.5950221 77.1011417,43.3041195 77.1011417,42.9326551 C77.1011417,42.4949265 77.2791751,42.1405093 77.6351046,41.8700909 C77.9908966,41.59926 78.4691811,41.4638446 79.0706455,41.4638446 C79.8571548,41.4638446 80.4241124,41.6684112 80.7717932,42.0772696 C80.9895577,42.3364148 81.0952779,42.6157693 81.0888165,42.9153329 L80.2712373,42.9153329 C80.25474,42.7407364 80.1840765,42.5816748 80.0595218,42.4384232 C79.85578,42.2350938 79.5030126,42.1334979 79.0008069,42.1334979 C78.6659115,42.1334979 78.4124029,42.1894513 78.240006,42.301358 C78.0676091,42.4131273 77.9815481,42.5610532 77.9815481,42.7445858 C77.9815481,42.945578 78.0948296,43.1062893 78.3212552,43.2268571 C78.4518589,43.2986204 78.64474,43.3617227 78.8996234,43.4165762 L79.4826659,43.5416808 C80.116575,43.6770962 80.5412433,43.8081124 80.7570831,43.9348667 C81.0934907,44.1333843 81.2620383,44.4461458 81.2620383,44.8721889 C81.2620383,45.2842092 81.085792,45.6398637 80.7337119,45.9392899 C80.3813568,46.2388536 79.8449193,46.3887041 79.1242618,46.3887041 C78.3482008,46.3887041 77.7985655,46.2323921 77.4757681,45.9199056 C77.1525583,45.607419 76.979749,45.2206946 76.9569277,44.7600072 L77.789217,44.7600072 Z" id="Fill-23" fill="#FFFFFF"></path>
                <path d="M82.2000478,41.5847286 L83.0562582,41.5847286 L83.0562582,42.2413216 C83.2613748,42.0139337 83.4473819,41.8484106 83.6142797,41.7446151 C83.8994082,41.5690562 84.2235804,41.4810705 84.5858338,41.4810705 C84.9963419,41.4810705 85.3265631,41.5718057 85.5766348,41.7534136 C85.7178243,41.8567968 85.8460909,42.0096718 85.9614345,42.211214 C86.1537657,41.9634794 86.3799163,41.7800843 86.6396115,41.6604788 C86.8994441,41.5410108 87.191309,41.4810705 87.5152062,41.4810705 C88.2078183,41.4810705 88.6792289,41.7057089 88.9293007,42.1549857 C89.0640287,42.3969462 89.1312552,42.7223556 89.1312552,43.1313515 L89.1312552,46.2113993 L88.2318769,46.2113993 L88.2318769,42.9974483 C88.2318769,42.689361 88.1460909,42.4776455 87.9745188,42.3623019 C87.8029468,42.2470956 87.5937059,42.1894925 87.3469337,42.1894925 C87.0068141,42.1894925 86.7141243,42.2917759 86.4690018,42.4963425 C86.2236043,42.7007717 86.1009743,43.0421285 86.1009743,43.5200006 L86.1009743,46.2113993 L85.2207053,46.2113993 L85.2207053,43.1918416 C85.2207053,42.8779803 85.1790496,42.6488051 85.0956007,42.5048661 C84.9641721,42.2890263 84.7186372,42.1808314 84.3596832,42.1808314 C84.0327615,42.1808314 83.73526,42.2948004 83.4674537,42.5220508 C83.1996473,42.7497137 83.0657442,43.1615965 83.0657442,43.7576993 L83.0657442,46.2113993 L82.2000478,46.2113993 L82.2000478,41.5847286 Z" id="Fill-25" fill="#FFFFFF"></path>
                <path d="M91.3440532,45.5121058 C91.5267609,45.6413347 91.7431506,45.7059492 91.9934973,45.7059492 C92.2977352,45.7059492 92.5928996,45.642847 92.878303,45.5162301 C93.3593371,45.3063019 93.5997854,44.9627454 93.5997854,44.4852857 L93.5997854,43.8600377 C93.4942026,43.9208027 93.3583748,43.971257 93.1917519,44.0118129 C93.0254041,44.0522313 92.8620807,44.0809641 92.7021943,44.0982863 L92.1789546,44.1585015 C91.8653682,44.1961704 91.6294567,44.2550108 91.4713574,44.3352977 C91.2035511,44.4705756 91.0697854,44.686003 91.0697854,44.9819922 C91.0697854,45.2059432 91.161208,45.3828769 91.3440532,45.5121058 L91.3440532,45.5121058 Z M93.1671435,43.4114483 C93.365936,43.388627 93.4988769,43.3138392 93.5662409,43.1872224 C93.6045971,43.1177962 93.6239815,43.0181249 93.6239815,42.8879337 C93.6239815,42.622052 93.5190861,42.4290335 93.3095702,42.3090155 C93.0999169,42.1889976 92.7999408,42.1291949 92.4095045,42.1291949 C91.9581656,42.1291949 91.6381178,42.2390395 91.449361,42.4590036 C91.3436408,42.5808087 91.2750395,42.7614543 91.2430072,43.0016276 L90.4349139,43.0016276 C90.4509988,42.4298583 90.6566653,42.0319982 91.0521883,41.8083222 C91.4477113,41.5843712 91.9066115,41.472327 92.4287513,41.472327 C93.0340652,41.472327 93.5255475,41.5761225 93.9036109,41.7834387 C94.2783748,41.9908924 94.4656192,42.3134148 94.4656192,42.7512809 L94.4656192,45.4168338 C94.4656192,45.4973957 94.4841787,45.5622851 94.5210227,45.6110897 C94.5578667,45.6598942 94.6355415,45.6843652 94.7544597,45.6843652 C94.7928159,45.6843652 94.8359839,45.6821656 94.884101,45.6779038 C94.9323556,45.6737794 94.9834973,45.6671805 95.0380759,45.6585194 L95.0380759,46.2330383 C94.9034854,46.2675451 94.8007896,46.2891291 94.7304011,46.2977902 C94.6597376,46.3064513 94.5635033,46.3108506 94.4415607,46.3108506 C94.1433718,46.3108506 93.9269821,46.2157161 93.792254,46.0257221 C93.721728,45.924951 93.6720986,45.7825242 93.6433658,45.5981668 C93.4668446,45.805483 93.2134734,45.9854411 92.8831148,46.1380412 C92.5527561,46.2906414 92.1889904,46.3670789 91.7912678,46.3670789 C91.3132582,46.3670789 90.9230968,46.2367501 90.6199588,45.9763676 C90.3169582,45.7161225 90.1654579,45.3904381 90.1654579,44.9993144 C90.1654579,44.5705218 90.314621,44.238376 90.6128099,44.0026019 C90.9111363,43.7668279 91.3021225,43.6213766 91.7865935,43.566798 L93.1671435,43.4114483 Z" id="Fill-27" fill="#FFFFFF"></path>
                <path d="M95.9087352,41.5847286 L96.7312636,41.5847286 L96.7312636,42.3840233 C96.7987651,42.2285362 96.9636007,42.0392295 97.2265953,41.8159659 C97.48959,41.5928398 97.7925906,41.4810705 98.1357346,41.4810705 C98.151682,41.4810705 98.17904,41.4825828 98.2176712,41.4854698 C98.2560275,41.4883568 98.3216043,41.4939934 98.4148141,41.5026545 L98.4148141,42.3235332 C98.3633975,42.3148721 98.3162427,42.309098 98.2727998,42.306211 C98.2296318,42.3034614 98.1820646,42.3019492 98.1309229,42.3019492 C97.6949815,42.3019492 97.3598111,42.4280161 97.1258243,42.6800126 C96.891425,42.9318715 96.7747065,43.2220867 96.7747065,43.5503831 L96.7747065,46.2113993 L95.9087352,46.2113993 L95.9087352,41.5847286 Z" id="Fill-29" fill="#FFFFFF"></path>
                <path d="M99.3381548,40.2931955 L100.21375,40.2931955 L100.21375,41.5847974 L101.036278,41.5847974 L101.036278,42.2198063 L100.21375,42.2198063 L100.21375,45.2395015 C100.21375,45.4007627 100.274652,45.5088201 100.396457,45.5635362 C100.463821,45.595156 100.57614,45.6109659 100.73314,45.6109659 C100.774796,45.6109659 100.819613,45.6100036 100.86773,45.6080789 C100.915985,45.6061542 100.972076,45.6013425 101.036278,45.5936438 L101.036278,46.211468 C100.936882,46.2374513 100.833224,46.2560108 100.726129,46.2675589 C100.618484,46.279107 100.502315,46.2848811 100.377348,46.2848811 C99.9733013,46.2848811 99.699171,46.1920837 99.5548195,46.006214 C99.4103305,45.8204818 99.3381548,45.5793461 99.3381548,45.282532 L99.3381548,42.2198063 L98.640731,42.2198063 L98.640731,41.5847974 L99.3381548,41.5847974 L99.3381548,40.2931955 Z" id="Fill-31" fill="#FFFFFF"></path>
                <mask id="mask-2" fill="white">
                    <use xlink:href="#path-1"></use>
                </mask>
                <g id="Clip-34"></g>
                <polygon id="Fill-33" fill="#FFFFFF" mask="url(#mask-2)" points="104.663198 46.2114405 105.528894 46.2114405 105.528894 39.8654752 104.663198 39.8654752"></polygon>
                <path d="M110.02261,45.121422 C110.233501,44.731673 110.338946,44.2979313 110.338946,43.8204716 C110.338946,43.3890669 110.262784,43.0380867 110.110871,42.7676683 C109.869873,42.3420377 109.454278,42.1290849 108.864499,42.1290849 C108.341397,42.1290849 107.960859,42.3102803 107.722885,42.6726712 C107.485186,43.0353371 107.366406,43.4725158 107.366406,43.9843449 C107.366406,44.4765146 107.485186,44.8861978 107.722885,45.2142194 C107.960859,45.5421034 108.338097,45.7059767 108.855013,45.7059767 C109.422521,45.7059767 109.81172,45.511171 110.02261,45.121422 M110.560285,42.0465983 C111.015611,42.4436336 111.243274,43.0277759 111.243274,43.7988876 C111.243274,44.5441536 111.042694,45.1599157 110.641397,45.6460365 C110.240237,46.1324322 109.617739,46.3754925 108.773901,46.3754925 C108.070154,46.3754925 107.51117,46.1606151 107.097362,45.7304477 C106.683417,45.3002803 106.476513,44.7225995 106.476513,43.9974053 C106.476513,43.2205194 106.694553,42.6018703 107.130769,42.1414579 C107.567123,41.6811829 108.152915,41.4507705 108.88842,41.4507705 C109.547625,41.4507705 110.104959,41.6494256 110.560285,42.0465983" id="Fill-35" fill="#FFFFFF" mask="url(#mask-2)"></path>
                <path d="M115.276165,42.6042624 C115.014683,42.327795 114.681162,42.1894925 114.276016,42.1894925 C113.669602,42.1894925 113.255107,42.4460257 113.031843,42.9585421 C112.913613,43.2321225 112.854772,43.5906641 112.854772,44.0341668 C112.854772,44.5553443 112.971766,44.9521046 113.206302,45.2244477 C113.440839,45.4965158 113.755938,45.6324812 114.151598,45.6324812 C114.770385,45.6324812 115.205776,45.3804848 115.458048,44.8766294 C115.598412,44.5915009 115.668526,44.2588051 115.668526,43.8788171 C115.668526,43.305673 115.537647,42.8808673 115.276165,42.6042624 M115.170307,41.7705983 C115.333218,41.8713694 115.499154,42.0181955 115.668526,42.211214 L115.668526,41.6278966 L116.467133,41.6278966 L116.467133,45.835673 C116.467133,46.4231148 116.371174,46.8866892 116.179393,47.2266712 C115.821401,47.8542564 115.145561,48.1683927 114.151598,48.1683927 C113.598526,48.1683927 113.133714,48.0567609 112.756476,47.8336348 C112.379375,47.6103712 112.168484,47.2611781 112.123529,46.7860556 L113.003798,46.7860556 C113.045041,46.9933718 113.128078,47.1532582 113.252495,47.2654399 C113.447163,47.4382493 113.753463,47.5245852 114.17112,47.5245852 C114.831425,47.5245852 115.26338,47.3145194 115.467534,46.893838 C115.588789,46.6462409 115.644605,46.2043879 115.634844,45.5678667 C115.462447,45.8039157 115.254856,45.9797496 115.011933,46.0948183 C114.769148,46.210162 114.448275,46.2674901 114.04904,46.2674901 C113.493218,46.2674901 113.006822,46.0897316 112.58999,45.7340771 C112.173296,45.3785601 111.964742,44.790156 111.964742,43.9694148 C111.964742,43.1947286 112.174808,42.5899647 112.594802,42.1549857 C113.014934,41.7201441 113.521951,41.5026545 114.116129,41.5026545 C114.518526,41.5026545 114.870056,41.5920149 115.170307,41.7705983" id="Fill-36" fill="#FFFFFF" mask="url(#mask-2)"></path>
                <path d="M117.785021,46.2114405 L118.665152,46.2114405 L118.665152,41.6063539 L117.785021,41.6063539 L117.785021,46.2114405 Z M117.785021,40.7467065 L118.665152,40.7467065 L118.665152,39.8654752 L117.785021,39.8654752 L117.785021,40.7467065 Z" id="Fill-37" fill="#FFFFFF" mask="url(#mask-2)"></path>
                <path d="M120.488229,44.7600072 C120.51435,45.0191524 120.588038,45.2178075 120.70888,45.35611 C120.931732,45.6067316 121.317906,45.7318362 121.867816,45.7318362 C122.195013,45.7318362 122.483029,45.6692839 122.731588,45.5439044 C122.98056,45.4187998 123.10484,45.2250938 123.10484,44.9630616 C123.10484,44.764269 123.005444,44.6130436 122.806651,44.5093855 C122.679484,44.4461458 122.428588,44.3727328 122.053961,44.289009 L121.354888,44.1333843 C120.908498,44.0356378 120.579239,43.9262056 120.367524,43.8053628 C119.989323,43.5950221 119.800291,43.3041195 119.800291,42.9326551 C119.800291,42.4949265 119.978325,42.1405093 120.334117,41.8700909 C120.690046,41.59926 121.168468,41.4638446 121.769795,41.4638446 C122.556304,41.4638446 123.123262,41.6684112 123.470943,42.0772696 C123.68857,42.3364148 123.79429,42.6157693 123.787966,42.9153329 L122.970249,42.9153329 C122.953889,42.7407364 122.883226,42.5816748 122.758534,42.4384232 C122.554792,42.2350938 122.202025,42.1334979 121.699819,42.1334979 C121.364923,42.1334979 121.111415,42.1894513 120.939155,42.301358 C120.766896,42.4131273 120.680698,42.5610532 120.680698,42.7445858 C120.680698,42.945578 120.793842,43.1062893 121.020405,43.2268571 C121.150871,43.2986204 121.343752,43.3617227 121.598635,43.4165762 L122.181678,43.5416808 C122.815724,43.6770962 123.240393,43.8081124 123.456095,43.9348667 C123.792778,44.1333843 123.96105,44.4461458 123.96105,44.8721889 C123.96105,45.2842092 123.784804,45.6398637 123.432724,45.9392899 C123.080369,46.2388536 122.544069,46.3887041 121.823274,46.3887041 C121.047213,46.3887041 120.497577,46.2323921 120.17478,45.9199056 C119.851845,45.607419 119.678761,45.2206946 119.656077,44.7600072 L120.488229,44.7600072 Z" id="Fill-38" fill="#FFFFFF" mask="url(#mask-2)"></path>
                <path d="M125.07224,40.2931955 L125.947698,40.2931955 L125.947698,41.5847974 L126.770088,41.5847974 L126.770088,42.2198063 L125.947698,42.2198063 L125.947698,45.2395015 C125.947698,45.4007627 126.008463,45.5088201 126.130405,45.5635362 C126.197907,45.595156 126.310088,45.6109659 126.467088,45.6109659 C126.508881,45.6109659 126.553699,45.6100036 126.601816,45.6080789 C126.650071,45.6061542 126.705886,45.6013425 126.770088,45.5936438 L126.770088,46.211468 C126.670692,46.2374513 126.567309,46.2560108 126.460077,46.2675589 C126.352569,46.279107 126.236126,46.2848811 126.111433,46.2848811 C125.707112,46.2848811 125.432981,46.1920837 125.28863,46.006214 C125.144141,45.8204818 125.07224,45.5793461 125.07224,45.282532 L125.07224,42.2198063 L124.374816,42.2198063 L124.374816,41.5847974 L125.07224,41.5847974 L125.07224,40.2931955 Z" id="Fill-39" fill="#FFFFFF" mask="url(#mask-2)"></path>
                <path d="M130.856513,41.5847286 L131.813632,41.5847286 C131.69169,41.8814053 131.420721,42.5587573 131.000727,43.6160974 C130.686454,44.4115427 130.423597,45.0594746 130.211881,45.5608553 C129.71215,46.7408255 129.359658,47.4602457 129.154541,47.7193909 C128.949562,47.9783987 128.597069,48.1079026 128.097476,48.1079026 C127.975671,48.1079026 127.881773,48.1035033 127.816334,48.0949797 C127.750345,48.0863186 127.669508,48.0703712 127.573549,48.0474124 L127.573549,47.338853 C127.723949,47.3763843 127.832694,47.3994806 127.900058,47.4081417 C127.967285,47.4166653 128.026537,47.4210646 128.077816,47.4210646 C128.237703,47.4210646 128.355521,47.3972809 128.430584,47.3499886 C128.505784,47.3025589 128.569161,47.2442684 128.620303,47.1751172 C128.636388,47.1521584 128.693991,47.0344776 128.793112,46.8217998 C128.892371,46.6089845 128.964547,46.4508852 129.009227,46.3475021 L127.104475,41.5847286 L128.085928,41.5847286 L129.466478,45.3535392 L130.856513,41.5847286 Z" id="Fill-40" fill="#FFFFFF" mask="url(#mask-2)"></path>
                <path d="M135.964658,41.8310885 C136.328424,42.0844597 136.547288,42.5208135 136.621114,43.1400126 L135.779338,43.1400126 C135.728197,42.8547466 135.611203,42.6181476 135.428358,42.4293909 C135.245513,42.2406342 134.952136,42.1463246 134.547952,42.1463246 C133.996529,42.1463246 133.601968,42.3880102 133.364819,42.8711064 C133.210845,43.1848302 133.133857,43.5716922 133.133857,44.0318296 C133.133857,44.4949916 133.242877,44.8846031 133.461054,45.201214 C133.678956,45.5175499 134.0221,45.6757866 134.490211,45.6757866 C134.849577,45.6757866 135.134156,45.5776276 135.344222,45.3808972 C135.55415,45.1845792 135.699189,44.9155356 135.779338,44.5740412 L136.621114,44.5740412 C136.525017,45.1876037 136.284431,45.6361931 135.899769,45.9198093 C135.514969,46.2037005 135.022662,46.3453025 134.422984,46.3453025 C133.749619,46.3453025 133.212357,46.124376 132.81161,45.6822481 C132.410725,45.2402576 132.21042,44.6878727 132.21042,44.0255057 C132.21042,43.2134256 132.429972,42.5811662 132.86935,42.1291399 C133.308591,41.6769761 133.868125,41.450688 134.547952,41.450688 C135.128382,41.450688 135.600755,41.5775798 135.964658,41.8310885" id="Fill-41" fill="#FFFFFF" mask="url(#mask-2)"></path>
                <path d="M138.001718,44.7600072 C138.027839,45.0191524 138.101527,45.2178075 138.222645,45.35611 C138.445221,45.6067316 138.831396,45.7318362 139.381169,45.7318362 C139.708503,45.7318362 139.996656,45.6692839 140.245215,45.5439044 C140.49405,45.4187998 140.618329,45.2250938 140.618329,44.9630616 C140.618329,44.764269 140.519071,44.6130436 140.32014,44.5093855 C140.192974,44.4461458 139.942077,44.3727328 139.567451,44.289009 L138.868377,44.1333843 C138.422125,44.0356378 138.092729,43.9262056 137.880876,43.8053628 C137.50295,43.5950221 137.313918,43.3041195 137.313918,42.9326551 C137.313918,42.4949265 137.491677,42.1405093 137.847606,41.8700909 C138.203536,41.59926 138.681958,41.4638446 139.283147,41.4638446 C140.069794,41.4638446 140.636889,41.6684112 140.98457,42.0772696 C141.202059,42.3364148 141.307917,42.6157693 141.301593,42.9153329 L140.483739,42.9153329 C140.467379,42.7407364 140.396715,42.5816748 140.272161,42.4384232 C140.068556,42.2350938 139.715652,42.1334979 139.213308,42.1334979 C138.878551,42.1334979 138.624904,42.1894513 138.452645,42.301358 C138.280248,42.4131273 138.19405,42.5610532 138.19405,42.7445858 C138.19405,42.945578 138.307331,43.1062893 138.533894,43.2268571 C138.664498,43.2986204 138.857241,43.3617227 139.112125,43.4165762 L139.695442,43.5416808 C140.329077,43.6770962 140.753882,43.8081124 140.969585,43.9348667 C141.306267,44.1333843 141.474815,44.4461458 141.474815,44.8721889 C141.474815,45.2842092 141.298293,45.6398637 140.946213,45.9392899 C140.593858,46.2388536 140.057421,46.3887041 139.336763,46.3887041 C138.560702,46.3887041 138.011342,46.2323921 137.68827,45.9199056 C137.365335,45.607419 137.19225,45.2206946 137.169704,44.7600072 L138.001718,44.7600072 Z" id="Fill-42" fill="#FFFFFF" mask="url(#mask-2)"></path>
                <polygon id="Fill-43" fill="#DC1325" mask="url(#mask-2)" points="76.9874477 37.155792 141.03798 37.155792 141.03798 35.9160191 76.9874477 35.9160191"></polygon>
            </g>
        </g>
    </g>
</svg>