<?xml version="1.0" encoding="UTF-8" standalone="no"?><!DOCTYPE svg PUBLIC "-//W3C//DTD SVG 1.1//EN" "http://www.w3.org/Graphics/SVG/1.1/DTD/svg11.dtd"><svg width="100%" height="100%" viewBox="0 0 280 350" version="1.1" xmlns="http://www.w3.org/2000/svg" xmlns:xlink="http://www.w3.org/1999/xlink" xml:space="preserve" style="fill-rule:evenodd;clip-rule:evenodd;stroke-linejoin:round;stroke-miterlimit:1.41421;"><g id="squers_background_left"><path id="Rectangle.2e..-4" d="M279.56,211.321l-279.56,0l0,-211.321l279.56,0l0,211.321Zm-273.577,-205.318l0,199.314l267.594,0l0,-199.314l-267.594,0Z" style="fill:#d0011b;"/><path id="Rectangle.2e..-4.2e..-Copy" d="M259.658,301.372l-146.646,0l0,-144.082l146.646,0l0,144.082Zm-140.663,-138.079l0,132.076l134.68,0l0,-132.076l-134.68,0Z" style="fill:#d0011b;"/><path id="Rectangle.2e..-4.2e..-Copy.2e..-2" d="M100.835,337.093l-78.698,0l0,-77.445l78.698,0l0,77.445Zm-72.715,-71.441l0,65.437l66.732,0l0,-65.437l-66.732,0Z" style="fill:#d0011b;"/><path id="Rectangle.2e..-4.2e..-Copy.2e..-3" d="M142.771,349.7l-31.612,0l0,-31.218l31.612,0l0,31.218Zm-25.629,-25.215l0,19.211l19.646,0l0,-19.211l-19.646,0Z" style="fill:#d0011b;"/></g></svg>