<?xml version="1.0" encoding="UTF-8" standalone="no"?><!DOCTYPE svg PUBLIC "-//W3C//DTD SVG 1.1//EN" "http://www.w3.org/Graphics/SVG/1.1/DTD/svg11.dtd"><svg width="100%" height="100%" viewBox="0 0 468 583" version="1.1" xmlns="http://www.w3.org/2000/svg" xmlns:xlink="http://www.w3.org/1999/xlink" xml:space="preserve" style="fill-rule:evenodd;clip-rule:evenodd;stroke-linejoin:round;stroke-miterlimit:1.41421;"><g id="squers_background_left"><path id="Rectangle.-4" d="M467.265,352l-467.265,0l0,-352l467.265,0l0,352Zm-457.265,-342l0,332l447.265,0l0,-332l-447.265,0Z" style="fill:#d0011b;"/><path id="Rectangle.-4.-Copy" d="M434,502l-245.108,0l0,-240l245.108,0l0,240Zm-235.108,-230l0,220l225.108,0l0,-220l-225.108,0Z" style="fill:#d0011b;"/><path id="Rectangle.-4.-Copy.-2" d="M168.539,561.5l-131.539,0l0,-129l131.539,0l0,129Zm-121.539,-119l0,109l111.539,0l0,-109l-111.539,0Z" style="fill:#d0011b;"/><path id="Rectangle.-4.-Copy.-3" d="M238.632,582.5l-52.837,0l0,-52l52.837,0l0,52Zm-42.837,-42l0,32l32.837,0l0,-32l-32.837,0Z" style="fill:#d0011b;"/></g></svg>