<?xml version="1.0" encoding="UTF-8"?>
<svg viewBox="0 0 82 94" version="1.1" xmlns="http://www.w3.org/2000/svg" xmlns:xlink="http://www.w3.org/1999/xlink">
    <!-- Generator: Sketch 42 (36781) - http://www.bohemiancoding.com/sketch -->
    <title>quote_ico</title>
    <desc>Created with Sketch.</desc>
    <defs></defs>
    <g id="Welcome" stroke="none" stroke-width="1" fill="none" fill-rule="evenodd">
        <path d="M41,0 C18.3576515,0 0,18.4452187 0,41.1955725 C0,52.9647614 4.9365684,63.5502087 12.8099536,71.0517873 L11.4383074,94 L30.9129679,81.0811831 C34.145164,81.9033206 37.5131666,82.3877336 41,82.3877336 C63.6457436,82.3877336 82,63.9459263 82,41.1921611 C82.0033952,18.4452187 63.6457436,0 41,0 Z M37.0378437,38.6916349 C37.0378437,42.9217202 36.1618914,46.2614408 34.4099868,48.7073852 C32.6580821,51.1533297 29.6567572,53.3195427 25.3992216,55.1889675 L22.1907917,49.0860461 C24.8084631,47.8545455 26.6180855,46.6230448 27.6162637,45.4017783 C28.617837,44.173689 29.1746439,42.7272727 29.2900795,41.0591181 L22.1907917,41.0591181 L22.1907917,27.2021775 L37.0378437,27.2021775 L37.0378437,38.6916349 Z M59.8092083,38.6916349 C59.8092083,42.9217202 58.933256,46.2614408 57.1813514,48.7073852 C55.4294468,51.1601524 52.4281219,53.3195427 48.1705863,55.1889675 L44.9655515,49.0860461 C47.5832229,47.8545455 49.3928453,46.6230448 50.3944187,45.4017783 C51.3959921,44.173689 51.9527989,42.7272727 52.0682345,41.0591181 L44.9689467,41.0591181 L44.9689467,27.2021775 L59.8159987,27.2021775 L59.8092083,38.6916349 L59.8092083,38.6916349 Z" id="quote_ico" fill="#FFFFFF" fill-rule="nonzero"></path>
    </g>
</svg>