<?xml version="1.0" encoding="UTF-8"?>
<svg width="56px" height="43px" viewBox="0 0 56 43" version="1.1" xmlns="http://www.w3.org/2000/svg" xmlns:xlink="http://www.w3.org/1999/xlink">
    <!-- Generator: Sketch 42 (36781) - http://www.bohemiancoding.com/sketch -->
    <title>ship__small_red_ico</title>
    <desc>Created with Sketch.</desc>
    <defs></defs>
    <g id="Welcome" stroke="none" stroke-width="1" fill="none" fill-rule="evenodd">
        <g id="ship__small_red_ico" fill="#D0011B">
            <path d="M42.2967591,26.8143066 L14.1614599,26.8143066 L14.1614599,23.0774307 L14.1614599,23.0774307 C14.1614599,21.7698102 15.2867737,21.2094015 16.4124964,21.2094015 L40.0461314,21.2094015 C41.1714453,21.2094015 42.2967591,21.7698102 42.2967591,23.0774307 L42.2967591,26.8143066 Z M32.0818686,38.8154745 L7.14756204,38.8154745 C6.3300438,38.4067153 5.10376642,36.3629197 5.10376642,36.3629197 L32.0818686,36.3629197 C32.7587737,36.3629197 33.308146,36.912292 33.308146,37.5891971 C33.308146,38.2665109 32.7587737,38.8154745 32.0818686,38.8154745 L32.0818686,38.8154745 Z M3.0599708,31.0490511 L29.992292,31.0490511 C30.5858102,31.0490511 31.1294599,31.4504526 31.2410511,32.0329343 C31.3910657,32.8165255 30.7942774,33.5016058 30.038073,33.5016058 L3.87748905,33.5016058 C3.46872993,33.0928467 3.0599708,31.0490511 3.0599708,31.0490511 L3.0599708,31.0490511 Z M0.000204379562,26.8161327 L0.000204379562,42.6942307 L55.4267153,42.6942307 L55.4267153,10.0000409 L55.4265109,42.6941898 L0,42.6941898 L0,10 L55.4265109,10 L55.4265109,10.0000409 L35.3697569,10.0000409 C36.58327,10.00749 37.6074745,11.0320447 37.6074745,12.2420438 L37.6074745,19.3413723 L40.0457226,19.3413723 C42.390365,19.3413723 44.1725547,20.9294015 44.1725547,23.0774307 L44.1725547,26.8143066 L50.7372263,26.8143066 C53.3635036,26.8143066 55.4265109,28.8691387 55.4265109,31.4843796 C55.4265109,34.1000292 53.3635036,36.1552701 50.7372263,36.1552701 C48.7682336,36.1552701 47.2672701,36.7156788 46.3295766,37.7432993 C44.9230365,39.3313285 45.1102482,41.6665693 45.1102482,41.6665693 L45.2042628,42.6941898 L13.2237664,42.6941898 C1.87579562,42.6941898 0.0940145985,28.0287299 0.0940145985,27.841927 L0.000204379562,26.8161327 Z M0.000204379562,26.8138978 L12.286073,26.8138978 L12.286073,23.0774307 C12.286073,20.9294015 13.9738394,19.3413723 16.4124964,19.3413723 L18.8507445,19.3413723 L18.8507445,12.2420438 C18.8507445,11.0320447 19.874949,10.00749 21.0880578,10.0000409 L0.000204379562,10.0000409 L0.000204379562,26.8138978 Z M24.1158051,10.0000409 C25.3297196,10.00749 26.3535182,11.0320447 26.3535182,12.2420438 L26.3535182,19.3413723 L30.1051095,19.3413723 L30.1051095,12.2420438 C30.1051095,11.0320447 31.1289082,10.00749 32.3424183,10.0000409 L24.1158051,10.0000409 Z" id="Combined-Shape"></path>
            <path d="M24.5551416,5.54931387 C24.4868788,4.58218978 23.7233168,4.06429197 23.1657693,3.68659854 C22.894762,3.50306569 22.5244263,3.25208759 22.4872292,3.09144526 C22.4565723,2.95778102 22.6094482,2.51018978 23.4097985,1.77442336 C23.8255066,1.39223358 23.8520759,0.745985401 23.4702949,0.330277372 C23.0881051,-0.0846131387 22.4422657,-0.113226277 22.0261489,0.270189781 C20.7565431,1.4380146 20.2558131,2.51141606 20.4961635,3.55170803 C20.7144409,4.49430657 21.4681927,5.00525547 22.0192,5.37845255 C22.1622657,5.47532847 22.3629664,5.6110365 22.4729226,5.71036496 C22.3968934,5.81255474 22.2096818,6.01080292 21.7678131,6.28712409 C21.2891562,6.58592701 21.143638,7.21664234 21.4428496,7.69529927 C21.6366015,8.00554745 21.9697401,8.17559124 22.3102365,8.17559124 C22.4954044,8.17559124 22.6826161,8.12572263 22.8510248,8.02026277 C24.0446015,7.27468613 24.6176818,6.44327007 24.5551416,5.54931387" id="Fill-1"></path>
            <path d="M34.6108613,3.68672117 C34.3402628,3.50318832 33.969927,3.25221022 33.9327299,3.09156788 C33.902073,2.95790365 34.0549489,2.51031241 34.8552993,1.77413723 C35.2705985,1.3923562 35.2975766,0.746108029 34.9153869,0.3304 C34.5336058,-0.0848992701 33.8873577,-0.11310365 33.4716496,0.270312409 C32.201635,1.43813723 31.7013139,2.51153869 31.9416642,3.55183066 C32.1595328,4.4944292 32.9136934,5.0053781 33.464292,5.37857518 C33.6077664,5.47545109 33.8080584,5.61115912 33.9184234,5.71007883 C33.8419854,5.81226861 33.6547737,6.01092555 33.2129051,6.28683796 C32.7342482,6.58604964 32.5891387,7.21676496 32.8879416,7.6954219 C33.0821022,8.00526131 33.4148321,8.17530511 33.7553285,8.17530511 C33.9404964,8.17530511 34.127708,8.1254365 34.2961168,8.0203854 C35.4896934,7.2744 36.0631825,6.44298394 36.0002336,5.5494365 C35.9319708,4.58190365 35.1684088,4.0644146 34.6108613,3.68672117" id="Fill-4"></path>
            <path d="M23.9444146,23.5039766 C23.4931445,23.5039766 23.1268964,23.8702248 23.1268964,24.3214949 C23.1268964,24.772765 23.4931445,25.1390131 23.9444146,25.1390131 C24.3956847,25.1390131 24.7619328,24.772765 24.7619328,24.3214949 C24.7619328,23.8702248 24.3956847,23.5039766 23.9444146,23.5039766" id="Fill-7"></path>
            <path d="M28.0571445,23.5239241 C27.6165022,23.6228438 27.3397723,24.0602161 27.438692,24.5008584 C27.5376117,24.9415007 27.9753927,25.2182307 28.4156263,25.1189022 C28.8562686,25.0199825 29.1329985,24.5826102 29.0340788,24.1423766 C28.9347504,23.7017343 28.4973781,23.4250044 28.0571445,23.5239241" id="Fill-9"></path>
            <path d="M32.3491153,23.5239241 C31.908473,23.6228438 31.6317431,24.0602161 31.7306628,24.5008584 C31.8295825,24.9415007 32.2673635,25.2182307 32.7075971,25.1189022 C33.1482394,25.0199825 33.4249693,24.5826102 33.3260496,24.1423766 C33.2267212,23.7017343 32.7893489,23.4250044 32.3491153,23.5239241" id="Fill-11"></path>
        </g>
    </g>
</svg>