<?xml version="1.0" encoding="UTF-8"?>
<svg width="27px" height="22px" viewBox="0 0 27 22" version="1.1" xmlns="http://www.w3.org/2000/svg" xmlns:xlink="http://www.w3.org/1999/xlink">
    <!-- Generator: Sketch 42 (36781) - http://www.bohemiancoding.com/sketch -->
    <title>tw_ico</title>
    <desc>Created with Sketch.</desc>
    <defs></defs>
    <g id="Welcome" stroke="none" stroke-width="1" fill="none" fill-rule="evenodd">
        <g id="Social" transform="translate(-48.000000, 0.000000)" fill-rule="nonzero" fill="#01A7ED">
            <g id="tw" transform="translate(48.000000, 0.000000)">
                <g id="Layer_1">
                    <g id="XMLID_826_">
                        <path d="M26.3283701,2.54541732 C25.9065591,2.73250394 25.4728819,2.89040157 25.0297638,3.01859055 C25.5543858,2.42528346 25.9543701,1.72717323 26.1985354,0.96323622 C26.2532756,0.792 26.1965433,0.604566929 26.0557953,0.492574803 C25.9152205,0.380496063 25.7199055,0.367070866 25.565126,0.458795276 C24.624063,1.01693701 23.6087717,1.41804724 22.5441969,1.65259843 C21.4718268,0.604740157 20.0153228,0.0084015748 18.509622,0.0084015748 C15.331315,0.0084015748 12.7455354,2.59409449 12.7455354,5.77231496 C12.7455354,6.02262992 12.7613858,6.27155906 12.7927402,6.51702362 C8.84876378,6.17074016 5.18212598,4.23222835 2.66425197,1.14365354 C2.57451969,1.03356693 2.43628346,0.97423622 2.29475591,0.985582677 C2.15314173,0.996669291 2.02590551,1.07652756 1.9543622,1.19925984 C1.44368504,2.07553543 1.17370866,3.07774803 1.17370866,4.09745669 C1.17370866,5.48631496 1.6695748,6.80406299 2.54550394,7.83373228 C2.27916535,7.74148819 2.02070866,7.62620472 1.7740315,7.48926772 C1.64159843,7.41555906 1.47997638,7.41668504 1.34840945,7.49212598 C1.21675591,7.56756693 1.1342126,7.70632283 1.13074803,7.85798425 C1.13014173,7.88353543 1.13014173,7.90908661 1.13014173,7.93498425 C1.13014173,10.0080945 2.24590551,11.8745433 3.95177165,12.8918268 C3.80522047,12.877189 3.65875591,12.8559685 3.51324409,12.8281654 C3.36322835,12.7994961 3.2089685,12.8520709 3.10780315,12.9664882 C3.00646457,13.0808189 2.97294488,13.240189 3.01962992,13.3857008 C3.65104724,15.3570394 5.27670866,16.8070472 7.24198425,17.249126 C5.61199213,18.2700472 3.7479685,18.8048031 1.7911811,18.8048031 C1.38288189,18.8048031 0.972244094,18.780811 0.570354331,18.7332598 C0.370708661,18.7095276 0.179811024,18.8274094 0.111818898,19.0172677 C0.0438267717,19.2072126 0.115889764,19.4189843 0.285740157,19.5278583 C2.79954331,21.1396614 5.70622835,21.9915984 8.69138583,21.9915984 C14.5598425,21.9915984 18.2309843,19.2242756 20.2772441,16.9027559 C22.8288976,14.0080236 24.2923307,10.1764724 24.2923307,6.39065354 C24.2923307,6.23249606 24.2899055,6.07277953 24.2850551,5.91358268 C25.2917717,5.15510236 26.1585197,4.23716535 26.8638189,3.18211811 C26.9709606,3.02188189 26.9593543,2.81011024 26.8352362,2.6626063 C26.7112913,2.51501575 26.5047165,2.46729134 26.3283701,2.54541732 Z" id="XMLID_827_"></path>
                    </g>
                </g>
            </g>
        </g>
    </g>
</svg>