<?xml version="1.0" encoding="UTF-8"?>
<svg width="39px" height="22px" viewBox="0 0 39 22" version="1.1" xmlns="http://www.w3.org/2000/svg" xmlns:xlink="http://www.w3.org/1999/xlink">
    <!-- Generator: Sketch 42 (36781) - http://www.bohemiancoding.com/sketch -->
    <title>vk_ico</title>
    <desc>Created with Sketch.</desc>
    <defs></defs>
    <g id="Welcome" stroke="none" stroke-width="1" fill="none" fill-rule="evenodd">
        <g id="Social" transform="translate(-133.000000, 0.000000)" fill-rule="nonzero" fill="#005EB0">
            <g id="vk" transform="translate(133.000000, 0.000000)">
                <g id="Layer_1">
                    <g id="XMLID_1_">
                        <path d="M33.3109402,13.9271445 C34.5948246,15.1806358 35.9499229,16.3599884 37.1014258,17.7398844 C37.6100963,18.3530867 38.0916801,18.9858728 38.4600847,19.6975029 C38.9821079,20.7091214 38.5092986,21.8223468 37.6022119,21.8827514 L31.9635992,21.8802081 C30.5093102,22.0008902 29.3491599,21.4154104 28.373657,20.4210867 C27.5929749,19.6259075 26.8700269,18.7796069 26.1193564,17.9575954 C25.8116108,17.6216185 25.4894951,17.3054798 25.1046859,17.0555954 C24.3349402,16.5559538 23.6668015,16.7089364 23.2269287,17.5117457 C22.7789171,18.328289 22.6773102,19.2324509 22.6333102,20.1424624 C22.5729056,21.4702197 22.1715645,21.8192948 20.8378304,21.8800809 C17.9874951,22.0144971 15.2823853,21.5832717 12.7694258,20.1453873 C10.5539113,18.8777803 8.83587665,17.0882775 7.34051249,15.0623699 C4.4290096,11.1175029 2.19937954,6.78273988 0.195472028,2.32653179 C-0.255591556,1.32254335 0.0742812767,0.783606936 1.1820385,0.764531792 C3.02151827,0.728797688 4.8607437,0.73134104 6.70238532,0.761988439 C7.45000382,0.772924855 7.94494024,1.2017341 8.23361076,1.90802312 C9.22882463,4.35510983 10.4465819,6.6832948 11.9751368,8.84132948 C12.3822004,9.41587283 12.7972755,9.99041618 13.3883506,10.3948092 C14.0422466,10.8425665 14.5401079,10.6941618 14.8477264,9.96574566 C15.0429287,9.50387283 15.1283853,9.00639306 15.1723853,8.51171098 C15.3181194,6.80982659 15.3373217,5.11086705 15.0817148,3.41495954 C14.9247899,2.35654335 14.3286281,1.67136416 13.2725009,1.47107514 C12.7335645,1.36895954 12.8138073,1.16841618 13.0747553,0.860797688 C13.5279807,0.330254335 13.9542466,0 14.8039807,0 L21.1764778,0 C22.1797032,0.198 22.4025009,0.648682081 22.539842,1.65813873 L22.5453102,8.73667052 C22.5343738,9.12745665 22.7405125,10.2870983 23.4443853,10.5457572 C24.0077379,10.729896 24.3790674,10.2792139 24.717079,9.922 C26.2428362,8.3026474 27.3317726,6.38890173 28.304605,4.40724855 C28.7363391,3.53589595 29.1075414,2.6309711 29.4672986,1.72680925 C29.733842,1.05587283 30.1520963,0.725745665 30.9078535,0.740369942 L37.0410212,0.74583815 C37.2228709,0.74583815 37.4068824,0.748508671 37.5830096,0.778647399 C38.6165009,0.954774566 38.8997032,1.3993526 38.5805125,2.40855491 C38.0775645,3.99191908 37.0990096,5.3114104 36.1422004,6.63700578 C35.1193911,8.05225434 34.0254951,9.41905202 33.0112061,10.8426936 C32.0793217,12.1427283 32.1533333,12.7980231 33.3109402,13.9271445 L33.3109402,13.9271445 Z" id="XMLID_807_"></path>
                    </g>
                </g>
            </g>
        </g>
    </g>
</svg>