<?xml version="1.0" encoding="UTF-8"?>
<svg width="56px" height="45px" viewBox="0 0 56 45" version="1.1" xmlns="http://www.w3.org/2000/svg" xmlns:xlink="http://www.w3.org/1999/xlink">
    <!-- Generator: Sketch 42 (36781) - http://www.bohemiancoding.com/sketch -->
    <title>truck__small_red_ico</title>
    <desc>Created with Sketch.</desc>
    <defs></defs>
    <g id="Welcome" stroke="none" stroke-width="1" fill="none" fill-rule="evenodd">
        <path d="M53.3513282,31.5600611 L49.0765191,31.5600611 C48.3681832,31.5600611 47.7940763,30.9855267 47.7940763,30.2776183 C47.7940763,29.5697099 48.3681832,28.9951756 49.0765191,28.9951756 L53.3513282,28.9951756 L53.3513282,31.5600611 Z M44.5879695,41.3921221 C42.581374,41.3921221 40.9543817,39.7651298 40.9543817,37.7585344 C40.9543817,35.7519389 42.581374,34.1249466 44.5879695,34.1249466 C46.5945649,34.1249466 48.2215573,35.7519389 48.2215573,37.7585344 C48.2215573,39.7651298 46.5945649,41.3921221 44.5879695,41.3921221 L44.5879695,41.3921221 Z M39.8536183,11.0721832 L47.8603359,11.0721832 L52.9580458,16.6080611 C53.2359084,16.7927328 53.3286718,17.1616489 53.3286718,17.4386565 L53.3286718,20.2989313 L39.8536183,20.2989313 L39.8536183,11.0721832 Z M29.8398779,27.2852519 L2.48109924,27.2852519 L2.48109924,24.7203664 L29.8398779,24.7203664 C30.5482137,24.7203664 31.1223206,25.2949008 31.1223206,26.0028092 C31.1223206,26.7107176 30.5482137,27.2852519 29.8398779,27.2852519 L29.8398779,27.2852519 Z M11.244458,41.3921221 C9.2378626,41.3921221 7.61087023,39.7651298 7.61087023,37.7585344 C7.61087023,35.7519389 9.2378626,34.1249466 11.244458,34.1249466 C13.2510534,34.1249466 14.8780458,35.7519389 14.8780458,37.7585344 C14.8780458,39.7651298 13.2510534,41.3921221 11.244458,41.3921221 L11.244458,41.3921221 Z M2.48109924,18.7356336 L21.2902595,18.7356336 C21.9985954,18.7356336 22.5727023,19.3101679 22.5727023,20.0180763 C22.5727023,20.7259847 21.9985954,21.3005191 21.2902595,21.3005191 L2.48109924,21.3005191 L2.48109924,18.7356336 Z M2.48109924,12.3234198 L12.7406412,12.3234198 C13.4489771,12.3234198 14.023084,12.8979542 14.023084,13.6058626 C14.023084,14.313771 13.4489771,14.8883053 12.7406412,14.8883053 L2.48109924,14.8883053 L2.48109924,12.3234198 Z M54.868458,15.4085496 L46.8048855,6.55071756 C46.1559695,5.90522137 45.3219542,5.53587786 44.4879389,5.53587786 L35.2192977,5.53587786 L35.2192977,3.59810687 C35.2192977,1.56842748 33.6436031,0 31.6977099,0 L3.61435115,0 C1.57569466,0 0,1.56842748 0,3.59853435 L0,35.5232366 C0,37.2763359 1.4829313,38.7524275 3.24372519,38.7524275 L4.69929771,38.7524275 C5.14216794,41.9050992 7.82247328,44.2887328 11.121771,44.2887328 C14.4214962,44.2887328 17.1018015,41.9050992 17.5442443,38.7524275 L38.0654656,38.7524275 C38.5079084,41.9050992 41.1886412,44.2887328 44.4879389,44.2887328 C47.7872366,44.2887328 50.467542,41.9050992 50.9104122,38.7524275 L55.7024733,38.7524275 L55.7024733,17.5309924 C55.7024733,16.6999695 55.4246107,15.9625649 54.868458,15.4085496 L54.868458,15.4085496 Z" id="truck__small_red_ico" fill="#D0011B"></path>
    </g>
</svg>