<svg version="1" xmlns="http://www.w3.org/2000/svg" width="346.667" height="346.667" viewBox="0 0 260.000000 260.000000"><path d="M89 19.5C67.3 30.2 38.4 44.4 24.8 51.1L0 63.3v133.3l36.3 17.1c19.9 9.5 49.2 23.3 65.1 30.8l28.9 13.7 18.6-9.1c10.2-4.9 29.9-14.5 43.6-21.2 13.8-6.7 34.6-16.8 46.3-22.5l21.2-10.3-.2-66.1-.3-66.1-60-29C129.5 0 129.4 0 128.9.1c-.2 0-18.2 8.8-39.9 19.4zm154.8 76l-.3 17.6-27 13c-14.8 7.2-32.1 15.5-38.2 18.5l-11.3 5.3v18.5c0 10.5.4 18.6.9 18.6s16.4-7.5 35.3-16.6c18.8-9.1 35.8-17.2 37.6-18l3.2-1.4v35.1l-9.2 4.4c-5.1 2.4-30.9 14.7-57.3 27.4l-48 23.1L73 213.9c-31.1-14.9-56.8-27.4-57.3-27.8-.4-.4-.6-24.6-.5-53.9l.3-53.1 16.2 9.1 16.3 9v69.5l39.8 19.1c21.9 10.6 40.4 19.2 41 19.2.9 0 1.2-9.6 1.4-36.5l.3-36.5 56-27c30.8-14.8 56.3-26.9 56.8-26.9.4-.1.6 7.8.5 17.4z"/></svg>