<?xml version="1.0" encoding="utf-8"?>
<svg xmlns="http://www.w3.org/2000/svg">
<symbol id="building" viewBox="0 0 511.627 511.627"><path d="M451.385 5.424C447.768 1.809 443.486 0 438.538 0H73.089c-4.952 0-9.233 1.809-12.85 5.424-3.615 3.617-5.424 7.898-5.424 12.847v475.082c0 4.952 1.809 9.233 5.424 12.851 3.621 3.617 7.902 5.424 12.85 5.424h365.449c4.948 0 9.233-1.807 12.847-5.424 3.61-3.617 5.428-7.898 5.428-12.851V18.271c-.004-4.948-1.811-9.229-5.428-12.847zm-31.121 469.661H310.632v-63.953c0-2.478-.907-4.62-2.707-6.427-1.817-1.807-3.949-2.711-6.427-2.711h-91.367c-2.474 0-4.615.904-6.423 2.711-1.807 1.807-2.712 3.949-2.712 6.427v63.953H91.36V36.542h328.904v438.543z"/><path d="M137.042 401.994h18.271c2.474 0 4.616-.899 6.423-2.71 1.809-1.813 2.714-3.949 2.714-6.427v-18.274c0-2.471-.905-4.609-2.714-6.42-1.807-1.807-3.949-2.71-6.423-2.71h-18.271c-2.474 0-4.615.903-6.423 2.71-1.809 1.811-2.712 3.949-2.712 6.42v18.274c0 2.478.903 4.613 2.712 6.427 1.809 1.807 3.949 2.71 6.423 2.71zM137.042 328.904h18.271c2.474 0 4.616-.904 6.423-2.711 1.809-1.813 2.714-3.949 2.714-6.427v-18.274c0-2.471-.905-4.616-2.714-6.42-1.807-1.807-3.949-2.71-6.423-2.71h-18.271c-2.474 0-4.615.903-6.423 2.71-1.809 1.804-2.712 3.949-2.712 6.42v18.274c0 2.478.903 4.613 2.712 6.427 1.809 1.807 3.949 2.711 6.423 2.711zM210.135 328.904h18.272c2.473 0 4.615-.904 6.423-2.711 1.807-1.813 2.712-3.949 2.712-6.427v-18.274c0-2.471-.909-4.613-2.712-6.42-1.809-1.807-3.951-2.71-6.423-2.71h-18.272c-2.474 0-4.615.903-6.423 2.71-1.807 1.807-2.712 3.949-2.712 6.42v18.274c0 2.478.905 4.613 2.712 6.427 1.808 1.807 3.949 2.711 6.423 2.711zM137.042 255.813h18.271c2.474 0 4.616-.903 6.423-2.712 1.809-1.809 2.714-3.949 2.714-6.424v-18.271c0-2.475-.905-4.617-2.714-6.424-1.807-1.809-3.949-2.712-6.423-2.712h-18.271c-2.474 0-4.615.903-6.423 2.712-1.809 1.807-2.712 3.949-2.712 6.424v18.271c0 2.475.903 4.615 2.712 6.424s3.949 2.712 6.423 2.712zM356.311 401.994h18.274c2.478 0 4.616-.899 6.427-2.71 1.811-1.813 2.707-3.949 2.707-6.427v-18.274c0-2.471-.903-4.609-2.707-6.42-1.811-1.807-3.949-2.71-6.427-2.71h-18.274c-2.471 0-4.613.903-6.42 2.71-1.811 1.811-2.711 3.949-2.711 6.42v18.274c0 2.478.9 4.613 2.711 6.427 1.803 1.807 3.949 2.71 6.42 2.71zM283.224 328.904h18.274c2.478 0 4.613-.904 6.427-2.711 1.8-1.813 2.703-3.949 2.703-6.427v-18.274c0-2.471-.903-4.613-2.703-6.42-1.813-1.807-3.949-2.71-6.427-2.71h-18.274c-2.471 0-4.62.903-6.427 2.71-1.801 1.807-2.711 3.949-2.711 6.42v18.274c0 2.478.907 4.613 2.711 6.427 1.813 1.807 3.956 2.711 6.427 2.711zM210.135 255.813h18.272c2.473 0 4.615-.903 6.423-2.712 1.807-1.809 2.712-3.949 2.712-6.424v-18.271c0-2.475-.909-4.613-2.712-6.424-1.809-1.809-3.951-2.712-6.423-2.712h-18.272c-2.474 0-4.615.903-6.423 2.712-1.807 1.807-2.712 3.949-2.712 6.424v18.271c0 2.475.905 4.615 2.712 6.424 1.808 1.809 3.949 2.712 6.423 2.712zM137.042 182.725h18.271c2.474 0 4.616-.905 6.423-2.712 1.809-1.809 2.714-3.946 2.714-6.423v-18.271c0-2.474-.905-4.62-2.714-6.423-1.807-1.809-3.949-2.714-6.423-2.714h-18.271c-2.474 0-4.615.905-6.423 2.714-1.809 1.807-2.712 3.949-2.712 6.423v18.271c0 2.474.903 4.615 2.712 6.423 1.809 1.806 3.949 2.712 6.423 2.712zM356.311 328.904h18.274c2.478 0 4.616-.904 6.427-2.711 1.811-1.813 2.707-3.949 2.707-6.427v-18.274c0-2.471-.903-4.613-2.707-6.42-1.811-1.807-3.949-2.71-6.427-2.71h-18.274c-2.471 0-4.613.903-6.42 2.71-1.811 1.804-2.711 3.949-2.711 6.42v18.274c0 2.478.9 4.613 2.711 6.427 1.803 1.807 3.949 2.711 6.42 2.711zM283.224 255.813h18.274c2.478 0 4.613-.903 6.427-2.712 1.8-1.809 2.703-3.949 2.703-6.424v-18.271c0-2.475-.903-4.613-2.703-6.424-1.813-1.809-3.949-2.712-6.427-2.712h-18.274c-2.471 0-4.62.903-6.427 2.712-1.801 1.807-2.711 3.949-2.711 6.424v18.271c0 2.475.907 4.615 2.711 6.424 1.813 1.809 3.956 2.712 6.427 2.712zM210.135 182.725h18.272c2.473 0 4.615-.905 6.423-2.712 1.807-1.809 2.712-3.946 2.712-6.423v-18.271c0-2.474-.909-4.62-2.712-6.423-1.809-1.809-3.951-2.714-6.423-2.714h-18.272c-2.474 0-4.615.905-6.423 2.714-1.807 1.807-2.712 3.949-2.712 6.423v18.271c0 2.474.905 4.615 2.712 6.423 1.808 1.806 3.949 2.712 6.423 2.712zM137.042 109.632h18.271c2.474 0 4.616-.905 6.423-2.713 1.809-1.807 2.714-3.949 2.714-6.424v-18.27c0-2.475-.905-4.615-2.714-6.424-1.807-1.807-3.949-2.712-6.423-2.712h-18.271c-2.474 0-4.615.905-6.423 2.712-1.809 1.809-2.712 3.949-2.712 6.424v18.271c0 2.475.903 4.617 2.712 6.424 1.809 1.808 3.949 2.712 6.423 2.712zM356.311 255.813h18.274c2.478 0 4.616-.903 6.427-2.712s2.707-3.949 2.707-6.424v-18.271c0-2.475-.903-4.613-2.707-6.424-1.811-1.809-3.949-2.712-6.427-2.712h-18.274c-2.471 0-4.613.903-6.42 2.712-1.811 1.807-2.711 3.949-2.711 6.424v18.271c0 2.475.9 4.615 2.711 6.424 1.803 1.809 3.949 2.712 6.42 2.712zM283.224 182.725h18.274c2.478 0 4.613-.905 6.427-2.712 1.8-1.809 2.703-3.946 2.703-6.423v-18.271c0-2.474-.903-4.62-2.703-6.423-1.813-1.809-3.949-2.714-6.427-2.714h-18.274c-2.471 0-4.613.905-6.427 2.714-1.801 1.807-2.711 3.949-2.711 6.423v18.271c0 2.474.907 4.615 2.711 6.423 1.813 1.806 3.956 2.712 6.427 2.712zM210.135 109.632h18.272c2.473 0 4.615-.905 6.423-2.713 1.807-1.807 2.712-3.949 2.712-6.424v-18.27c0-2.475-.909-4.615-2.712-6.424-1.809-1.807-3.951-2.712-6.423-2.712h-18.272c-2.474 0-4.615.905-6.423 2.712C201.905 77.61 201 79.75 201 82.225v18.271c0 2.475.905 4.617 2.712 6.424 1.808 1.808 3.949 2.712 6.423 2.712zM356.311 182.725h18.274c2.478 0 4.616-.905 6.427-2.712 1.811-1.809 2.707-3.946 2.707-6.423v-18.271c0-2.474-.903-4.62-2.707-6.423-1.811-1.809-3.949-2.714-6.427-2.714h-18.274c-2.471 0-4.613.905-6.42 2.714-1.811 1.807-2.711 3.949-2.711 6.423v18.271c0 2.474.9 4.615 2.711 6.423 1.803 1.806 3.949 2.712 6.42 2.712zM283.224 109.632h18.274c2.478 0 4.613-.905 6.427-2.713 1.8-1.807 2.703-3.949 2.703-6.424v-18.27c0-2.475-.903-4.615-2.703-6.424-1.813-1.807-3.949-2.712-6.427-2.712h-18.274c-2.471 0-4.62.905-6.427 2.712-1.801 1.809-2.711 3.949-2.711 6.424v18.271c0 2.475.907 4.617 2.711 6.424 1.813 1.808 3.956 2.712 6.427 2.712zM356.311 109.632h18.274c2.478 0 4.616-.905 6.427-2.713 1.811-1.807 2.707-3.949 2.707-6.424v-18.27c0-2.475-.903-4.615-2.707-6.424-1.811-1.807-3.949-2.712-6.427-2.712h-18.274c-2.471 0-4.613.905-6.42 2.712-1.811 1.809-2.711 3.949-2.711 6.424v18.271c0 2.475.9 4.617 2.711 6.424 1.803 1.808 3.949 2.712 6.42 2.712z"/>
</symbol>
<symbol id="card" viewBox="0 0 548.176 548.176"><path d="M534.754 68.238c-8.945-8.945-19.698-13.417-32.258-13.417H45.681c-12.562 0-23.313 4.471-32.264 13.417C4.471 77.185 0 87.936 0 100.499v347.173c0 12.566 4.471 23.318 13.417 32.264 8.951 8.946 19.702 13.419 32.264 13.419h456.815c12.56 0 23.312-4.473 32.258-13.419 8.945-8.945 13.422-19.697 13.422-32.264V100.499c0-12.563-4.477-23.314-13.422-32.261zm-23.127 379.441c0 2.478-.903 4.613-2.711 6.427-1.807 1.8-3.949 2.703-6.42 2.703H45.681c-2.473 0-4.615-.903-6.423-2.71-1.807-1.813-2.712-3.949-2.712-6.427V274.088h475.082v173.591zm0-283.23H36.545v-63.954c0-2.474.902-4.611 2.712-6.423 1.809-1.803 3.951-2.708 6.423-2.708h456.815c2.471 0 4.613.901 6.42 2.708 1.808 1.812 2.711 3.949 2.711 6.423v63.954h.001z"/><path d="M73.092 383.719h73.089v36.548H73.092zM182.728 383.719h109.634v36.548H182.728z"/>
</symbol>
<symbol id="cart" viewBox="0 0 475.084 475.085"><path d="M365.446 401.998c0 10.092 3.579 18.702 10.711 25.834 7.132 7.139 15.749 10.711 25.845 10.711 10.081 0 18.698-3.572 25.83-10.711 7.139-7.132 10.711-15.742 10.711-25.834s-3.568-18.702-10.711-25.841c-7.132-7.132-15.749-10.704-25.83-10.704-10.096 0-18.713 3.572-25.845 10.704-7.132 7.139-10.711 15.749-10.711 25.841zM469.658 78.51c-3.618-3.617-7.898-5.426-12.848-5.426H113.918c-.193-1.331-.621-3.756-1.287-7.277-.666-3.523-1.188-6.329-1.569-8.425-.383-2.087-1.093-4.611-2.142-7.561-1.047-2.952-2.284-5.286-3.711-6.995-1.425-1.718-3.328-3.189-5.708-4.43-2.378-1.233-5.092-1.853-8.136-1.853H18.276c-4.952 0-9.234 1.812-12.85 5.424C1.809 45.583 0 49.868 0 54.816s1.809 9.231 5.426 12.847c3.619 3.617 7.902 5.424 12.85 5.424h58.237l50.532 234.976c-.378.76-2.329 4.373-5.852 10.848-3.521 6.475-6.328 12.135-8.42 16.988-2.093 4.859-3.14 8.616-3.14 11.279 0 4.948 1.809 9.232 5.424 12.854 3.621 3.606 7.902 5.421 12.851 5.421h292.348c4.948 0 9.232-1.814 12.847-5.421 3.62-3.621 5.427-7.905 5.427-12.854 0-4.949-1.807-9.233-5.427-12.847-3.614-3.614-7.898-5.428-12.847-5.428h-262.66c4.57-9.138 6.854-15.222 6.854-18.268 0-1.909-.238-4.004-.715-6.283s-1.047-4.805-1.713-7.569c-.667-2.752-1.093-4.799-1.283-6.133l298.077-34.831c4.753-.575 8.658-2.614 11.703-6.14 3.046-3.518 4.565-7.562 4.565-12.133V91.363c-.002-4.948-1.806-9.231-5.426-12.853zM109.632 401.998c0 10.092 3.567 18.702 10.706 25.834 7.141 7.139 15.75 10.711 25.841 10.711 10.085 0 18.699-3.572 25.835-10.711 7.139-7.132 10.71-15.742 10.71-25.834s-3.568-18.702-10.71-25.841c-7.137-7.132-15.75-10.704-25.835-10.704-10.09 0-18.704 3.572-25.841 10.704-7.135 7.139-10.706 15.749-10.706 25.841z"/>
</symbol>
<symbol id="checked-simple" viewBox="0 0 474.8 474.801"><path d="M396.283 257.097c-1.14-.575-2.282-.862-3.433-.862-2.478 0-4.661.951-6.563 2.857l-18.274 18.271c-1.708 1.715-2.566 3.806-2.566 6.283v72.513c0 12.565-4.463 23.314-13.415 32.264-8.945 8.945-19.701 13.418-32.264 13.418H82.226c-12.564 0-23.319-4.473-32.264-13.418-8.947-8.949-13.418-19.698-13.418-32.264V118.622c0-12.562 4.471-23.316 13.418-32.264 8.945-8.946 19.7-13.418 32.264-13.418H319.77c4.188 0 8.47.571 12.847 1.714 1.143.378 1.999.571 2.563.571 2.478 0 4.668-.949 6.57-2.852l13.99-13.99c2.282-2.281 3.142-5.043 2.566-8.276-.571-3.046-2.286-5.236-5.141-6.567-10.272-4.752-21.412-7.139-33.403-7.139H82.226c-22.65 0-42.018 8.042-58.102 24.126C8.042 76.613 0 95.978 0 118.629v237.543c0 22.647 8.042 42.014 24.125 58.098 16.084 16.088 35.452 24.13 58.102 24.13h237.541c22.647 0 42.017-8.042 58.101-24.13 16.085-16.084 24.134-35.45 24.134-58.098v-90.797c-.002-3.994-1.915-6.752-5.72-8.278z"/><path d="M467.95 93.216l-31.409-31.409c-4.568-4.567-9.996-6.851-16.279-6.851-6.275 0-11.707 2.284-16.271 6.851L219.265 246.532l-75.084-75.089c-4.569-4.57-9.995-6.851-16.274-6.851-6.28 0-11.704 2.281-16.274 6.851l-31.405 31.405c-4.568 4.568-6.854 9.994-6.854 16.277 0 6.28 2.286 11.704 6.854 16.274l122.767 122.767c4.569 4.571 9.995 6.851 16.274 6.851 6.279 0 11.704-2.279 16.274-6.851l232.404-232.403c4.565-4.567 6.854-9.994 6.854-16.274s-2.283-11.706-6.851-16.273z"/>
</symbol>
<symbol id="checked" viewBox="0 0 439.679 439.679"><path d="M145.031 169.879c-2.666-2.857-6.089-4.286-10.276-4.286-4.192 0-7.521 1.434-9.995 4.286l-34.546 34.258c-2.666 2.667-3.997 5.996-3.997 9.994 0 3.997 1.334 7.428 3.997 10.282l116.203 116.483c2.284 2.286 5.138 3.621 8.564 4.004.383.191.955.28 1.714.28 3.805 0 7.324-1.431 10.564-4.284l208.417-208.42c2.669-2.859 4.004-6.283 4.004-10.282 0-3.997-1.335-7.424-4.004-10.277L401.42 77.654c-2.854-2.856-6.283-4.281-10.28-4.281s-7.426 1.429-10.28 4.281l-163.88 164.17-71.949-71.945z"/><path d="M422.835 182.435L246.108 359.164c-7.426 7.803-16.848 11.711-28.267 11.711h-7.994l-1.713-1.144c-7.044-1.718-13.418-5.235-19.13-10.567L73.089 242.681c-7.995-7.994-11.992-17.515-11.992-28.55 0-11.228 3.997-20.647 11.992-28.262l34.261-34.545c7.804-7.804 17.318-11.709 28.549-11.709 10.85 0 20.273 3.999 28.266 11.991l53.676 53.677L331.467 91.364l-75.657-75.66C245.721 5.619 233.542.576 219.263.576c-14.275 0-26.457 5.042-36.542 15.128L15.131 183.292C5.042 193.382 0 205.562 0 219.839c0 14.279 5.046 26.455 15.131 36.547l167.594 167.586c10.085 10.089 22.314 15.13 36.685 15.13 14.372 0 26.503-5.041 36.403-15.13l167.59-167.586c10.089-10.093 15.133-22.269 15.133-36.551 0-14.281-5.044-26.457-15.133-36.547l-.568-.853z"/>
</symbol>
<symbol id="gift" viewBox="0 0 438.526 438.526"><path d="M435.969 157.878c-1.708-1.712-3.897-2.568-6.57-2.568H303.778c17.7 0 32.784-6.23 45.255-18.699 12.464-12.468 18.699-27.552 18.699-45.254s-6.235-32.786-18.699-45.254c-12.471-12.465-27.555-18.699-45.255-18.699-20.365 0-36.356 7.327-47.965 21.982l-36.547 47.108-36.54-47.108c-11.613-14.655-27.6-21.982-47.967-21.982-17.703 0-32.789 6.23-45.253 18.699-12.465 12.468-18.7 27.552-18.7 45.254s6.231 32.79 18.7 45.254c12.467 12.465 27.55 18.699 45.253 18.699H9.135c-2.667 0-4.854.856-6.567 2.568C.857 159.593 0 161.783 0 164.446v91.367c0 2.662.854 4.853 2.568 6.563 1.712 1.711 3.903 2.566 6.567 2.566h27.41v118.776c0 7.618 2.665 14.086 7.995 19.41 5.326 5.332 11.798 7.994 19.414 7.994h310.629c7.618 0 14.086-2.662 19.417-7.994 5.325-5.328 7.995-11.799 7.995-19.41V264.942h27.397c2.669 0 4.859-.855 6.57-2.566s2.563-3.901 2.563-6.563v-91.367c.004-2.663-.845-4.853-2.556-6.568zm-151.888-85.08c4.948-5.898 11.512-8.848 19.697-8.848 7.618 0 14.089 2.662 19.418 7.992 5.324 5.327 7.987 11.8 7.987 19.414s-2.67 14.087-7.987 19.414c-5.332 5.33-11.8 7.992-19.418 7.992h-55.391l35.694-45.964zm-149.325 45.965c-7.614 0-14.082-2.663-19.42-7.992-5.327-5.327-7.993-11.8-7.993-19.414s2.663-14.084 7.993-19.414c5.33-5.33 11.803-7.992 19.417-7.992 8.188 0 14.753 2.946 19.702 8.848l35.975 45.965h-55.674zm130.195 91.365V359.733c0 4.76-1.719 8.422-5.141 10.995-3.429 2.57-7.809 3.856-13.131 3.856H191.86c-5.33 0-9.707-1.286-13.134-3.856-3.427-2.573-5.142-6.235-5.142-10.995V155.31h91.367v54.818z"/>
</symbol>
<symbol id="mail" viewBox="0 0 511.626 511.627"><path d="M498.208 68.235c-8.945-8.947-19.701-13.418-32.261-13.418H45.682c-12.562 0-23.318 4.471-32.264 13.418C4.471 77.18 0 87.935 0 100.499v310.633c0 12.566 4.471 23.312 13.418 32.257 8.945 8.953 19.701 13.422 32.264 13.422h420.266c12.56 0 23.315-4.469 32.261-13.422 8.949-8.945 13.418-19.697 13.418-32.257V100.499c-.001-12.564-4.469-23.319-13.419-32.264zm-23.13 342.89c0 2.475-.903 4.616-2.714 6.424-1.81 1.81-3.949 2.706-6.42 2.706H45.679c-2.474 0-4.616-.896-6.423-2.706-1.809-1.808-2.712-3.949-2.712-6.424V191.858a167.121 167.121 0 0 0 19.7 18.843c51.012 39.209 91.553 71.374 121.627 96.5 9.707 8.186 17.607 14.561 23.697 19.13 6.09 4.571 14.322 9.185 24.694 13.846 10.373 4.668 20.129 6.991 29.265 6.991h.571c9.134 0 18.894-2.323 29.263-6.991 10.376-4.661 18.613-9.274 24.701-13.846 6.089-4.569 13.99-10.944 23.698-19.13 30.074-25.126 70.61-57.291 121.624-96.5a166.295 166.295 0 0 0 19.694-18.843v219.267zm0-303.205v3.14c0 11.229-4.421 23.745-13.271 37.543-8.851 13.798-18.419 24.792-28.691 32.974a43121.052 43121.052 0 0 0-114.495 90.506c-1.14.951-4.474 3.757-9.996 8.418-5.514 4.668-9.894 8.241-13.131 10.712-3.241 2.478-7.471 5.475-12.703 8.993-5.236 3.518-10.041 6.14-14.418 7.851-4.377 1.707-8.47 2.562-12.275 2.562h-.571c-3.806 0-7.895-.855-12.275-2.562-4.377-1.711-9.185-4.333-14.417-7.851-5.231-3.519-9.467-6.516-12.703-8.993-3.234-2.471-7.614-6.044-13.132-10.712-5.52-4.661-8.854-7.467-9.995-8.418a42000.437 42000.437 0 0 0-114.487-90.506c-27.981-22.076-41.969-49.106-41.969-81.083 0-2.472.903-4.615 2.712-6.421 1.809-1.809 3.949-2.714 6.423-2.714H465.95c1.52.855 2.854 1.093 3.997.715 1.143-.385 1.998.331 2.566 2.138.571 1.809 1.095 2.664 1.57 2.57.477-.096.764 1.093.859 3.571.089 2.473.137 3.718.137 3.718v3.849h-.001z"/>
</symbol>
<symbol id="mark" viewBox="0 0 438.536 438.536"><path d="M322.621 42.825C294.073 14.272 259.619 0 219.268 0c-40.353 0-74.803 14.275-103.353 42.825-28.549 28.549-42.825 63-42.825 103.353 0 20.749 3.14 37.782 9.419 51.106l104.21 220.986c2.856 6.276 7.283 11.225 13.278 14.838 5.996 3.617 12.419 5.428 19.273 5.428 6.852 0 13.278-1.811 19.273-5.428 5.996-3.613 10.513-8.562 13.559-14.838L356.02 197.284c6.282-13.324 9.424-30.358 9.424-51.106.005-40.353-14.268-74.8-42.823-103.353zm-51.679 155.03c-14.273 14.272-31.497 21.411-51.674 21.411s-37.401-7.139-51.678-21.411c-14.275-14.277-21.414-31.501-21.414-51.678 0-20.175 7.139-37.402 21.414-51.675 14.277-14.275 31.504-21.414 51.678-21.414 20.177 0 37.401 7.139 51.674 21.414 14.274 14.272 21.413 31.5 21.413 51.675 0 20.175-7.138 37.398-21.413 51.678z"/>
</symbol>
<symbol id="medical-car" viewBox="0 0 529.901 529.901"><path d="M524.484 51.108c-3.614-3.617-7.898-5.426-12.847-5.426H182.731c-4.952 0-9.234 1.809-12.85 5.426-3.617 3.616-5.426 7.898-5.426 12.847v91.36h-45.681c-4.952 0-10.472 1.241-16.562 3.715-6.091 2.474-10.944 5.52-14.562 9.135l-56.531 56.527c-3.615 3.617-6.661 8.475-9.135 14.562-2.474 6.095-3.711 11.613-3.711 16.562v118.771c-4.952 0-9.233 1.81-12.85 5.427C1.809 383.628 0 387.912 0 392.86c0 4.949 1.809 9.23 5.424 12.848 3.621 3.617 7.902 5.424 12.85 5.424h36.547c0 20.181 7.134 37.4 21.411 51.678 14.277 14.274 31.499 21.409 51.678 21.409 20.177 0 37.401-7.135 51.678-21.409 14.272-14.277 21.411-31.497 21.411-51.678h109.638c0 20.181 7.139 37.4 21.409 51.678 14.277 14.274 31.497 21.409 51.674 21.409 20.178 0 37.404-7.135 51.675-21.409 14.277-14.277 21.416-31.497 21.416-51.678h54.816c4.948 0 9.233-1.807 12.847-5.424 3.614-3.617 5.428-7.898 5.428-12.848V63.959c-.001-4.952-1.807-9.231-5.418-12.851zM153.748 436.973c-7.142 7.135-15.752 10.704-25.841 10.704-10.088 0-18.702-3.569-25.84-10.704-7.135-7.139-10.707-15.752-10.707-25.841 0-10.085 3.568-18.699 10.707-25.838 7.142-7.135 15.752-10.707 25.84-10.707 10.089 0 18.702 3.572 25.841 10.707 7.135 7.139 10.705 15.753 10.705 25.838-.001 10.089-3.567 18.702-10.705 25.841zm10.708-172.019H54.821v-8.564c.378-1.903 1.237-3.999 2.568-6.28l55.672-55.677c1.521-1.328 3.617-2.19 6.28-2.568h45.114v73.089zm245.105 172.019c-7.138 7.135-15.748 10.704-25.837 10.704s-18.699-3.569-25.837-10.704c-7.139-7.139-10.715-15.752-10.715-25.841 0-10.085 3.576-18.699 10.715-25.838 7.138-7.135 15.748-10.707 25.837-10.707s18.699 3.572 25.837 10.707c7.136 7.139 10.705 15.753 10.705 25.838-.004 10.089-3.567 18.702-10.705 25.841zm47.25-217.702c0 2.668-.855 4.858-2.563 6.567-1.718 1.715-3.907 2.568-6.57 2.568h-63.953v63.951c0 2.67-.855 4.856-2.563 6.571-1.718 1.711-3.901 2.563-6.57 2.563h-54.819c-2.666 0-4.856-.853-6.563-2.563-1.719-1.715-2.57-3.901-2.57-6.571v-63.951h-63.952c-2.667 0-4.854-.854-6.567-2.568-1.711-1.709-2.568-3.899-2.568-6.567v-54.817c0-2.666.854-4.853 2.568-6.565 1.713-1.711 3.9-2.57 6.567-2.57h63.952V91.365c0-2.663.852-4.853 2.57-6.567 1.707-1.709 3.897-2.565 6.563-2.565h54.819c2.669 0 4.853.856 6.57 2.565 1.708 1.715 2.563 3.905 2.563 6.567v63.953h63.953c2.663 0 4.853.859 6.57 2.57 1.708 1.713 2.563 3.899 2.563 6.565v54.818z"/>
</symbol>
<symbol id="medical-doc" viewBox="0 0 438.529 438.529"><path d="M219.265 219.267c30.271 0 56.108-10.71 77.518-32.121 21.412-21.411 32.12-47.248 32.12-77.515 0-30.262-10.708-56.1-32.12-77.516C275.366 10.705 249.528 0 219.265 0S163.16 10.705 141.75 32.115c-21.414 21.416-32.121 47.253-32.121 77.516 0 30.267 10.707 56.104 32.121 77.515 21.416 21.411 47.251 32.121 77.515 32.121z"/><path d="M418.687 327.186c-1.051-11.991-3.327-25.125-6.852-39.402-3.518-14.273-8.042-26.885-13.559-37.828-5.523-10.944-13.23-20.745-23.13-29.409-9.895-8.66-21.32-14.421-34.26-17.273a72.446 72.446 0 0 1 3.717 11.42c.951 3.999 1.622 8.469 1.998 13.415.373 4.948.623 8.897.712 11.854.093 2.95.093 7.515 0 13.702-.089 6.188-.144 10.232-.144 12.135 11.231 6.469 20.129 15.373 26.692 26.693 6.567 11.327 9.856 23.455 9.856 36.405v25.413c6.084 5.516 9.13 12.271 9.13 20.266 0 7.617-2.666 14.086-7.994 19.41-5.328 5.332-11.793 7.994-19.41 7.994-7.618 0-14.089-2.662-19.417-7.994-5.329-5.324-7.988-11.793-7.988-19.41 0-7.994 3.046-14.75 9.131-20.266v-25.413c0-9.897-3.621-18.47-10.852-25.694-7.231-7.241-15.797-10.854-25.693-10.854-9.9 0-18.47 3.613-25.701 10.854-7.23 7.225-10.848 15.797-10.848 25.694v25.413c6.088 5.516 9.134 12.271 9.134 20.266 0 7.617-2.663 14.086-7.994 19.41-5.329 5.332-11.797 7.994-19.418 7.994-7.61 0-14.078-2.662-19.407-7.994-5.328-5.324-7.994-11.793-7.994-19.41 0-7.994 3.046-14.75 9.134-20.266v-25.413c0-20.178 7.139-37.404 21.409-51.675 14.277-14.277 31.498-21.416 51.675-21.416v-18.274c0-11.796-2.375-20.646-7.132-26.551-25.125 19.802-53.201 29.696-84.228 29.696-31.023 0-59.101-9.895-84.223-29.696-4.758 5.905-7.139 14.755-7.139 26.551v57.958c10.85 3.812 19.65 10.472 26.409 19.985 6.761 9.521 10.138 20.081 10.138 31.696 0 15.222-5.327 28.171-15.986 38.827-10.66 10.657-23.604 15.985-38.832 15.985-15.225 0-28.167-5.328-38.828-15.985-10.657-10.656-15.987-23.605-15.987-38.827 0-11.611 3.333-22.176 9.995-31.696 6.661-9.514 15.514-16.173 26.552-19.985v-57.958c0-12.939 2.093-24.36 6.28-34.256-12.944 2.856-24.362 8.614-34.261 17.273-9.897 8.66-17.605 18.461-23.125 29.405-5.52 10.95-10.041 23.562-13.562 37.835-3.521 14.271-5.802 27.404-6.851 39.396-1.047 11.992-1.569 24.462-1.569 37.404 0 23.031 6.949 41.114 20.842 54.241 13.896 13.135 32.36 19.698 55.39 19.698H344.03c23.028 0 41.49-6.563 55.388-19.698 13.901-13.127 20.845-31.21 20.845-54.241.001-12.949-.53-25.412-1.576-37.404z"/><path d="M91.358 347.172c0 4.948 1.809 9.232 5.424 12.847 3.617 3.62 7.895 5.427 12.847 5.427s9.235-1.807 12.851-5.427c3.617-3.614 5.426-7.898 5.426-12.847s-1.809-9.233-5.426-12.848c-3.619-3.613-7.902-5.427-12.851-5.427-4.948 0-9.229 1.813-12.847 5.427-3.615 3.614-5.424 7.899-5.424 12.848z"/>
</symbol>
<symbol id="medical-suite" viewBox="0 0 511.626 511.627"><path d="M18.842 128.478C6.28 141.041 0 156.078 0 173.586v237.54c0 17.512 6.28 32.549 18.842 45.111 12.563 12.562 27.6 18.843 45.111 18.843h9.136V109.632h-9.136c-17.515 0-32.551 6.284-45.111 18.846zM365.446 63.953c0-7.614-2.663-14.084-7.994-19.414-5.325-5.33-11.8-7.993-19.411-7.993H173.589c-7.612 0-14.083 2.663-19.414 7.993-5.33 5.327-7.994 11.799-7.994 19.414v45.679H100.5V475.08h310.625V109.632h-45.679V63.953zm-182.721 9.136h146.179v36.543H182.725V73.089zm182.721 246.676c0 2.67-.855 4.853-2.567 6.571-1.711 1.707-3.9 2.566-6.563 2.566h-63.953v63.953c0 2.662-.862 4.853-2.573 6.563-1.704 1.711-3.895 2.567-6.561 2.567H228.41c-2.667 0-4.854-.856-6.567-2.567-1.711-1.711-2.568-3.901-2.568-6.563v-63.953h-63.953c-2.668 0-4.854-.859-6.567-2.566-1.714-1.719-2.57-3.901-2.57-6.571V264.95c0-2.67.856-4.859 2.57-6.571 1.709-1.709 3.899-2.564 6.562-2.564h63.953V191.86c0-2.666.856-4.853 2.57-6.567 1.713-1.713 3.899-2.568 6.567-2.568h54.818c2.665 0 4.855.855 6.563 2.568 1.711 1.714 2.573 3.901 2.573 6.567v63.954h63.953c2.663 0 4.853.855 6.563 2.564 1.708 1.712 2.563 3.901 2.563 6.571v54.815h.006zM492.785 128.478c-12.563-12.562-27.601-18.846-45.111-18.846h-9.137V475.08h9.137c17.511 0 32.548-6.28 45.111-18.843 12.559-12.562 18.842-27.6 18.842-45.111v-237.54c-.001-17.508-6.284-32.545-18.842-45.108z"/>
</symbol>
<symbol id="phone" viewBox="0 0 401.998 401.998"><path d="M401.129 311.475c-1.137-3.426-8.371-8.473-21.697-15.129-3.61-2.098-8.754-4.949-15.41-8.566a1437.412 1437.412 0 0 1-18.13-9.996 605.612 605.612 0 0 1-15.276-8.846c-.76-.571-3.139-2.234-7.136-5-4.001-2.758-7.375-4.805-10.14-6.14-2.759-1.327-5.473-1.995-8.138-1.995-3.806 0-8.56 2.714-14.268 8.135a139.01 139.01 0 0 0-15.7 17.706c-4.757 6.379-9.802 12.275-15.126 17.7-5.332 5.427-9.713 8.138-13.135 8.138-1.718 0-3.86-.479-6.427-1.424-2.566-.951-4.518-1.766-5.858-2.423-1.328-.671-3.607-1.999-6.845-4.004-3.244-1.999-5.048-3.094-5.428-3.285-26.075-14.469-48.438-31.029-67.093-49.676-18.649-18.658-35.211-41.019-49.676-67.097-.19-.381-1.287-2.19-3.284-5.424-2-3.237-3.333-5.518-3.999-6.854-.666-1.331-1.475-3.283-2.425-5.852s-1.427-4.709-1.427-6.424c0-3.424 2.713-7.804 8.138-13.134 5.424-5.327 11.326-10.373 17.7-15.128a138.95 138.95 0 0 0 17.701-15.699c5.424-5.711 8.136-10.467 8.136-14.273 0-2.663-.666-5.378-1.997-8.137-1.332-2.765-3.378-6.139-6.139-10.138-2.762-3.997-4.427-6.374-4.999-7.139a627.13 627.13 0 0 1-8.848-15.271 1441.4 1441.4 0 0 1-9.995-18.131c-3.615-6.658-6.468-11.799-8.564-15.415C98.986 9.233 93.943 1.997 90.516.859 89.183.288 87.183 0 84.521 0c-5.142 0-11.85.95-20.129 2.856-8.282 1.903-14.799 3.899-19.558 5.996-9.517 3.995-19.604 15.605-30.264 34.826C4.863 61.566.01 79.271.01 96.78c0 5.135.333 10.131.999 14.989.666 4.853 1.856 10.326 3.571 16.418 1.712 6.09 3.093 10.614 4.137 13.56 1.045 2.948 2.996 8.229 5.852 15.845 2.852 7.614 4.567 12.275 5.138 13.988 6.661 18.654 14.56 35.307 23.695 49.964 15.03 24.362 35.541 49.539 61.521 75.521 25.981 25.98 51.153 46.49 75.517 61.526 14.655 9.134 31.314 17.032 49.965 23.698 1.714.568 6.375 2.279 13.986 5.141 7.614 2.854 12.897 4.805 15.845 5.852 2.949 1.048 7.474 2.43 13.559 4.145 6.098 1.715 11.566 2.905 16.419 3.576 4.856.657 9.853.996 14.989.996 17.508 0 35.214-4.856 53.105-14.562 19.219-10.656 30.826-20.745 34.823-30.269 2.102-4.754 4.093-11.273 5.996-19.555 1.909-8.278 2.857-14.985 2.857-20.126.006-2.673-.281-4.668-.855-6.012z"/>
</symbol>
<symbol id="search" viewBox="0 0 475.084 475.084"><path d="M464.524 412.846l-97.929-97.925c23.6-34.068 35.406-72.047 35.406-113.917 0-27.218-5.284-53.249-15.852-78.087-10.561-24.842-24.838-46.254-42.825-64.241-17.987-17.987-39.396-32.264-64.233-42.826C254.246 5.285 228.217.003 200.999.003c-27.216 0-53.247 5.282-78.085 15.847C98.072 26.412 76.66 40.689 58.673 58.676c-17.989 17.987-32.264 39.403-42.827 64.241C5.282 147.758 0 173.786 0 201.004c0 27.216 5.282 53.238 15.846 78.083 10.562 24.838 24.838 46.247 42.827 64.234 17.987 17.993 39.403 32.264 64.241 42.832 24.841 10.563 50.869 15.844 78.085 15.844 41.879 0 79.852-11.807 113.922-35.405l97.929 97.641c6.852 7.231 15.406 10.849 25.693 10.849 9.897 0 18.467-3.617 25.694-10.849 7.23-7.23 10.848-15.796 10.848-25.693.003-10.082-3.518-18.651-10.561-25.694zM291.363 291.358c-25.029 25.033-55.148 37.549-90.364 37.549-35.21 0-65.329-12.519-90.36-37.549-25.031-25.029-37.546-55.144-37.546-90.36 0-35.21 12.518-65.334 37.546-90.36 25.026-25.032 55.15-37.546 90.36-37.546 35.212 0 65.331 12.519 90.364 37.546 25.033 25.026 37.548 55.15 37.548 90.36 0 35.216-12.519 65.331-37.548 90.36z"/>
</symbol>
<symbol id="security" viewBox="0 0 401.998 401.998"><path d="M357.45 190.721c-5.331-5.33-11.8-7.993-19.417-7.993h-9.131v-54.821c0-35.022-12.559-65.093-37.685-90.218C266.093 12.563 236.025 0 200.998 0c-35.026 0-65.1 12.563-90.222 37.688-25.126 25.126-37.685 55.196-37.685 90.219v54.821h-9.135c-7.611 0-14.084 2.663-19.414 7.993-5.33 5.326-7.994 11.799-7.994 19.417V374.59c0 7.611 2.665 14.086 7.994 19.417 5.33 5.325 11.803 7.991 19.414 7.991H338.04c7.617 0 14.085-2.663 19.417-7.991 5.325-5.331 7.994-11.806 7.994-19.417V210.135c.004-7.612-2.669-14.084-8.001-19.414zm-83.363-7.993H127.909v-54.821c0-20.175 7.139-37.402 21.414-51.675 14.277-14.275 31.501-21.411 51.678-21.411 20.179 0 37.399 7.135 51.677 21.411 14.271 14.272 21.409 31.5 21.409 51.675v54.821z"/>
</symbol>
<symbol id="soc-facebook" viewBox="0 0 470.513 470.513"><path d="M271.521 154.17v-40.541c0-6.086.28-10.8.849-14.13.567-3.335 1.857-6.615 3.859-9.853 1.999-3.236 5.236-5.47 9.706-6.708 4.476-1.24 10.424-1.858 17.85-1.858h40.539V0h-64.809c-37.5 0-64.433 8.897-80.803 26.691-16.368 17.798-24.551 44.014-24.551 78.658v48.82h-48.542v81.086h48.539v235.256h97.362V235.256h64.805l8.566-81.086h-73.37z"/>
</symbol>
<symbol id="soc-linkedin" viewBox="0 0 438.536 438.535"><path d="M5.424 145.895H99.64v282.932H5.424zM408.842 171.739c-19.791-21.604-45.967-32.408-78.512-32.408-11.991 0-22.891 1.475-32.695 4.427-9.801 2.95-18.079 7.089-24.838 12.419-6.755 5.33-12.135 10.278-16.129 14.844-3.798 4.337-7.512 9.389-11.136 15.104v-40.232h-93.935l.288 13.706c.193 9.139.288 37.307.288 84.508 0 47.205-.19 108.777-.572 184.722h93.931V270.942c0-9.705 1.041-17.412 3.139-23.127 4-9.712 10.037-17.843 18.131-24.407 8.093-6.572 18.13-9.855 30.125-9.855 16.364 0 28.407 5.662 36.117 16.987 7.707 11.324 11.561 26.98 11.561 46.966V428.82h93.931V266.664c-.007-41.688-9.897-73.328-29.694-94.925zM53.103 9.708c-15.796 0-28.595 4.619-38.4 13.848C4.899 32.787 0 44.441 0 58.529 0 72.42 4.758 84.034 14.275 93.358c9.514 9.325 22.078 13.99 37.685 13.99h.571c15.99 0 28.887-4.661 38.688-13.99 9.801-9.324 14.606-20.934 14.417-34.829-.19-14.087-5.047-25.742-14.561-34.973C81.562 14.323 68.9 9.708 53.103 9.708z"/>
</symbol>
<symbol id="soc-pinterest" viewBox="0 0 438.529 438.529"><path d="M409.141 109.203c-19.608-33.592-46.205-60.189-79.798-79.796C295.751 9.801 259.065 0 219.281 0 179.5 0 142.812 9.801 109.22 29.407c-33.597 19.604-60.194 46.201-79.8 79.796C9.809 142.8.008 179.485.008 219.267c0 44.35 12.085 84.611 36.258 120.767 24.172 36.172 55.863 62.912 95.073 80.232-.762-20.365.476-37.209 3.709-50.532l28.267-119.348c-4.76-9.329-7.139-20.93-7.139-34.831 0-16.175 4.089-29.689 12.275-40.541 8.186-10.85 18.177-16.274 29.979-16.274 9.514 0 16.841 3.14 21.982 9.42 5.142 6.283 7.705 14.181 7.705 23.7 0 5.896-1.099 13.084-3.289 21.554-2.188 8.471-5.041 18.273-8.562 29.409-3.521 11.132-6.045 20.036-7.566 26.692-2.663 11.608-.476 21.553 6.567 29.838 7.042 8.278 16.372 12.423 27.983 12.423 20.365 0 37.065-11.324 50.107-33.972 13.038-22.655 19.554-50.159 19.554-82.514 0-24.938-8.042-45.21-24.129-60.813-16.085-15.609-38.496-23.417-67.239-23.417-32.161 0-58.192 10.327-78.082 30.978-19.891 20.654-29.836 45.352-29.836 74.091 0 17.132 4.854 31.505 14.56 43.112 3.235 3.806 4.283 7.898 3.14 12.279-.381 1.143-1.141 3.997-2.284 8.562-1.138 4.565-1.903 7.522-2.281 8.851-1.521 6.091-5.14 7.994-10.85 5.708-14.654-6.085-25.791-16.652-33.402-31.689-7.614-15.037-11.422-32.456-11.422-52.246 0-12.753 2.047-25.505 6.14-38.256 4.089-12.756 10.468-25.078 19.126-36.975 8.663-11.9 19.036-22.417 31.123-31.549 12.082-9.135 26.787-16.462 44.108-21.982s35.972-8.28 55.959-8.28c27.032 0 51.295 5.995 72.8 17.986 21.512 11.992 37.925 27.502 49.252 46.537 11.327 19.036 16.987 39.403 16.987 61.101 0 28.549-4.948 54.243-14.842 77.086-9.896 22.839-23.887 40.778-41.973 53.813-18.083 13.042-38.637 19.561-61.675 19.561-11.607 0-22.456-2.714-32.548-8.135-10.085-5.427-17.034-11.847-20.839-19.273-8.566 33.685-13.706 53.77-15.42 60.24-3.616 13.508-11.038 29.119-22.27 46.819 20.367 6.091 41.112 9.13 62.24 9.13 39.781 0 76.47-9.801 110.062-29.41 33.595-19.602 60.192-46.199 79.794-79.791 19.606-33.599 29.407-70.287 29.407-110.065.01-39.778-9.777-76.468-29.376-110.06z"/>
</symbol>
<symbol id="soc-twitter" viewBox="0 0 449.956 449.956"><path d="M449.956 85.657c-17.702 7.614-35.408 12.369-53.102 14.279 19.985-11.991 33.503-28.931 40.546-50.819-18.281 10.847-37.787 18.268-58.532 22.267-18.274-19.414-40.73-29.125-67.383-29.125-25.502 0-47.246 8.992-65.24 26.98-17.984 17.987-26.977 39.731-26.977 65.235 0 6.851.76 13.896 2.284 21.128-37.688-1.903-73.042-11.372-106.068-28.407C82.46 110.158 54.433 87.46 31.403 59.101c-8.375 14.272-12.564 29.787-12.564 46.536 0 15.798 3.711 30.456 11.138 43.97 7.422 13.512 17.417 24.455 29.98 32.831-14.849-.572-28.743-4.475-41.684-11.708v1.142c0 22.271 6.995 41.824 20.983 58.674 13.99 16.848 31.645 27.453 52.961 31.833a95.543 95.543 0 0 1-24.269 3.138c-5.33 0-11.136-.475-17.416-1.42 5.9 18.459 16.75 33.633 32.546 45.535 15.799 11.896 33.691 18.028 53.677 18.418-33.498 26.262-71.66 39.393-114.486 39.393-8.186 0-15.607-.373-22.27-1.139 42.827 27.596 90.03 41.394 141.612 41.394 32.738 0 63.478-5.181 92.21-15.557 28.746-10.369 53.297-24.267 73.665-41.686 20.362-17.415 37.925-37.448 52.674-60.097 14.75-22.651 25.738-46.298 32.977-70.946 7.23-24.653 10.848-49.344 10.848-74.092 0-5.33-.096-9.325-.287-11.991 18.087-13.127 33.504-29.023 46.258-47.672z"/>
</symbol>
<symbol id="soc-youtube" viewBox="0 0 511.627 511.627"><path d="M459.954 264.376c-2.471-11.233-7.949-20.653-16.416-28.264-8.474-7.611-18.227-12.085-29.27-13.418-35.02-3.806-87.837-5.708-158.457-5.708-70.618 0-123.341 1.903-158.174 5.708-11.227 1.333-21.029 5.807-29.407 13.418-8.376 7.614-13.896 17.035-16.562 28.264-4.948 22.083-7.423 55.391-7.423 99.931 0 45.299 2.475 78.61 7.423 99.93 2.478 11.225 7.951 20.653 16.421 28.261 8.47 7.614 18.225 11.991 29.263 13.134 35.026 3.997 87.847 5.996 158.461 5.996 70.609 0 123.44-1.999 158.453-5.996 11.043-1.143 20.748-5.52 29.126-13.134 8.377-7.607 13.897-17.036 16.56-28.261 4.948-22.083 7.426-55.391 7.426-99.93-.001-45.3-2.479-78.612-7.424-99.931zm-294.929 28.842h-30.549v162.45h-28.549v-162.45h-29.98v-26.837h89.079v26.837zm77.085 162.45H216.7v-15.421c-10.278 11.615-19.989 17.419-29.125 17.419-8.754 0-14.275-3.524-16.556-10.564-1.521-4.568-2.286-11.519-2.286-20.844V314.627h25.41v103.924c0 6.088.096 9.421.288 9.993.571 3.997 2.568 5.995 5.996 5.995 5.138 0 10.566-3.997 16.274-11.991V314.627h25.41v141.041zm97.073-42.257c0 13.894-.855 23.417-2.56 28.558-3.244 10.462-9.996 15.697-20.273 15.697-9.137 0-17.986-5.235-26.556-15.697v13.702h-25.406v-189.29h25.406v61.955c8.189-10.273 17.036-15.413 26.556-15.413 10.277 0 17.029 5.331 20.273 15.988 1.704 4.948 2.56 14.369 2.56 28.264v56.236zm96.502-23.408h-51.104v24.839c0 13.134 4.374 19.697 13.131 19.697 6.279 0 10.089-3.422 11.42-10.28.376-1.902.571-7.706.571-17.412h25.981v3.71c0 9.329-.195 14.846-.572 16.563-.567 5.133-2.56 10.273-5.995 15.413-6.852 10.089-17.139 15.133-30.841 15.133-13.127 0-23.407-4.855-30.833-14.558-5.517-7.043-8.275-18.083-8.275-33.12v-49.396c0-15.036 2.662-26.076 7.987-33.119 7.427-9.705 17.61-14.558 30.557-14.558 12.755 0 22.85 4.853 30.263 14.558 5.146 7.043 7.71 18.083 7.71 33.119v29.411z"/><path d="M302.634 336.043c-4.38 0-8.658 2.101-12.847 6.283v85.934c4.188 4.186 8.467 6.279 12.847 6.279 7.419 0 11.14-6.372 11.14-19.13v-60.236c-.001-12.755-3.713-19.13-11.14-19.13zM397.428 336.043c-8.565 0-12.847 6.475-12.847 19.41v13.134h25.693v-13.134c0-12.942-4.284-19.41-12.846-19.41zM148.473 113.917v77.375h28.549v-77.375L211.563 0h-29.121l-19.41 75.089L142.759 0h-30.262c5.33 15.99 11.516 33.785 18.559 53.391 8.947 26.265 14.749 46.444 17.417 60.526zM249.82 193.291c13.134 0 23.219-4.854 30.262-14.561 5.332-7.043 7.994-18.274 7.994-33.689V95.075c0-15.225-2.669-26.363-7.994-33.406-7.043-9.707-17.128-14.561-30.262-14.561-12.756 0-22.75 4.854-29.98 14.561-5.327 7.043-7.992 18.181-7.992 33.406v49.965c0 15.225 2.662 26.457 7.992 33.689 7.233 9.708 17.223 14.562 29.98 14.562zM237.541 89.935c0-13.134 4.093-19.701 12.279-19.701s12.275 6.567 12.275 19.701v59.955c0 13.328-4.089 19.985-12.275 19.985s-12.279-6.661-12.279-19.985V89.935zM328.328 193.291c9.523 0 19.328-5.901 29.413-17.705v15.703h25.981V48.822h-25.981v108.777c-5.712 8.186-11.133 12.275-16.279 12.275-3.429 0-5.428-2.093-5.996-6.28-.191-.381-.287-3.715-.287-9.994V48.822h-25.981v112.492c0 9.705.767 16.84 2.286 21.411 2.477 7.043 8.09 10.566 16.844 10.566z"/>
</symbol>
<symbol id="star-empty" viewBox="0 0 475.075 475.075"><path d="M475.075 186.573c0-7.043-5.328-11.42-15.992-13.135L315.766 152.6 251.529 22.694c-3.614-7.804-8.281-11.704-13.99-11.704-5.708 0-10.372 3.9-13.989 11.704L159.31 152.6 15.986 173.438C5.33 175.153 0 179.53 0 186.573c0 3.999 2.38 8.567 7.139 13.706l103.924 101.068L86.51 444.096c-.381 2.666-.57 4.575-.57 5.712 0 3.997.998 7.374 2.996 10.136 1.997 2.766 4.993 4.142 8.992 4.142 3.428 0 7.233-1.137 11.42-3.423l128.188-67.386 128.194 67.379c4 2.286 7.806 3.43 11.416 3.43 7.812 0 11.714-4.75 11.714-14.271 0-2.471-.096-4.374-.287-5.716l-24.551-142.744 103.634-101.069c4.948-4.956 7.419-9.526 7.419-13.713zM324.619 288.5l20.551 120.2-107.634-56.821L129.614 408.7l20.843-120.2-87.365-84.799 120.484-17.7 53.959-109.064 53.957 109.064 120.494 17.7-87.367 84.799z"/>
</symbol>
<symbol id="star-full" viewBox="0 0 475.075 475.075"><path d="M475.075 186.573c0-7.043-5.328-11.42-15.992-13.135L315.766 152.6 251.529 22.694c-3.614-7.804-8.281-11.704-13.99-11.704-5.708 0-10.372 3.9-13.989 11.704L159.31 152.6 15.986 173.438C5.33 175.153 0 179.53 0 186.573c0 3.999 2.38 8.567 7.139 13.706l103.924 101.068L86.51 444.096c-.381 2.666-.57 4.575-.57 5.712 0 3.997.998 7.374 2.996 10.136 1.997 2.766 4.993 4.142 8.992 4.142 3.428 0 7.233-1.137 11.42-3.423l128.188-67.386 128.197 67.386c4.004 2.286 7.81 3.423 11.416 3.423 3.819 0 6.715-1.376 8.713-4.142 1.992-2.758 2.991-6.139 2.991-10.136 0-2.471-.096-4.374-.287-5.712l-24.555-142.749 103.637-101.068c4.956-4.949 7.427-9.519 7.427-13.706z"/>
</symbol>
<symbol id="star-half" viewBox="0 0 475.044 475.044"><path d="M474.487 183.276c-1.711-5.236-6.852-8.52-15.41-9.851l-143.323-20.839L251.52 22.681c-4-7.804-8.661-11.704-13.989-11.704-5.519 0-10.183 3.9-13.988 11.704l-64.241 129.905-143.324 20.839c-8.564 1.332-13.704 4.615-15.415 9.851-1.709 5.236.478 10.898 6.567 16.989l103.924 101.068-24.553 142.749c-.95 6.286-.381 11.173 1.715 14.702 2.092 3.524 5.33 5.283 9.707 5.283 3.237 0 7.043-1.14 11.42-3.433l128.194-67.382 128.19 67.382c4.377 2.286 8.186 3.433 11.423 3.433 4.381 0 7.622-1.759 9.709-5.283 2.088-3.529 2.659-8.416 1.708-14.702l-24.551-142.749 103.63-101.068c6.284-6.091 8.566-11.753 6.841-16.989zm-135.89 91.789l-13.99 13.421 3.43 18.843 17.128 101.357-90.786-47.965-16.848-8.856V76.927l45.395 91.933 8.559 17.128 18.85 2.856 101.642 14.844-73.38 71.377z"/>
</symbol>
<symbol id="suitcase" viewBox="0 0 511.626 511.627"><path d="M319.77 338.039c0 4.949-1.811 9.236-5.424 12.847-3.617 3.621-7.902 5.428-12.851 5.428h-91.361c-4.952 0-9.233-1.807-12.85-5.428-3.616-3.61-5.424-7.897-5.424-12.847V292.36H0v137.044c0 12.56 4.471 23.312 13.418 32.257 8.945 8.946 19.701 13.419 32.264 13.419h420.266c12.56 0 23.315-4.473 32.261-13.419 8.949-8.945 13.418-19.697 13.418-32.257V292.36H319.77v45.679z"/><path d="M219.266 292.36h73.096v36.545h-73.096zM498.208 123.054c-8.945-8.947-19.701-13.418-32.261-13.418H365.446V63.953c0-7.614-2.663-14.084-7.994-19.414-5.325-5.327-11.8-7.993-19.411-7.993H173.589c-7.612 0-14.083 2.666-19.414 7.993s-7.994 11.799-7.994 19.414v45.683H45.682c-12.562 0-23.318 4.471-32.264 13.418C4.471 132 0 142.75 0 155.313v109.636h511.626V155.313c0-12.563-4.468-23.313-13.418-32.259zm-169.304-13.418H182.725V73.089h146.179v36.547z"/>
</symbol>
<symbol id="trash" viewBox="0 0 438.529 438.529"><path d="M417.689 75.654c-1.711-1.709-3.901-2.568-6.563-2.568h-88.224L302.917 25.41c-2.854-7.044-7.994-13.04-15.413-17.989C280.078 2.473 272.556 0 264.945 0h-91.363c-7.611 0-15.131 2.473-22.554 7.421-7.424 4.949-12.563 10.944-15.419 17.989l-19.985 47.676h-88.22c-2.667 0-4.853.859-6.567 2.568-1.709 1.713-2.568 3.903-2.568 6.567v18.274c0 2.664.855 4.854 2.568 6.564 1.714 1.712 3.904 2.568 6.567 2.568H54.81v271.8c0 15.803 4.473 29.266 13.418 40.398 8.947 11.139 19.701 16.703 32.264 16.703h237.542c12.566 0 23.319-5.756 32.265-17.268 8.945-11.52 13.415-25.174 13.415-40.971V109.627h27.411c2.662 0 4.853-.856 6.563-2.568 1.708-1.709 2.57-3.9 2.57-6.564V82.221c.002-2.664-.861-4.854-2.569-6.567zM169.301 39.678c1.331-1.712 2.95-2.762 4.853-3.14h90.504c1.903.381 3.525 1.43 4.854 3.14l13.709 33.404h-127.91l13.99-33.404zm177.872 340.613c0 4.186-.664 8.042-1.999 11.561-1.334 3.518-2.717 6.088-4.141 7.706-1.431 1.622-2.423 2.427-2.998 2.427H100.493c-.571 0-1.565-.805-2.996-2.427-1.429-1.618-2.81-4.188-4.143-7.706-1.331-3.519-1.997-7.379-1.997-11.561V109.627h255.815v270.664z"/><path d="M137.04 347.172h18.271c2.667 0 4.858-.855 6.567-2.567 1.709-1.718 2.568-3.901 2.568-6.57V173.581c0-2.663-.859-4.853-2.568-6.567-1.714-1.709-3.899-2.565-6.567-2.565H137.04c-2.667 0-4.854.855-6.567 2.565-1.711 1.714-2.568 3.904-2.568 6.567v164.454c0 2.669.854 4.853 2.568 6.57 1.713 1.711 3.9 2.567 6.567 2.567zM210.129 347.172H228.4c2.666 0 4.856-.855 6.564-2.567 1.718-1.718 2.569-3.901 2.569-6.57V173.581c0-2.663-.852-4.853-2.569-6.567-1.708-1.709-3.898-2.565-6.564-2.565h-18.271c-2.664 0-4.854.855-6.567 2.565-1.714 1.714-2.568 3.904-2.568 6.567v164.454c0 2.669.854 4.853 2.568 6.57 1.712 1.711 3.903 2.567 6.567 2.567zM283.22 347.172h18.268c2.669 0 4.859-.855 6.57-2.567 1.711-1.718 2.562-3.901 2.562-6.57V173.581c0-2.663-.852-4.853-2.562-6.567-1.711-1.709-3.901-2.565-6.57-2.565H283.22c-2.67 0-4.853.855-6.571 2.565-1.711 1.714-2.566 3.904-2.566 6.567v164.454c0 2.669.855 4.853 2.566 6.57 1.718 1.711 3.901 2.567 6.571 2.567z"/>
</symbol>
<symbol id="user" viewBox="0 0 438.529 438.529"><path d="M219.265 219.267c30.271 0 56.108-10.71 77.518-32.121 21.412-21.411 32.12-47.248 32.12-77.515 0-30.262-10.708-56.1-32.12-77.516C275.366 10.705 249.528 0 219.265 0S163.16 10.705 141.75 32.115c-21.414 21.416-32.121 47.253-32.121 77.516 0 30.267 10.707 56.104 32.121 77.515 21.416 21.411 47.251 32.121 77.515 32.121z"/><path d="M419.258 335.036c-.668-9.609-2.002-19.985-3.997-31.121-1.999-11.136-4.524-21.457-7.57-30.978-3.046-9.514-7.139-18.794-12.278-27.836-5.137-9.041-11.037-16.748-17.703-23.127-6.666-6.377-14.801-11.465-24.406-15.271-9.617-3.805-20.229-5.711-31.84-5.711-1.711 0-5.709 2.046-11.991 6.139a2716.072 2716.072 0 0 1-21.266 13.708c-7.898 5.037-18.182 9.609-30.834 13.695-12.658 4.093-25.361 6.14-38.118 6.14-12.752 0-25.456-2.047-38.112-6.14-12.655-4.086-22.936-8.658-30.835-13.695a2784.143 2784.143 0 0 1-21.267-13.708c-6.283-4.093-10.278-6.139-11.991-6.139-11.61 0-22.222 1.906-31.833 5.711-9.613 3.806-17.749 8.898-24.412 15.271-6.661 6.379-12.562 14.086-17.699 23.127-5.137 9.042-9.229 18.326-12.275 27.836-3.045 9.521-5.568 19.842-7.566 30.978-2 11.136-3.332 21.505-3.999 31.121a427.742 427.742 0 0 0-.998 29.554c0 22.836 6.949 40.875 20.842 54.104 13.896 13.224 32.36 19.835 55.39 19.835h249.533c23.028 0 41.49-6.611 55.388-19.835 13.901-13.229 20.845-31.265 20.845-54.104-.002-10.088-.334-19.938-1.008-29.554z"/>
</symbol>
<symbol id="video-play" viewBox="0 0 438.533 438.533"><path d="M409.133 109.203c-19.608-33.592-46.205-60.189-79.798-79.796C295.736 9.801 259.058 0 219.273 0c-39.781 0-76.47 9.801-110.063 29.407-33.595 19.604-60.192 46.201-79.8 79.796C9.801 142.8 0 179.489 0 219.267c0 39.78 9.804 76.463 29.407 110.062 19.607 33.592 46.204 60.189 79.799 79.798 33.597 19.605 70.283 29.407 110.063 29.407s76.47-9.802 110.065-29.407c33.593-19.602 60.189-46.206 79.795-79.798 19.603-33.596 29.403-70.284 29.403-110.062.001-39.782-9.8-76.472-29.399-110.064zm-55.391 188.005c-13.894 23.791-32.736 42.64-56.527 56.534-23.791 13.894-49.771 20.834-77.945 20.834-28.167 0-54.149-6.94-77.943-20.834-23.791-13.895-42.633-32.743-56.527-56.534-13.897-23.791-20.843-49.772-20.843-77.941 0-28.171 6.949-54.152 20.843-77.943 13.891-23.791 32.738-42.637 56.527-56.53 23.791-13.895 49.772-20.84 77.943-20.84 28.173 0 54.154 6.945 77.945 20.84 23.791 13.894 42.634 32.739 56.527 56.53 13.895 23.791 20.838 49.772 20.838 77.943 0 28.169-6.943 54.15-20.838 77.941z"/><path d="M328.911 203.561l-155.32-91.36c-5.896-3.617-11.991-3.711-18.271-.284-6.09 3.615-9.136 8.942-9.136 15.984v182.725c0 7.04 3.046 12.371 9.136 15.985 3.046 1.522 6.09 2.286 9.135 2.286 3.234 0 6.283-.856 9.136-2.567l155.32-91.361c6.088-3.426 9.134-8.661 9.134-15.699 0-7.04-3.053-12.282-9.134-15.709z"/>
</symbol></svg>