<svg width="1697" height="927" viewBox="0 0 1697 927" xmlns="http://www.w3.org/2000/svg" xmlns:xlink="http://www.w3.org/1999/xlink"><defs><linearGradient x1="87.52%" y1="-12.292%" x2="25.02%" y2="87.868%" id="b"><stop stop-color="#FF9E9E" offset="0%"/><stop stop-color="#F67C7C" offset="47.601%"/><stop stop-color="#ED5656" offset="100%"/></linearGradient><path d="M355.872 680.558C101.734 515.073-377.082-59.831 528.858 5.69c905.94 65.521 1432.007 612.983 1031.196 857.198-265.62 161.843-950.044-16.846-1204.182-182.331z" id="a"/><path d="M1146.711 434.19l1.086 3.284c1.873 5.663 7.982 8.736 13.645 6.863a10.8 10.8 0 0 0 4.35-2.722l5.409-5.559a9.46 9.46 0 0 0-6.78-16.056h-7.456c-5.964 0-10.8 4.835-10.8 10.8a10.8 10.8 0 0 0 .546 3.39z" id="e"/><filter x="-85.7%" y="-52%" width="271.4%" height="308%" filterUnits="objectBoundingBox" id="d"><feOffset dy="15" in="SourceAlpha" result="shadowOffsetOuter1"/><feGaussianBlur stdDeviation="5.5" in="shadowOffsetOuter1" result="shadowBlurOuter1"/><feColorMatrix values="0 0 0 0 0 0 0 0 0 0 0 0 0 0 0 0 0 0 0.5 0" in="shadowBlurOuter1"/></filter><path d="M378.57 14.158l22.38 68.424c1.855 5.67 7.954 8.762 13.623 6.907a10.8 10.8 0 0 0 4.424-2.775l65.855-68.425c4.136-4.297 4.005-11.134-.292-15.27A10.8 10.8 0 0 0 477.07 0h-88.236c-5.965 0-10.8 4.835-10.8 10.8 0 1.14.18 2.274.535 3.358z" id="g"/><filter x="-21.8%" y="-14.4%" width="143.6%" height="157.8%" filterUnits="objectBoundingBox" id="f"><feOffset dy="15" in="SourceAlpha" result="shadowOffsetOuter1"/><feGaussianBlur stdDeviation="5.5" in="shadowOffsetOuter1" result="shadowBlurOuter1"/><feColorMatrix values="0 0 0 0 0 0 0 0 0 0 0 0 0 0 0 0 0 0 0.5 0" in="shadowBlurOuter1"/></filter><path d="M20.545 490.14l86.325 265.386c1.845 5.672 7.939 8.775 13.611 6.93a10.8 10.8 0 0 0 4.461-2.803l254.006-265.385c4.124-4.31 3.974-11.146-.335-15.27a10.8 10.8 0 0 0-7.468-2.998H30.815c-5.965 0-10.8 4.835-10.8 10.8a10.8 10.8 0 0 0 .53 3.34z" id="i"/><filter x="-6.6%" y="-4.5%" width="113.3%" height="118.1%" filterUnits="objectBoundingBox" id="h"><feOffset dy="15" in="SourceAlpha" result="shadowOffsetOuter1"/><feGaussianBlur stdDeviation="5.5" in="shadowOffsetOuter1" result="shadowBlurOuter1"/><feColorMatrix values="0 0 0 0 0 0 0 0 0 0 0 0 0 0 0 0 0 0 0.5 0" in="shadowBlurOuter1"/></filter><ellipse id="k" cx="18.002" cy="138" rx="18.002" ry="18"/><filter x="-66.7%" y="-36.1%" width="233.3%" height="244.4%" filterUnits="objectBoundingBox" id="j"><feOffset dy="15" in="SourceAlpha" result="shadowOffsetOuter1"/><feGaussianBlur stdDeviation="5.5" in="shadowOffsetOuter1" result="shadowBlurOuter1"/><feColorMatrix values="0 0 0 0 0 0 0 0 0 0 0 0 0 0 0 0 0 0 0.5 0" in="shadowBlurOuter1"/></filter><ellipse id="m" cx="1288" cy="807.5" rx="219" ry="219.5"/><filter x="-5.5%" y="-3%" width="111%" height="111.8%" filterUnits="objectBoundingBox" id="l"><feOffset dy="15" in="SourceAlpha" result="shadowOffsetOuter1"/><feGaussianBlur stdDeviation="5.5" in="shadowOffsetOuter1" result="shadowBlurOuter1"/><feColorMatrix values="0 0 0 0 0 0 0 0 0 0 0 0 0 0 0 0 0 0 0.5 0" in="shadowBlurOuter1"/></filter></defs><g fill="none" fill-rule="evenodd"><mask id="c" fill="#fff"><use xlink:href="#a"/></mask><use fill="url(#b)" xlink:href="#a"/><g mask="url(#c)" opacity=".368"><g style="mix-blend-mode:soft-light" transform="translate(122 19)"><use fill="#000" filter="url(#d)" xlink:href="#e"/><use fill="#FFF" xlink:href="#e"/></g><g style="mix-blend-mode:soft-light" transform="translate(122 19)"><use fill="#000" filter="url(#f)" xlink:href="#g"/><use fill="#FFF" xlink:href="#g"/></g><g style="mix-blend-mode:soft-light" transform="translate(122 19)"><use fill="#000" filter="url(#h)" xlink:href="#i"/><use fill="#FFF" xlink:href="#i"/></g><g style="mix-blend-mode:soft-light" transform="translate(122 19)"><use fill="#000" filter="url(#j)" xlink:href="#k"/><use fill="#FFF" xlink:href="#k"/></g><g style="mix-blend-mode:soft-light" transform="translate(122 19)"><use fill="#000" filter="url(#l)" xlink:href="#m"/><use fill="#FFF" xlink:href="#m"/></g></g></g></svg>