<svg width="1980" height="665" viewBox="0 0 1980 665" xmlns="http://www.w3.org/2000/svg" xmlns:xlink="http://www.w3.org/1999/xlink"><defs><linearGradient x1="87.52%" y1="-12.292%" x2="25.02%" y2="87.868%" id="b"><stop stop-color="#FF9E9E" offset="0%"/><stop stop-color="#F67C7C" offset="47.601%"/><stop stop-color="#ED5656" offset="100%"/></linearGradient><path d="M0 664.21h1980V0C997.227 331.98 337.227 346.378 0 43.195v621.016z" id="a"/><filter x="-1.1%" y="-1.2%" width="102.3%" height="104.5%" filterUnits="objectBoundingBox" id="d"><feOffset dy="17" in="SourceAlpha" result="shadowOffsetOuter1"/><feGaussianBlur stdDeviation="6" in="shadowOffsetOuter1" result="shadowBlurOuter1"/><feColorMatrix values="0 0 0 0 0 0 0 0 0 0 0 0 0 0 0 0 0 0 0.5 0" in="shadowBlurOuter1" result="shadowMatrixOuter1"/><feMerge><feMergeNode in="shadowMatrixOuter1"/><feMergeNode in="SourceGraphic"/></feMerge></filter></defs><g fill="none" fill-rule="evenodd"><mask id="c" fill="#fff"><use xlink:href="#a"/></mask><use fill="url(#b)" xlink:href="#a"/><g mask="url(#c)" opacity=".175"><g filter="url(#d)" style="mix-blend-mode:soft-light" transform="translate(-276.277 -225)" fill="#FFF"><path d="M1741.405 513.793l-2.805 2.815c-4.678 4.695-4.664 12.293.03 16.97a12 12 0 0 0 4.984 2.983l8.258 2.507c5.58 1.693 11.475-1.456 13.17-7.036a10.558 10.558 0 0 0-.696-7.86l-3.749-7.357c-3.009-5.905-10.235-8.252-16.14-5.244a12 12 0 0 0-3.052 2.222zm482.925-29.125l-19.23 77.602c-1.594 6.433 2.329 12.94 8.762 14.534a12 12 0 0 0 5.82-.012l102.194-25.759c6.427-1.62 10.323-8.143 8.703-14.57a12 12 0 0 0-5.277-7.243l-82.965-51.842c-5.62-3.512-13.024-1.803-16.536 3.818a12 12 0 0 0-1.47 3.472zM490.487 444.412l-287.584-116.17c-6.145-2.481-13.139.488-15.621 6.633a12 12 0 0 0-.802 5.807l44.65 405.687c.725 6.588 6.653 11.34 13.241 10.615a12 12 0 0 0 7.88-4.214l242.934-289.518c4.26-5.077 3.598-12.646-1.479-16.906a12 12 0 0 0-3.219-1.934z" style="mix-blend-mode:soft-light"/><ellipse style="mix-blend-mode:soft-light" cx="1924.638" cy="269" rx="17.5" ry="18"/><ellipse style="mix-blend-mode:soft-light" cx="1892.638" cy="1079" rx="243.5" ry="244"/></g></g></g></svg>