<svg width="1980" height="880" viewBox="0 0 1980 880" xmlns="http://www.w3.org/2000/svg" xmlns:xlink="http://www.w3.org/1999/xlink"><defs><linearGradient x1="87.52%" y1="-12.292%" x2="25.02%" y2="87.868%" id="b"><stop stop-color="#FF9E9E" offset="0%"/><stop stop-color="#F67C7C" offset="47.601%"/><stop stop-color="#ED5656" offset="100%"/></linearGradient><path d="M0 0h1979.002l.998 619.829C997.722 951.679 338.055 966.07.998 663.007L0 0z" id="a"/><filter x="-1.4%" y="-1.1%" width="102.7%" height="104.1%" filterUnits="objectBoundingBox" id="d"><feOffset dy="17" in="SourceAlpha" result="shadowOffsetOuter1"/><feGaussianBlur stdDeviation="6" in="shadowOffsetOuter1" result="shadowBlurOuter1"/><feColorMatrix values="0 0 0 0 0 0 0 0 0 0 0 0 0 0 0 0 0 0 0.5 0" in="shadowBlurOuter1" result="shadowMatrixOuter1"/><feMerge><feMergeNode in="shadowMatrixOuter1"/><feMergeNode in="SourceGraphic"/></feMerge></filter></defs><g fill="none" fill-rule="evenodd"><mask id="c" fill="#fff"><use xlink:href="#a"/></mask><use fill="url(#b)" xlink:href="#a"/><g mask="url(#c)" opacity=".175"><g filter="url(#d)" style="mix-blend-mode:soft-light" fill="#FFF" transform="translate(3 -60)"><path d="M699.453 592.824C653.249 285.652 406.583 42.747 96.435.424 68.642-3.359 44 18.656 44 46.531v75.882c0 320.652 283.594 573.535 602.947 528.343 2.815-.387 5.647-.774 8.462-1.144 27.988-3.66 48.222-29.036 44.044-56.788"/><path d="M682.624 588.758c-168.568-164.041-439.792-192.946-662.47-69.766-19.95 11.042-26.221 36.22-13.677 53.133l34.142 45.995c144.258 194.405 442.006 141.219 633.589 30.962 2.02-1.16 3.366-3.182 5.05-4.765 16.725-15.63 18.585-40.738 3.366-55.56" fill-opacity=".5"/><path d="M1337.907 1411h61.301c28.014 0 50.17-24.572 46.366-52.29-41.782-303.93-278.122-546.651-579.144-598.976-28.28-4.928-54.47 15.528-58.187 43.934-.354 2.791-.743 5.6-1.115 8.391C762.356 1129.575 1016.693 1411 1337.907 1411M617.34 764.975C499.475 789.192 388.402 843.943 297 923.878l80.212 80.235 63.991 64.026L531.057 1158c85.192-97.464 141.722-217.315 163.187-343.87l.106-.616c5.313-31.485-22.767-58.218-54.243-52.816a710.161 710.161 0 0 0-22.767 4.277"/><path d="M870.808 768.754c183.225 148.482 241.668 412.767 141.91 645.566-8.929 20.873-33.561 29.78-51.916 19.221l-49.977-28.691c-211.112-121.267-189.912-420.533-99.776-621.302.943-2.091 2.846-3.637 4.251-5.482 13.908-18.185 38.932-22.718 55.508-9.312" opacity=".5"/><path d="M946.957 648.036l32.186-8.619c98.099-26.28 130.94-148.908 59.14-220.71h-.019c-71.783-71.786-194.388-38.943-220.686 59.14l-8.619 32.204c-22.45 83.773 54.21 160.453 137.998 137.985"/><path d="M1498.452 342.304l-6.947 6.993c-4.67 4.702-4.645 12.3.057 16.97a12 12 0 0 0 4.941 2.96l12.455 3.817c6.337 1.941 13.047-1.622 14.989-7.959a12 12 0 0 0-.782-8.963l-5.507-10.81c-3.009-5.904-10.235-8.252-16.14-5.243a12 12 0 0 0-3.066 2.235zM968.005 20.768l-23.931 93.325c-1.646 6.42 2.224 12.958 8.643 14.604a12 12 0 0 0 6.075-.03l121.424-32.404c6.404-1.709 10.21-8.285 8.5-14.688a12 12 0 0 0-5.235-7.083l-97.493-60.92c-5.62-3.512-13.024-1.803-16.536 3.817a12 12 0 0 0-1.447 3.379z" style="mix-blend-mode:soft-light"/><circle style="mix-blend-mode:soft-light" cx="1705" cy="71" r="21"/><ellipse style="mix-blend-mode:soft-light" cx="1870.5" cy="609" rx="104.5" ry="105"/></g></g></g></svg>