<svg width="32" height="31" viewBox="0 0 32 31" xmlns="http://www.w3.org/2000/svg"><path d="M17.881 18.738v-7.46c-.466-.393-1.025-.59-1.675-.59-1.538 0-2.306 1.666-2.306 4.997 0 1.504.128 2.58.384 3.227.256.647.734.972 1.432.972.326 0 .675-.092 1.048-.277.372-.186.745-.474 1.117-.869m5.064-9.196l-.035 8.572c0 1.18.362 1.77 1.083 1.77 1.607 0 2.41-2.164 2.41-6.49 0-1.457-.239-2.763-.715-3.92a8.17 8.17 0 0 0-2.044-2.95c-.885-.81-1.962-1.434-3.23-1.874-1.27-.44-2.684-.66-4.244-.66-1.584 0-3.038.301-4.365.903A10.025 10.025 0 0 0 8.399 7.39c-.943 1.064-1.676 2.337-2.2 3.817-.524 1.48-.786 3.1-.786 4.858 0 3.563.85 6.23 2.55 8 1.699 1.77 4.097 2.654 7.194 2.654 2.328 0 4.61-.428 6.846-1.284.907.971 1.361 2.198 1.361 3.679-.535.23-1.158.45-1.868.659a28.778 28.778 0 0 1-4.575.937c-.78.091-1.508.139-2.183.139-2.235 0-4.261-.307-6.077-.92-1.817-.614-3.365-1.527-4.645-2.741-1.28-1.215-2.27-2.73-2.97-4.546C.35 20.827 0 18.703 0 16.275c0-2.382.413-4.575 1.24-6.576.826-2 1.96-3.72 3.405-5.154 1.443-1.433 3.148-2.55 5.116-3.348C11.728.4 13.853 0 16.135 0s4.378.312 6.287.937c1.909.624 3.556 1.515 4.942 2.672a11.929 11.929 0 0 1 3.23 4.25c.769 1.678 1.152 3.569 1.152 5.674 0 1.69-.208 3.17-.627 4.442-.42 1.273-.984 2.343-1.695 3.21-.71.868-1.531 1.521-2.462 1.96-.931.44-1.91.66-2.933.66-2.073 0-3.703-.682-4.89-2.047-1.56 1.434-3.202 2.151-4.925 2.151-1.746 0-3.108-.723-4.086-2.169-.978-1.445-1.467-3.453-1.467-6.02 0-1.272.169-2.44.507-3.506.337-1.063.826-1.989 1.466-2.776A6.633 6.633 0 0 1 13.01 7.6c.943-.44 2.009-.659 3.197-.659.65 0 1.303.07 1.955.208a12.12 12.12 0 0 1 1.869.555c.593.231 1.14.51 1.641.834.501.323.925.658 1.274 1.005" fill="#E3E3E3" fill-rule="evenodd"/></svg>