<svg xmlns="http://www.w3.org/2000/svg" viewBox="0 0 60 60"><circle cx="15" cy="19" r="1" class="st0"/><circle cx="18" cy="22" r="1" class="st0"/><circle cx="24" cy="22" r="1" class="st0"/><circle cx="21" cy="19" r="1" class="st0"/><circle cx="30" cy="22" r="1" class="st0"/><circle cx="18" cy="16" r="1" class="st0"/><circle cx="24" cy="16" r="1" class="st0"/><circle cx="30" cy="16" r="1" class="st0"/><circle cx="27" cy="19" r="1" class="st0"/><circle cx="15" cy="25" r="1" class="st0"/><circle cx="18" cy="28" r="1" class="st0"/><circle cx="24" cy="28" r="1" class="st0"/><circle cx="21" cy="25" r="1" class="st0"/><circle cx="30" cy="28" r="1" class="st0"/><circle cx="27" cy="25" r="1" class="st0"/><circle cx="15" cy="31" r="1" class="st0"/><circle cx="33" cy="19" r="1" class="st0"/><circle cx="33" cy="25" r="1" class="st0"/><circle cx="33" cy="31" r="1" class="st0"/><circle cx="18" cy="34" r="1" class="st0"/><circle cx="24" cy="34" r="1" class="st0"/><circle cx="21" cy="31" r="1" class="st0"/><circle cx="30" cy="34" r="1" class="st0"/><circle cx="27" cy="31" r="1" class="st0"/><path d="M60 8V0h-8v3H8V0H0v8h3v44H0v8h8v-3h44v3h8v-8h-3V8h3zm-6-6h4v4h-4V2zM2 6V2h4v4H2zm4 52H2v-4h4v4zm52-4v4h-4v-4h4zm-3-2h-3v3H8v-3H5V8h3V5h44v3h3v44z"/><path d="M36 13H12v24h11v11h24V24H36V13zM18 35h-4V15h20v20H18zm27-9v20H25v-9h11V26h9z"/></svg>