<svg xmlns="http://www.w3.org/2000/svg" viewBox="0 0 60 60"><path d="M30 0C13.5 0 0 13.5 0 30s13.5 30 30 30c7.3 0 11.3-1.2 12.6-3.7 1.5-3-1.2-6.7-3.8-10.4-2-3-4.3-6-3-7.3 2-2 6.3-1.8 10.5-1.7 4.6 0 9.4.2 12-2.3 1-1 1.7-2.7 1.7-4.7C60 13.5 46.5 0 30 0zm27 33.3c-2 2-6.4 1.8-10.6 1.7-4.6 0-9.5-.2-12 2.3-2.6 2.4 0 6.2 2.7 9.8 2.3 3 4.7 6.5 3.7 8.4-.6 1.2-3 2.6-10.8 2.6C14.5 58 2 45.4 2 30S14.6 2 30 2s28 12.6 28 28c0 1.4-.4 2.5-1 3.3z"/><path d="M29 27c-3 .5-5.5 3-6 6-.3 3 1.3 6 4 7.3l1 .2c.5 0 1-.2 1.3-.5.6-.5 1-1.3.7-2-.2-1-.3-2.3.8-3.3.3-.3 1.5-.6 3.7-.6.7 0 1.3-.3 1.7-.8.4-.6.4-1.3.2-2-1.4-3-4.4-4.6-7.5-4zm.3 6.2c-1.4 1.3-1.8 3-1.3 5.2-2-1-3.2-3-3-5 .3-2.2 2-4 4-4.3h1c1.8 0 3.6 1 4.4 3-4 0-4.8 1-5 1.2zM30 14c2.8 0 5-2.2 5-5s-2.2-5-5-5-5 2.2-5 5 2.2 5 5 5zm0-8c1.7 0 3 1.3 3 3s-1.3 3-3 3-3-1.3-3-3 1.3-3 3-3zm-5 45c0 2.8 2.2 5 5 5s5-2.2 5-5-2.2-5-5-5-5 2.2-5 5zm8 0c0 1.7-1.3 3-3 3s-3-1.3-3-3 1.3-3 3-3 3 1.3 3 3zm13-23c0 2.8 2.2 5 5 5s5-2.2 5-5-2.2-5-5-5-5 2.2-5 5zm5-3c1.7 0 3 1.3 3 3s-1.3 3-3 3-3-1.3-3-3 1.3-3 3-3z"/><path d="M14 30c0-2.8-2.2-5-5-5s-5 2.2-5 5 2.2 5 5 5 5-2.2 5-5zm-5 3c-1.7 0-3-1.3-3-3s1.3-3 3-3 3 1.3 3 3-1.3 3-3 3z" class="st0"/><path d="M11.6 11.6c-2 2-2 5 0 7 1 1 2.3 1.6 3.5 1.6 1.4 0 2.7-.5 3.6-1.5 2-2 2-5 0-7s-5-2-7 0zm5.7 5.7c-1.2 1.2-3 1.2-4.2 0-1-1.2-1-3 0-4.2.7-.5 1.5-.8 2.2-.8.8 0 1.5.3 2 1 1.2 1 1.2 3 0 4zm29.2-5.7c-1-1-2.2-1.5-3.5-1.5s-2.6.6-3.5 1.6c-2 2-2 5 0 7 1 1 2.3 1.6 3.5 1.6s2.6-.5 3.5-1.5c2-2 2-5 0-7zM45 17.3c-1 1-3 1-4 0-1.3-1.2-1.3-3 0-4.2.5-.5 1.2-.8 2-.8s1.6.3 2 1c1.3 1 1.3 3 0 4zm-33.4 24c-2 2-2 5 0 7 1 1 2.3 1.6 3.5 1.6 1.4 0 2.7-.6 3.6-1.6 2-2 2-5 0-7s-5-2-7 0zm5.7 5.7c-1.2 1.2-3 1.2-4.2 0-1-1.2-1-3 0-4.2.7-.6 1.5-1 2.2-1s1.5.4 2 1c1.2 1 1.2 3 0 4.2z"/></svg>