<svg width="48" height="48" viewBox="0 0 48 48" xmlns="http://www.w3.org/2000/svg"><path d="M47.662 30.344l.338.244v.182C48 40.27 40.219 48 30.655 48h-17.91C5.718 48 0 42.32 0 35.338l.015-8.114c.38-3.648 2.78-21.727 13.03-22.883 5.911-.66 8.704 4.139 11.17 8.376 2.469 4.241 5.021 8.627 10.637 9.743l.165.033.08.145a4.666 4.666 0 0 1-.823 5.574l-.478.468-.187-.038c-8.43-1.674-12.163-8.088-14.888-12.77-2.422-4.161-3.406-5.43-4.961-5.268-3.665.415-6.662 10.196-7.415 17.097l.002 7.637c0 3.505 2.87 6.357 6.398 6.357h17.91c6.065 0 10.998-4.9 10.998-10.925v-.171l.133-.106a4.864 4.864 0 0 1 5.876-.149zM45.065 5.623c0 3.105-2.533 5.621-5.659 5.621-3.125 0-5.66-2.516-5.66-5.621 0-3.105 2.535-5.623 5.66-5.623 3.126 0 5.66 2.518 5.66 5.623z" fill="#F57474" fill-rule="evenodd"/></svg>