<svg xmlns="http://www.w3.org/2000/svg" viewBox="0 0 60 60"><path d="M16.6 7l-1.8 1.2c-.5.3-.6 1-.3 1.4.2.3.5.4.8.4.2 0 .4 0 .6-.2.4-.4 1-.7 1.5-1 .5-.3.6-1 .4-1.4-.3-.4-1-.6-1.4-.3zm26.6 1c-.3.6-.2 1.2.3 1.5l1.6 1 .7.3c.3 0 .6 0 .8-.4.3-.4.2-1-.2-1.4l-1.7-1.2c-.5-.3-1-.2-1.4.3zM57 28.4c0-.6-.6-1-1.2-1s-1 .6-1 1.2v1h-3v8h8v-8h-3v-1.2zm1 7h-4v-4h4v4zM4.7 21L4 23c-.2.5.2 1 .7 1.2H5c.4 0 .8-.3 1-.7l.6-1.8c.2-.5 0-1-.6-1.3-.5-.2-1 0-1.3.6zm49.8.7c-.5.2-.8.7-.7 1.3l.5 2c0 .4.5.7 1 .7h.2c.5 0 1-.7.7-1.2l-.6-2c0-.7-.6-1-1-.8zm-5.1-10c-.4-.4-1-.4-1.4 0s-.4 1 0 1.4c.4.6 1 1 1.3 1.5.2.2.5.4.8.4.3 0 .6-.2.7-.3.4-.4.5-1 0-1.4l-1.3-1.6zm-36.4.5c.3-.4.3-1 0-1.4-.5-.4-1-.4-1.5 0L10 12.3c-.4.4-.3 1 0 1.4.3.2.5.3.8.3.3 0 .5 0 .7-.3l1.4-1.5zM53.3 20s.3 0 .4-.2c.5-.2.7-.8.5-1.3l-1-1.8c-.3-.5-1-.6-1.4-.3-.5.3-.6 1-.3 1.4l1 1.7c0 .2.4.4.8.4zM5 29.2c0-.6 0-1.3.2-2 0-.4-.3-1-1-1-.4 0-1 .3-1 1 0 .6 0 1.3-.2 2v.4H0v8h8v-8H5v-.4zm1 6.3H2v-4h4v4zm1.6-20c-.4.6-.8 1.2-1 1.8-.4.5-.2 1 .3 1.4h.4c.3 0 .7 0 1-.4.2-.6.6-1 1-1.6.2-.5 0-1-.4-1.4-.5-.4-1-.3-1.4.2z"/><path d="M4 8.5c2 0 3.4-1.3 4-3h12c-.3.3-.4.7-.2 1 .2.5.5.7 1 .7h.3l2-.7c.4 0 .6-.6.6-1H26v3h8V5.8h.8c.3 0 .6 0 .8-.4h2.2v.2c-.3.5 0 1 .5 1.3.6 0 1.2.4 1.8.6h.5c.4 0 .8 0 1-.5 0-.4 0-1-.6-1.2-.4 0-.6-.2-1-.3h12c.5 1.7 2 3 4 3 2.2 0 4-1.8 4-4s-1.8-4-4-4c-2 0-3.4 1.3-4 3H34v-3h-8v3H8c-.5-1.7-2-3-4-3-2.2 0-4 1.8-4 4s1.8 4 4 4zm52-6c1 0 2 1 2 2s-1 2-2 2-2-1-2-2 1-2 2-2zm-28 0h4v4h-4v-4zm-24 0c1 0 2 1 2 2s-1 2-2 2-2-1-2-2 1-2 2-2zm27 8c0-.6-.4-1-1-1s-1 .4-1 1v.7L11.2 38.5h5c3.3 0 6 2.6 6 5.8v10.2h2v5h12v-5h2V44.3c0-3.2 2.5-5.8 5.7-5.8h5L31 11.2v-.7zm-1 24c1 0 2 1 2 2s-1 2-2 2-2-1-2-2 1-2 2-2zm4 23h-8v-3h8v3zm2-5H24v-3h12v3zm7.8-16c-4.3 0-7.8 3.5-7.8 7.8v3.2H24v-3.2c0-4.3-3.5-7.8-7.8-7.8h-1.4L29 15v17.7c-1.7.4-3 2-3 4s1.8 4 4 4 4-2 4-4-1.3-3.5-3-4V15l14.2 21.5h-1.4z"/></svg>