<svg width="48" height="48" viewBox="0 0 48 48" xmlns="http://www.w3.org/2000/svg"><path d="M47.433 25.755l.567.273v.225C48 38.245 38.244 48 26.254 48H9.4C4.218 48 0 43.783 0 38.6V9.4C0 4.217 4.218 0 9.4 0h18.762l.142.282a6.473 6.473 0 0 1-.045 5.87l-.1.195H9.4A3.058 3.058 0 0 0 6.347 9.4v29.2a3.058 3.058 0 0 0 3.054 3.053h16.853c8.49 0 15.399-6.908 15.399-15.4v-.214l.272-.147a6.066 6.066 0 0 1 5.508-.137zM13.185 15.478l.206-.427h23.34l.207.427a6.31 6.31 0 0 1-.115 5.73l-.102.19H13.4l-.102-.19a6.308 6.308 0 0 1-.114-5.73zm.21 10.438H25.63l.1.195a6.57 6.57 0 0 1 0 5.956l-.1.196H13.396l-.1-.196a6.574 6.574 0 0 1 0-5.956l.1-.195z" fill="#F57474" fill-rule="evenodd"/></svg>