<svg width="48" height="16" viewBox="0 0 48 16" xmlns="http://www.w3.org/2000/svg"><path d="M22.068 2.302l7.83 4.03c2.101.997 3.966 1.495 5.593 1.495 2.441 0 4.61-1.381 6.509-4.143l1.525-2.187c.88.077 1.762.403 2.644.978.88.576 1.491 1.324 1.831 2.245l-1.017 2.07C44.203 12.931 39.966 16 34.271 16c-2.644 0-5.424-.766-8.339-2.302l-7.83-4.03c-1.83-.92-3.831-1.38-6-1.38-2.17 0-4.17 1.344-6 4.028l-1.628 2.188c-.881-.076-1.763-.403-2.643-.979C.949 12.95.339 12.202 0 11.281l1.017-2.072C3.797 3.07 8.034 0 13.729 0c2.644 0 5.422.768 8.339 2.302" fill="#F57474" fill-rule="evenodd"/></svg>