<svg width="38" height="38" viewBox="0 0 38 38" xmlns="http://www.w3.org/2000/svg"><path d="M10.98 14.065L7.53 3.853A18.915 18.915 0 0 1 19 0c7.072 0 13.24 3.864 16.512 9.595H19.448a9.408 9.408 0 0 0-8.467 4.47zM28.417 19a9.402 9.402 0 0 1-3.98 7.687L12.51 36.862A18.967 18.967 0 0 0 19 38c10.494 0 19-8.506 19-19a18.98 18.98 0 0 0-.982-6.042H26.22a9.38 9.38 0 0 1 2.196 6.041zM9.19 35.274l8.201-6.998a9.424 9.424 0 0 1-7.54-7.05L4.824 6.351C1.824 9.71 0 14.141 0 19c0 6.905 3.683 12.949 9.19 16.275zM19 24.884a5.885 5.885 0 1 0 0-11.769 5.885 5.885 0 0 0 0 11.77z" fill="#F57474" fill-rule="evenodd"/></svg>