<svg width="32" height="30" viewBox="0 0 32 30" xmlns="http://www.w3.org/2000/svg"><path d="M.224 7C.075 6.292 0 4.204 0 3.288 0 2.372.075.71.224 0h31.477c.2.636.299 3.53.299 4.434 0 .904-.25 1.558-.747 1.961-.5.404-1.297.605-2.393.605H.224zm.001 23C.075 29.292 0 27.204 0 26.288 0 25.372.075 23.71.225 23H18.7c.2.636.3 3.53.3 4.434 0 .904-.25 1.558-.75 1.961-.502.404-1.304.605-2.406.605H.225zM.224 19C.075 18.292 0 16.204 0 15.288 0 14.372.075 12.71.224 12h31.477c.2.636.299 3.53.299 4.434 0 .904-.25 1.558-.747 1.961-.5.404-1.297.605-2.393.605H.224z" fill="#E3E3E3" fill-rule="evenodd"/></svg>