<svg width="152" height="143" viewBox="0 0 152 143" xmlns="http://www.w3.org/2000/svg"><g fill="#FFF" fill-rule="evenodd"><path d="M14.21 121.492c-3.925 0-6.667 2.513-6.667 7.115 0 4.507 2.506 7.163 6.666 7.163 4.114 0 6.289-2.94 6.289-7.258 0-4.554-2.506-7.02-6.289-7.02zm-8.436-16.65c1.003 0 1.816.815 1.816 1.821v6.194c0 .95 0 2.8-.142 4.65 2.08-1.708 4.776-2.704 7.99-2.704 7.708 0 12.342 5.076 12.342 13.377 0 9.156-5.344 14.326-13.618 14.326-8.558 0-13.9-4.553-13.9-13.709v-22.134c0-1.006.812-1.822 1.815-1.822h3.697zm32.832 21.583h6.809c3.545 0 5.059-.664 5.059-2.514 0-1.755-1.418-3.178-4.492-3.178-3.593 0-6.62 1.897-7.376 5.692m18.724-2.657c0 5.883-4.87 7.827-13.002 7.827h-5.439c1.088 3.274 3.83 4.507 8.228 4.507 2.49 0 4.858-.493 6.724-1.196 1.186-.446 2.449.434 2.449 1.706v2.51c0 .694-.388 1.342-1.015 1.635-2.174 1.017-5.156 1.75-9.01 1.75-8.557 0-14.657-4.554-14.657-13.947 0-8.728 6.1-13.947 14.421-13.947 6.336 0 11.3 3.32 11.3 9.155m25.484 7.78c0 2.989 1.23 4.27 4.256 4.27.265 0 .522-.014.769-.039 1.061-.106 1.973.743 1.973 1.813v2.571c0 .818-.538 1.535-1.322 1.756-.888.25-2.006.398-3.217.398-6.667 0-9.74-3.368-9.74-10.626v-10.247h-1.54a1.82 1.82 0 0 1-1.817-1.822V117.1a1.82 1.82 0 0 1 1.817-1.823h1.54v-4.82a1.82 1.82 0 0 1 1.817-1.821h3.649c1.002 0 1.815.816 1.815 1.822v4.82h5.182a1.82 1.82 0 0 1 1.816 1.822v2.522a1.819 1.819 0 0 1-1.816 1.822h-5.182v10.104zm55.224-10.056c-3.925 0-6.667 2.513-6.667 7.115 0 4.507 2.506 7.163 6.667 7.163 4.113 0 6.288-2.94 6.288-7.258 0-4.554-2.505-7.02-6.288-7.02zm-8.436-16.65c1.003 0 1.816.815 1.816 1.821v6.194c0 .95 0 2.8-.141 4.65 2.08-1.708 4.775-2.704 7.99-2.704 7.707 0 12.34 5.076 12.34 13.377 0 9.156-5.342 14.326-13.616 14.326-8.559 0-13.902-4.553-13.902-13.709v-22.134a1.82 1.82 0 0 1 1.817-1.822h3.696zm-19.223 25.995v-.095h-4.728c-3.357 0-5.012.996-5.012 2.941 0 1.85 1.655 2.609 3.593 2.609 3.357 0 6.147-1.85 6.147-5.455zM95.106 118.12c0-.756.461-1.444 1.17-1.703 2.589-.945 6.045-1.615 9.185-1.615 8.274 0 11.962 3.747 11.82 11.48l-.141 7.59c-.048 1.565.661 2.372 2.175 2.372.33 0 .661-.048.992-.095v5.455c-.945.427-2.127.712-3.782.712-3.215 0-4.918-1.376-5.627-3.416-1.702 2.135-4.775 3.416-8.605 3.416-5.485 0-8.984-2.8-8.984-7.875 0-6.262 4.587-8.633 12.057-8.633h5.012c0-3.274-1.939-4.65-5.532-4.65-2.452 0-5.006.533-7.308 1.392-1.18.44-2.432-.45-2.432-1.711v-2.719zM74.315 36.242c.254 1.697-.975 3.248-2.676 3.472l-.514.07c-19.406 2.764-36.64-12.696-36.64-32.3V2.845c0-1.705 1.498-3.05 3.187-2.819 18.847 2.587 33.835 17.437 36.643 36.216zm38.775 49.636c-19.527 0-34.987-17.14-32.265-36.478l.069-.51c.225-1.73 1.817-2.975 3.537-2.675 18.297 3.186 32.663 17.968 35.203 36.479.231 1.688-1.115 3.184-2.818 3.184h-3.726zm-73.97-9.063l4.079 4.08 2.244 2.244a42.483 42.483 0 0 1-6.253 1.526c-1.91.324-3.585-1.35-3.26-3.261a45.57 45.57 0 0 1 .34-1.769c.32-1.51.711-3.007 1.194-4.476l1.656 1.656zm11.174-11.058l3.962 3.962 5.43 5.43a42.943 42.943 0 0 1-7.829 5.277l-4.119-4.12-4.03-4.031-3.53-3.53a42.946 42.946 0 0 1 5.275-7.83l4.841 4.842zm19.27-19.16c.462-.094.926-.182 1.391-.261 1.925-.33 3.642 1.304 3.317 3.23l-.006.036a42.948 42.948 0 0 1-9.978 21.022l-5.493-5.494-3.913-3.914-4.904-4.904a42.96 42.96 0 0 1 19.585-9.714zm19.894-7.221c-5.082 1.362-9.733-3.29-8.371-8.372l.523-1.953c1.595-5.951 9.032-7.944 13.388-3.588s2.363 11.795-3.587 13.39l-1.953.523z"/><path d="M73.77 35.474c.925.907.812 2.442-.204 3.4-.102.096-.184.22-.306.29-11.631 6.748-29.709 10.001-38.468-1.894l-2.073-2.814c-.762-1.035-.38-2.575.83-3.25 13.52-7.538 29.988-5.77 40.222 4.268zm11.17 11.122c11.082 9.092 14.617 25.274 8.584 39.53-.54 1.278-2.031 1.823-3.142 1.177l-3.021-1.757c-12.77-7.426-11.487-25.75-6.035-38.044.057-.129.171-.223.256-.336.843-1.113 2.356-1.392 3.358-.57z"/></g></svg>