<svg xmlns="http://www.w3.org/2000/svg" viewBox="0 0 137.8 32.22"><circle cx="99.7" cy="2.53" r="2.4" transform="translate(27.41 71.24) rotate(-45)" style="fill:#656565"/><path d="M17.6,21.9c-1.5,2-4,3-7.7,3s-6.2-1-7.7-3S0,16.8,0,12.6.7,5.3,2.2,3.2,6.2.1,9.9.1s6.2,1,7.7,3.1,2.2,5.2,2.2,9.4S19.1,19.9,17.6,21.9ZM6,18.6c.7,1.2,1.9,1.8,3.8,1.8s3.2-.6,3.8-1.8,1-3.3,1-6.1-.3-4.9-1-6.2A3.84,3.84,0,0,0,9.7,4.4,4,4,0,0,0,5.9,6.3c-.7,1.3-1,3.4-1,6.2S5.3,17.4,6,18.6ZM20.6,4.5V.2H37V4.6L26.7,19.9v.7H37V25H20.6V20.7L31,5.2V4.5ZM54.1,24.9H45.7V0h8.4a18.82,18.82,0,0,1,5.3.7,6.61,6.61,0,0,1,3.2,2.2,9.48,9.48,0,0,1,1.6,3.7,25,25,0,0,1,.4,5.5,35.17,35.17,0,0,1-.4,5.6,11.4,11.4,0,0,1-1.5,4,6,6,0,0,1-3.2,2.5A16.72,16.72,0,0,1,54.1,24.9ZM59.4,15c0-.8.1-1.9.1-3.2a18.29,18.29,0,0,0-.2-3.3,6.15,6.15,0,0,0-.7-2.3A2.48,2.48,0,0,0,57,4.8a9.25,9.25,0,0,0-2.9-.4H50.8V20.5h3.3a5.33,5.33,0,0,0,4-1.4A7.39,7.39,0,0,0,59.4,15Zm11.3,5.1a3.31,3.31,0,0,0,2.3.7c2.2,0,4.1-.1,5.8-.2l1-.1.1,3.4a29.75,29.75,0,0,1-7.2,1q-3.9,0-5.7-2.1c-1.2-1.4-1.8-3.6-1.8-6.8,0-6.2,2.5-9.4,7.6-9.4s7.6,2.6,7.6,7.9L80,17.7H69.8A3.41,3.41,0,0,0,70.7,20.1Zm5.1-5.9a4.35,4.35,0,0,0-.7-2.9,3.62,3.62,0,0,0-4.6,0,5,5,0,0,0-.7,2.9Zm19-2.8q-3-.45-6-.6a4.09,4.09,0,0,0-2.2.3,1.23,1.23,0,0,0-.5,1,1,1,0,0,0,.7.9,35.89,35.89,0,0,0,3.5.8,7.89,7.89,0,0,1,4,1.6,5,5,0,0,1,1.2,3.7c0,3.8-2.3,5.6-7,5.6a26.66,26.66,0,0,1-5.6-.6l-1.1-.2.1-3.9q3,.45,6,.6a5.83,5.83,0,0,0,2.3-.3,1.13,1.13,0,0,0,0-2,19.81,19.81,0,0,0-3.3-.8,9.74,9.74,0,0,1-4-1.5c-.9-.7-1.3-2-1.3-3.8A4.94,4.94,0,0,1,83.5,8a7.52,7.52,0,0,1,4.8-1.4,35.72,35.72,0,0,1,5.6.7l1.1.2Zm2.6,13.5V6.7h4.9V24.9Zm23.3,1.5a4.82,4.82,0,0,1-2.3,4.4,12,12,0,0,1-6.2,1.4,13.81,13.81,0,0,1-6-1,3.92,3.92,0,0,1-2.1-3.8c0-1.5.8-2.8,2.5-4.1a3,3,0,0,1-1.3-2.6,5.23,5.23,0,0,1,1-2.3l.3-.5a5.81,5.81,0,0,1-2.4-5,5.7,5.7,0,0,1,2-4.8,8.41,8.41,0,0,1,5.3-1.5,10.32,10.32,0,0,1,3,.4l.6.1,5.6-.2v3.7l-2.6-.2a4.9,4.9,0,0,1,.8,2.4q0,3.45-1.8,4.8c-1.2.9-3,1.3-5.6,1.2a6.15,6.15,0,0,1-1.4-.1,8.33,8.33,0,0,0-.4,1.5.76.76,0,0,0,.6.8,8.63,8.63,0,0,0,2.8.2q4.35,0,6,1.2c1.1.6,1.6,2,1.6,4Zm-12,.5c0,1,1.2,1.5,3.7,1.5s3.7-.6,3.7-1.7a1.14,1.14,0,0,0-.6-1.2,12.22,12.22,0,0,0-2.6-.3l-3.1-.2a2,2,0,0,0-1.1,1.9Zm.3-14.3c0,1.7.9,2.5,2.7,2.5s2.7-.9,2.7-2.5a2.4,2.4,0,0,0-2.7-2.6C109.9,10.1,109,10.9,109,12.6Zm17.9,12.3h-4.8V6.9h4.8v1a8,8,0,0,1,4.5-1.4c2.4,0,4.1.7,5,2.1a12.3,12.3,0,0,1,1.4,6.5v9.8H133V15.3a7.83,7.83,0,0,0-.5-3.4,2.15,2.15,0,0,0-2.2-1.1,9.82,9.82,0,0,0-2.9.5l-.4.1Z" style="fill:#656565"/></svg>