<svg width="104" height="104" viewBox="0 0 104 104" xmlns="http://www.w3.org/2000/svg"><g fill="none" fill-rule="evenodd"><path d="M8.03 90.781l4.82 4.822 2.652 2.652a50.208 50.208 0 0 1-7.39 1.803c-2.258.384-4.237-1.596-3.852-3.854.12-.7.254-1.395.4-2.09a50.255 50.255 0 0 1 1.413-5.29l1.956 1.957zm13.205-13.069l4.682 4.683 6.417 6.418a50.751 50.751 0 0 1-9.251 6.236l-4.869-4.869-4.763-4.764-4.172-4.173a50.755 50.755 0 0 1 6.236-9.253l5.72 5.722zM44.008 55.07a50.378 50.378 0 0 1 1.645-.31c2.275-.389 4.304 1.541 3.92 3.817l-.008.044a50.756 50.756 0 0 1-11.79 24.844l-6.493-6.493-4.624-4.625-5.796-5.797a50.77 50.77 0 0 1 23.146-11.48zm23.512-8.535c-6.006 1.61-11.503-3.887-9.893-9.894l.618-2.308c1.884-7.033 10.674-9.389 15.822-4.24 5.148 5.148 2.793 13.94-4.24 15.824l-2.307.618z" fill="#474747"/><path d="M49.624 42.832c.3 2.005-1.153 3.838-3.163 4.103-.203.027-.405.054-.608.083C22.92 50.283 2.552 32.013 2.552 8.844V3.362c0-2.014 1.77-3.605 3.766-3.331 22.274 3.057 39.987 20.607 43.306 42.801zm45.824 58.66c-23.077 0-41.348-20.255-38.131-43.11l.082-.603c.266-2.045 2.148-3.516 4.18-3.162 21.624 3.766 38.602 21.236 41.603 43.112.274 1.995-1.317 3.763-3.33 3.763h-4.404z" fill="#ED5656"/><path d="M48.98 41.924c1.093 1.072.96 2.886-.241 4.018-.121.114-.218.26-.362.344-13.746 7.974-35.11 11.818-45.463-2.24L.464 40.72c-.9-1.222-.449-3.043.982-3.84 15.979-8.908 35.44-6.819 47.534 5.044zm13.2 13.144c13.097 10.745 17.275 29.87 10.145 46.718-.64 1.51-2.4 2.154-3.713 1.39l-3.57-2.076c-15.092-8.776-13.576-30.433-7.133-44.962.067-.152.203-.263.303-.396.996-1.316 2.785-1.645 3.968-.674z" fill="#ED5656"/></g></svg>