<svg id="Layer_1" xmlns="http://www.w3.org/2000/svg" viewBox="0 0 189 36.5"><style>.st0{fill:#666}.st1{fill:#1c1b1b}.st2{fill:#dc5b21}</style><g id="Layer_1-2"><path class="st0" d="M40 13.5L27.6 25.9c-.7.7-.7 1.9 0 2.6.3.3.8.5 1.2.5h4C38.4 29 43 24.4 43 18.8v-4c0-1-.8-1.8-1.8-1.8-.4 0-.9.2-1.2.5z"/><path class="st1" d="M17 34.1c-9.4 0-17-7.6-17-17S7.6 0 17 0h12.6C32 0 34 2 34 4.4V17c0 9.4-7.6 17-17 17.1z"/><path class="st2" d="M17.5 17.7v9.6c0 1 .8 1.8 1.8 1.8.5 0 1-.2 1.3-.5L41.8 7.4c.7-.7.7-1.9 0-2.6-.3-.3-.8-.5-1.3-.5h-9.6c-7.4 0-13.4 6-13.4 13.4z"/><ellipse transform="rotate(-45.001 150.937 6.82)" class="st2" cx="150.9" cy="6.8" rx="2.4" ry="2.4"/><path d="M68.8 26.2c-1.5 2-4 3-7.7 3-3.6 0-6.2-1-7.7-3s-2.2-5.1-2.2-9.3.7-7.3 2.2-9.4c1.5-2 4-3.1 7.7-3.1 3.6 0 6.2 1 7.7 3.1 1.5 2 2.2 5.2 2.2 9.4s-.7 7.3-2.2 9.3zm-11.6-3.3c.7 1.2 1.9 1.8 3.8 1.8s3.2-.6 3.8-1.8c.7-1.2 1-3.3 1-6.1s-.3-4.9-1-6.2c-.8-1.4-2.3-2.1-3.9-1.9-1.5-.2-3 .6-3.8 1.9-.7 1.3-1 3.4-1 6.2.1 2.9.4 4.9 1.1 6.1zM71.8 8.8V4.5h16.4v4.4L77.9 24.2v.7h10.3v4.4H71.8V25L82.2 9.5v-.7H71.8zm33.5 20.4h-8.4V4.3h8.4c1.8 0 3.6.2 5.3.7 1.3.4 2.4 1.2 3.2 2.2.8 1.1 1.3 2.3 1.6 3.7.3 1.8.5 3.6.4 5.5 0 1.9-.1 3.7-.4 5.6-.2 1.4-.8 2.8-1.5 4-.8 1.2-1.9 2.1-3.2 2.5-1.8.5-3.6.8-5.4.7zm5.3-9.9c0-.8.1-1.9.1-3.2 0-1.1 0-2.2-.2-3.3-.1-.8-.3-1.6-.7-2.3-.3-.7-.9-1.2-1.6-1.4-.9-.3-1.9-.4-2.9-.4H102v16.1h3.3c1.5.1 2.9-.4 4-1.4.8-1.2 1.3-2.6 1.3-4.1zm11.3 5.1c.7.5 1.5.8 2.3.7 2.2 0 4.1-.1 5.8-.2l1-.1.1 3.4c-2.4.6-4.8 1-7.2 1-2.6 0-4.5-.7-5.7-2.1-1.2-1.4-1.8-3.6-1.8-6.8 0-6.2 2.5-9.4 7.6-9.4s7.6 2.6 7.6 7.9l-.4 3.2H121c0 .9.3 1.8.9 2.4zm5.1-5.9c.1-1-.1-2-.7-2.9-1.3-1.1-3.3-1.1-4.6 0-.5.9-.8 1.9-.7 2.9h6zm19-2.8c-2-.3-4-.5-6-.6-.8-.1-1.5 0-2.2.3-.3.2-.5.6-.5 1s.3.8.7.9c1.1.3 2.3.6 3.5.8 1.5.2 2.9.7 4 1.6.9 1 1.3 2.4 1.2 3.7 0 3.8-2.3 5.6-7 5.6-1.9 0-3.7-.2-5.6-.6l-1.1-.2.1-3.9c2 .3 4 .5 6 .6.8.1 1.6-.1 2.3-.3.4-.2.6-.6.6-1s-.2-.8-.6-1c-1.1-.4-2.2-.6-3.3-.8-1.4-.2-2.8-.7-4-1.5-.9-.7-1.3-2-1.3-3.8-.1-1.6.6-3.2 1.9-4.2 1.4-1 3.1-1.5 4.8-1.4 1.9.1 3.7.3 5.6.7l1.1.2-.2 3.9zm2.6 13.5V11h4.9v18.2h-4.9zm23.3 1.5c.1 1.8-.8 3.5-2.3 4.4-1.9 1-4 1.5-6.2 1.4-2 .1-4.1-.2-6-1-1.4-.7-2.2-2.2-2.1-3.8 0-1.5.8-2.8 2.5-4.1-.9-.6-1.3-1.6-1.3-2.6.1-.8.5-1.6 1-2.3l.3-.5c-1.6-1.2-2.5-3-2.4-5 0-2.2.7-3.8 2-4.8 1.6-1.1 3.4-1.6 5.3-1.5 1 0 2 .1 3 .4l.6.1 5.6-.2v3.7l-2.6-.2c.5.7.7 1.5.8 2.4 0 2.3-.6 3.9-1.8 4.8-1.2.9-3 1.3-5.6 1.2-.5 0-1 0-1.4-.1-.2.5-.3 1-.4 1.5 0 .4.2.7.6.8.9.2 1.8.3 2.8.2 2.9 0 4.9.4 6 1.2 1.1.6 1.6 2 1.6 4zm-12 .5c0 1 1.2 1.5 3.7 1.5s3.7-.6 3.7-1.7c.1-.5-.2-1-.6-1.2-.9-.2-1.8-.3-2.6-.3l-3.1-.2c-.8.4-1.1 1.1-1.1 1.9zm.3-14.3c0 1.7.9 2.5 2.7 2.5 1.8 0 2.7-.9 2.7-2.5s-.9-2.6-2.7-2.6c-1.8.1-2.7.9-2.7 2.6zm17.9 12.3h-4.8v-18h4.8v1c1.3-.9 2.9-1.4 4.5-1.4 2.4 0 4.1.7 5 2.1s1.4 3.6 1.4 6.5v9.8h-4.8v-9.6c.1-1.2-.1-2.3-.5-3.4-.4-.8-1.3-1.2-2.2-1.1-1 0-1.9.2-2.9.5l-.4.1-.1 13.5z"/></g></svg>